{
.appVersion = "3306";
.formatVersion = 3;
DisplayStrings = (
"ΐΐΐΐΐΐΰΰΰΰΰΰώώώώώώάάάάάάέέέέέέήήήήήή/periodcentered.loclCAT.case/periodcentered.loclCAT.case/periodcentered.loclCAT.case/periodcentered.loclCAT/periodcentered.loclCAT/periodcentered.loclCAT ↊↊↊/commaaccentcomb.alt/commaaccentcomb.alt/commaaccentcomb.alt"
);
axes = (
{
name = Weight;
tag = wght;
}
);
classes = (
{
automatic = 1;

glyphs = (
{
glyphname = A;
layers = (
{
anchors = (
{
name = bottom;
pos = (256,0);
},
{
name = ogonek;
pos = (450,0);
},
{
name = top;
pos = (372,730);
}
);
layerId = "EDF5EB54-295C-4C90-9A2F-67CD82979CFF";
shapes = (
{
closed = 1;
nodes = (
(76,0,l),
(165,210,l),
(415,210,l),
(438,0,l),
(488,0,l),
(403,730,l),
(341,730,l),
(24,0,l)
);
},
{
closed = 1;
nodes = (
(311,550,ls),
(342,622,o),
(362,673,o),
(367,688,c),
(368,673,o),
(370,622,o),
(378,550,cs),
(410,255,l),
(184,255,l)
);
}
);
width = 600;
},
{
anchors = (
{
name = bottom;
pos = (256,0);
},
{
name = ogonek;
pos = (430,0);
},
{
name = top;
pos = (372,730);
}
);
layerId = "9ADF6715-3D0F-493D-8567-18A6FBCFC567";
shapes = (
{
closed = 1;
nodes = (
(138,0,l),
(199,165,l),
(373,165,l),
(382,0,l),
(531,0,l),
(466,730,l),
(276,730,l),
(-19,0,l)
);
},
{
closed = 1;
nodes = (
(308,462,ls),
(326,512,o),
(343,567,o),
(352,595,c),
(353,567,o),
(357,512,o),
(359,461,cs),
(366,285,l),
(243,285,l)
);
}
);
width = 600;
},
{
anchors = (
{
name = bottom;
pos = (256,0);
},
{
name = ogonek;
pos = (455,0);
},
{
name = top;
pos = (372,730);
}
);
layerId = "CCC0BD40-BA8C-414E-B576-CF0B94E6C996";
shapes = (
{
closed = 1;
nodes = (
(101,0,l),
(180,194,l),
(401,194,l),
(418,0,l),
(506,0,l),
(433,730,l),
(312,730,l),
(6,0,l)
);
},
{
closed = 1;
nodes = (
(302,496,ls),
(336,580,o),
(357,640,o),
(363,658,c),
(363,640,o),
(365,580,o),
(373,495,cs),
(394,270,l),
(210,270,l)
);
}
);
width = 600;
}
);
unicode = 65;
},
{
glyphname = Aogonek;
layers = (
{
layerId = "EDF5EB54-295C-4C90-9A2F-67CD82979CFF";
shapes = (
{
closed = 1;
nodes = (
(497,-195,l),
(504,-153,l),
(440,-153,ls),
(408,-153,o),
(392,-134,o),
(397,-103,cs),
(401,-75,o),
(430,-36,o),
(474,0,cs),
(487,10,l),
(450,10,l),
(393,-27,o),
(354,-74,o),
(348,-115,cs),
(340,-165,o),
(369,-195,o),
(424,-195,c)
);
},
{
ref = A;
}
);
width = 600;
},
{
layerId = "CCC0BD40-BA8C-414E-B576-CF0B94E6C996";
shapes = (
{
closed = 1;
nodes = (
(509,-203,l),
(518,-143,l),
(458,-143,ls),
(424,-143,o),
(407,-122,o),
(411,-93,cs),
(416,-65,o),
(439,-36,o),
(490,1,c),
(503,10,l),
(428,10,l),
(358,-34,o),
(330,-72,o),
(324,-110,cs),
(315,-164,o),
(357,-203,o),
(431,-203,cs)
);
},
{
ref = A;
}
);
width = 600;
},
{
layerId = "9ADF6715-3D0F-493D-8567-18A6FBCFC567";
shapes = (
{
closed = 1;
nodes = (
(492,-225,l),
(509,-120,l),
(440,-120,ls),
(411,-120,o),
(397,-103,o),
(400,-83,cs),
(403,-66,o),
(421,-42,o),
(451,-18,cs),
(488,11,l),
(402,11,l),
(329,-19,o),
(278,-68,o),
(271,-115,cs),
(260,-180,o),
(303,-225,o),
(384,-225,cs)
);
},
{
ref = A;
}
);
width = 600;
}
);
unicode = 260;
},
{
glyphname = AE;
layers = (
{
anchors = (
{
name = bottom;
pos = (256,0);
},
{
name = top;
pos = (372,730);
}
);
layerId = "9ADF6715-3D0F-493D-8567-18A6FBCFC567";
shapes = (
{
closed = 1;
nodes = (
(99,0,l),
(151,165,l),
(273,165,l),
(247,0,l),
(536,0,l),
(556,126,l),
(392,126,l),
(420,305,l),
(559,305,l),
(580,436,l),
(441,436,l),
(468,605,l),
(632,605,l),
(652,730,l),
(209,730,l),
(-44,0,l)
);
},
{
closed = 1;
nodes = (
(294,605,l),
(343,605,l),
(290,270,l),
(185,270,l)
);
}
);
width = 600;
},
{
anchors = (
{
name = bottom;
pos = (256,0);
},
{
name = top;
pos = (372,730);
}
);
layerId = "CCC0BD40-BA8C-414E-B576-CF0B94E6C996";
shapes = (
{
closed = 1;
nodes = (
(77,0,l),
(149,203,l),
(290,203,l),
(258,0,l),
(526,0,l),
(539,82,l),
(357,82,l),
(398,338,l),
(555,338,l),
(568,420,l),
(411,420,l),
(447,648,l),
(629,648,l),
(642,730,l),
(247,730,l),
(-14,0,l)
);
},
{
closed = 1;
nodes = (
(305,648,l),
(361,648,l),
(302,278,l),
(175,278,l)
);
}
);
width = 600;
},
{
anchors = (
{
name = bottom;
pos = (256,0);
},
{
name = top;
pos = (372,730);
}
);
layerId = "EDF5EB54-295C-4C90-9A2F-67CD82979CFF";
shapes = (
{
closed = 1;
nodes = (
(40,0,l),
(130,215,l),
(300,215,l),
(266,0,l),
(525,0,l),
(532,45,l),
(323,45,l),
(373,357,l),
(546,357,l),
(553,402,l),
(380,402,l),
(424,685,l),
(633,685,l),
(641,730,l),
(294,730,l),
(-10,0,l)
);
},
{
closed = 1;
nodes = (
(323,685,l),
(374,685,l),
(307,260,l),
(150,260,l)
);
}
);
width = 600;
}
);
unicode = 198;
},
{
glyphname = B;
layers = (
{
anchors = (
{
name = top;
pos = (372,730);
}
);
layerId = "9ADF6715-3D0F-493D-8567-18A6FBCFC567";
shapes = (
{
closed = 1;
nodes = (
(266,0,ls),
(419,0,o),
(529,83,o),
(549,211,cs),
(567,323,o),
(493,381,o),
(396,380,c),
(397,383,l),
(485,383,o),
(571,446,o),
(586,543,cs),
(604,657,o),
(521,730,o),
(373,730,cs),
(138,730,l),
(22,0,l)
);
},
{
closed = 1;
nodes = (
(217,318,l),
(310,318,ls),
(375,318,o),
(409,280,o),
(400,219,cs),
(390,158,o),
(344,121,o),
(279,121,cs),
(186,121,l)
);
},
{
closed = 1;
nodes = (
(263,609,l),
(351,609,ls),
(409,609,o),
(440,577,o),
(432,523,cs),
(423,469,o),
(382,436,o),
(324,436,cs),
(236,436,l)
);
}
);
width = 600;
},
{
anchors = (
{
name = top;
pos = (372,730);
}
);
layerId = "CCC0BD40-BA8C-414E-B576-CF0B94E6C996";
shapes = (
{
closed = 1;
nodes = (
(271,0,ls),
(404,0,o),
(498,78,o),
(518,203,cs),
(537,320,o),
(474,395,o),
(358,393,c),
(356,378,l),
(463,376,o),
(539,440,o),
(555,541,cs),
(573,659,o),
(505,730,o),
(372,730,cs),
(165,730,l),
(49,0,l)
);
},
{
closed = 1;
nodes = (
(191,341,l),
(315,341,ls),
(399,341,o),
(442,286,o),
(430,206,cs),
(417,129,o),
(358,81,o),
(274,81,cs),
(150,81,l)
);
},
{
closed = 1;
nodes = (
(240,649,l),
(359,649,ls),
(436,649,o),
(476,605,o),
(465,534,cs),
(453,463,o),
(398,419,o),
(321,419,cs),
(203,419,l)
);
}
);
width = 600;
},
{
anchors = (
{
name = top;
pos = (372,730);
}
);
layerId = "EDF5EB54-295C-4C90-9A2F-67CD82979CFF";
shapes = (
{
closed = 1;
nodes = (
(257,0,ls),
(389,0,o),
(484,78,o),
(504,200,cs),
(521,310,o),
(464,380,o),
(356,380,c),
(355,370,l),
(452,370,o),
(524,439,o),
(540,542,cs),
(558,656,o),
(491,730,o),
(370,730,cs),
(182,730,l),
(66,0,l)
);
},
{
closed = 1;
nodes = (
(172,353,l),
(313,353,ls),
(415,353,o),
(469,294,o),
(454,199,cs),
(438,104,o),
(366,46,o),
(264,46,cs),
(123,46,l)
);
},
{
closed = 1;
nodes = (
(224,684,l),
(362,684,ls),
(455,684,o),
(504,630,o),
(490,541,cs),
(476,452,o),
(411,398,o),
(317,398,cs),
(179,398,l)
);
}
);
width = 600;
}
);
unicode = 66;
},
{
glyphname = C;
layers = (
{
anchors = (
{
name = bottom;
pos = (261,0);
},
{
name = top;
pos = (377,730);
}
);
layerId = "9ADF6715-3D0F-493D-8567-18A6FBCFC567";
shapes = (
{
closed = 1;
nodes = (
(405,-10,o),
(516,77,o),
(537,210,c),
(387,210,l),
(378,152,o),
(339,120,o),
(279,120,cs),
(219,120,o),
(190,152,o),
(199,210,cs),
(248,520,ls),
(258,578,o),
(297,610,o),
(357,610,cs),
(417,610,o),
(446,578,o),
(436,520,c),
(586,520,l),
(607,653,o),
(524,740,o),
(377,740,cs),
(230,740,o),
(119,653,o),
(98,520,cs),
(49,210,ls),
(28,78,o),
(111,-10,o),
(258,-10,cs)
);
}
);
width = 600;
},
{
anchors = (
{
name = bottom;
pos = (261,0);
},
{
name = top;
pos = (377,730);
}
);
layerId = "EDF5EB54-295C-4C90-9A2F-67CD82979CFF";
shapes = (
{
closed = 1;
nodes = (
(384,-10,o),
(477,72,o),
(498,200,c),
(448,200,l),
(432,98,o),
(364,35,o),
(268,35,cs),
(174,35,o),
(126,94,o),
(141,190,cs),
(197,540,ls),
(212,636,o),
(279,695,o),
(372,695,cs),
(467,695,o),
(516,632,o),
(500,530,c),
(550,530,l),
(570,658,o),
(503,740,o),
(379,740,cs),
(257,740,o),
(166,662,o),
(147,540,cs),
(91,190,ls),
(72,69,o),
(138,-10,o),
(260,-10,cs)
);
}
);
width = 600;
},
{
anchors = (
{
name = bottom;
pos = (261,0);
},
{
name = top;
pos = (377,730);
}
);
layerId = "CCC0BD40-BA8C-414E-B576-CF0B94E6C996";
shapes = (
{
closed = 1;
nodes = (
(389,-10,o),
(485,71,o),
(506,200,c),
(416,200,l),
(403,117,o),
(349,71,o),
(271,71,cs),
(192,71,o),
(153,117,o),
(166,200,cs),
(218,531,ls),
(231,613,o),
(285,659,o),
(364,659,cs),
(442,659,o),
(481,613,o),
(468,530,c),
(558,530,l),
(578,659,o),
(508,740,o),
(377,740,cs),
(244,740,o),
(149,661,o),
(128,530,cs),
(76,200,ls),
(55,69,o),
(125,-10,o),
(258,-10,cs)
);
}
);
width = 600;
}
);
unicode = 67;
},
{
glyphname = Ccedilla;
layers = (
{
layerId = "EDF5EB54-295C-4C90-9A2F-67CD82979CFF";
shapes = (
{
closed = 1;
nodes = (
(245,-195,ls),
(305,-195,o),
(350,-161,o),
(357,-118,cs),
(366,-61,o),
(307,-37,o),
(260,-34,c),
(293,26,l),
(251,26,l),
(202,-64,l),
(273,-64,o),
(316,-86,o),
(311,-118,cs),
(308,-140,o),
(283,-160,o),
(251,-160,cs),
(171,-160,l),
(165,-195,l)
);
},
{
ref = C;
}
);
width = 600;
},
{
layerId = "CCC0BD40-BA8C-414E-B576-CF0B94E6C996";
shapes = (
{
closed = 1;
nodes = (
(219,-203,ls),
(291,-203,o),
(345,-166,o),
(352,-120,cs),
(360,-68,o),
(297,-41,o),
(245,-35,c),
(276,26,l),
(219,26,l),
(169,-69,l),
(236,-69,o),
(271,-89,o),
(267,-112,cs),
(264,-130,o),
(242,-148,o),
(213,-148,cs),
(143,-148,l),
(134,-203,l)
);
},
{
ref = C;
}
);
width = 600;
},
{
layerId = "9ADF6715-3D0F-493D-8567-18A6FBCFC567";
shapes = (
{
closed = 1;
nodes = (
(230,-225,ls),
(314,-225,o),
(377,-182,o),
(385,-133,cs),
(395,-72,o),
(318,-43,o),
(258,-39,c),
(286,16,l),
(213,16,l),
(164,-69,l),
(237,-69,o),
(277,-88,o),
(272,-119,cs),
(270,-135,o),
(244,-155,o),
(211,-155,cs),
(131,-155,l),
(120,-225,l)
);
},
{
ref = C;
}
);
width = 600;
}
);
unicode = 199;
},
{
glyphname = D;
layers = (
{
anchors = (
{
name = top;
pos = (372,730);
}
);
layerId = "9ADF6715-3D0F-493D-8567-18A6FBCFC567";
shapes = (
{
closed = 1;
nodes = (
(256,0,ls),
(407,0,o),
(523,94,o),
(545,235,cs),
(587,496,ls),
(609,637,o),
(523,730,o),
(372,730,cs),
(135,730,l),
(19,0,l)
);
},
{
closed = 1;
nodes = (
(262,590,l),
(349,590,ls),
(410,590,o),
(445,552,o),
(437,496,cs),
(395,235,ls),
(386,178,o),
(339,140,o),
(278,140,cs),
(191,140,l)
);
}
);
width = 600;
},
{
anchors = (
{
name = top;
pos = (372,730);
}
);
layerId = "CCC0BD40-BA8C-414E-B576-CF0B94E6C996";
shapes = (
{
closed = 1;
nodes = (
(237,0,ls),
(378,0,o),
(482,86,o),
(503,220,cs),
(549,511,ls),
(570,644,o),
(494,730,o),
(353,730,cs),
(164,730,l),
(48,0,l)
);
},
{
closed = 1;
nodes = (
(241,650,l),
(340,650,ls),
(428,650,o),
(473,598,o),
(459,511,cs),
(413,220,ls),
(399,132,o),
(338,80,o),
(250,80,cs),
(151,80,l)
);
}
);
width = 600;
},
{
anchors = (
{
name = top;
pos = (372,730);
}
);
layerId = "EDF5EB54-295C-4C90-9A2F-67CD82979CFF";
shapes = (
{
closed = 1;
nodes = (
(226,0,ls),
(361,0,o),
(465,88,o),
(486,220,cs),
(532,510,ls),
(553,642,o),
(477,730,o),
(342,730,cs),
(182,730,l),
(66,0,l)
);
},
{
closed = 1;
nodes = (
(224,684,l),
(334,684,ls),
(438,684,o),
(498,614,o),
(482,510,cs),
(436,220,ls),
(419,115,o),
(338,46,o),
(233,46,cs),
(123,46,l)
);
}
);
width = 600;
}
);
unicode = 68;
},
{
glyphname = Eth;
layers = (
{
layerId = "9ADF6715-3D0F-493D-8567-18A6FBCFC567";
shapes = (
{
closed = 1;
nodes = (
(290,325,l),
(290,420,l),
(10,420,l),
(10,325,l)
);
},
{
ref = D;
}
);
width = 600;
},
{
layerId = "CCC0BD40-BA8C-414E-B576-CF0B94E6C996";
shapes = (
{
closed = 1;
nodes = (
(290,335,l),
(290,410,l),
(10,410,l),
(10,335,l)
);
},
{
ref = D;
}
);
width = 600;
},
{
layerId = "EDF5EB54-295C-4C90-9A2F-67CD82979CFF";
shapes = (
{
closed = 1;
nodes = (
(290,351,l),
(290,395,l),
(10,395,l),
(10,351,l)
);
},
{
ref = D;
}
);
width = 600;
}
);
unicode = 208;
},
{
glyphname = Dcroat;
layers = (
{
layerId = "EDF5EB54-295C-4C90-9A2F-67CD82979CFF";
shapes = (
{
closed = 1;
nodes = (
(290,351,l),
(297,395,l),
(17,395,l),
(10,351,l)
);
},
{
ref = D;
}
);
width = 600;
},
{
layerId = "CCC0BD40-BA8C-414E-B576-CF0B94E6C996";
shapes = (
{
closed = 1;
nodes = (
(290,335,l),
(302,410,l),
(22,410,l),
(10,335,l)
);
},
{
ref = D;
}
);
width = 600;
},
{
layerId = "9ADF6715-3D0F-493D-8567-18A6FBCFC567";
shapes = (
{
closed = 1;
nodes = (
(290,325,l),
(305,420,l),
(25,420,l),
(10,325,l)
);
},
{
ref = D;
}
);
width = 600;
}
);
unicode = 272;
},
{
glyphname = E;
layers = (
{
anchors = (
{
name = bottom;
pos = (320,0);
},
{
name = ogonek;
pos = (380,0);
},
{
name = top;
pos = (392,730);
},
{
name = topleft;
pos = (92,730);
}
);
layerId = "9ADF6715-3D0F-493D-8567-18A6FBCFC567";
shapes = (
{
closed = 1;
nodes = (
(486,0,l),
(506,128,l),
(203,128,l),
(232,310,l),
(500,310,l),
(520,438,l),
(252,438,l),
(278,602,l),
(581,602,l),
(602,730,l),
(152,730,l),
(36,0,l)
);
}
);
width = 600;
},
{
anchors = (
{
name = bottom;
pos = (320,0);
},
{
name = ogonek;
pos = (390,0);
},
{
name = top;
pos = (392,730);
},
{
name = topleft;
pos = (92,730);
}
);
layerId = "CCC0BD40-BA8C-414E-B576-CF0B94E6C996";
shapes = (
{
closed = 1;
nodes = (
(476,0,l),
(489,82,l),
(158,82,l),
(199,341,l),
(495,341,l),
(508,422,l),
(212,422,l),
(248,648,l),
(579,648,l),
(592,730,l),
(172,730,l),
(56,0,l)
);
}
);
width = 600;
},
{
anchors = (
{
name = bottom;
pos = (320,0);
},
{
name = ogonek;
pos = (400,0);
},
{
name = top;
pos = (392,730);
},
{
name = topleft;
pos = (92,730);
}
);
layerId = "EDF5EB54-295C-4C90-9A2F-67CD82979CFF";
shapes = (
{
closed = 1;
nodes = (
(466,0,l),
(473,46,l),
(133,46,l),
(183,358,l),
(488,358,l),
(495,403,l),
(190,403,l),
(234,684,l),
(574,684,l),
(582,730,l),
(192,730,l),
(76,0,l)
);
}
);
width = 600;
}
);
unicode = 69;
},
{
glyphname = Eogonek;
layers = (
{
layerId = "9ADF6715-3D0F-493D-8567-18A6FBCFC567";
shapes = (
{
closed = 1;
nodes = (
(454,-225,l),
(471,-120,l),
(402,-120,ls),
(373,-120,o),
(359,-103,o),
(362,-83,cs),
(365,-66,o),
(383,-42,o),
(413,-18,cs),
(450,11,l),
(364,11,l),
(291,-19,o),
(240,-68,o),
(233,-115,cs),
(222,-180,o),
(265,-225,o),
(346,-225,cs)
);
},
{
alignment = -1;
ref = E;
}
);
width = 600;
},
{
layerId = "CCC0BD40-BA8C-414E-B576-CF0B94E6C996";
shapes = (
{
closed = 1;
nodes = (
(449,-203,l),
(458,-143,l),
(398,-143,ls),
(364,-143,o),
(347,-122,o),
(351,-93,cs),
(356,-65,o),
(379,-36,o),
(430,1,c),
(443,10,l),
(368,10,l),
(298,-34,o),
(270,-72,o),
(264,-110,cs),
(255,-164,o),
(297,-203,o),
(371,-203,cs)
);
},
{
alignment = -1;
ref = E;
}
);
width = 600;
},
{
layerId = "EDF5EB54-295C-4C90-9A2F-67CD82979CFF";
shapes = (
{
closed = 1;
nodes = (
(440,-195,l),
(447,-153,l),
(383,-153,ls),
(351,-153,o),
(335,-134,o),
(340,-103,cs),
(344,-75,o),
(373,-36,o),
(417,0,cs),
(430,10,l),
(393,10,l),
(336,-27,o),
(297,-74,o),
(291,-115,cs),
(283,-165,o),
(312,-195,o),
(367,-195,c)
);
},
{
alignment = -1;
ref = E;
}
);
width = 600;
}
);
unicode = 280;
},
{
glyphname = Eopen;
layers = (
{
layerId = "EDF5EB54-295C-4C90-9A2F-67CD82979CFF";
shapes = (
{
closed = 1;
nodes = (
(398,-10,o),
(504,73,o),
(523,193,c),
(473,193,l),
(458,99,o),
(376,35,o),
(272,35,cs),
(168,35,o),
(106,99,o),
(121,193,cs),
(136,288,o),
(218,353,o),
(322,353,cs),
(397,353,l),
(404,398,l),
(334,398,ls),
(237,398,o),
(181,459,o),
(195,547,cs),
(209,635,o),
(284,696,o),
(381,696,cs),
(478,696,o),
(535,635,o),
(521,547,c),
(571,547,l),
(589,661,o),
(514,740,o),
(388,740,cs),
(262,740,o),
(163,661,o),
(145,547,cs),
(128,442,o),
(185,370,o),
(285,370,c),
(286,380,l),
(176,380,o),
(88,305,o),
(71,196,cs),
(52,74,o),
(130,-10,o),
(264,-10,cs)
);
}
);
width = 600;
},
{
layerId = "CCC0BD40-BA8C-414E-B576-CF0B94E6C996";
shapes = (
{
closed = 1;
nodes = (
(406,-10,o),
(513,71,o),
(534,192,c),
(444,192,l),
(431,119,o),
(365,70,o),
(280,70,cs),
(190,70,o),
(139,124,o),
(151,205,cs),
(164,286,o),
(233,340,o),
(323,340,cs),
(414,340,l),
(427,420,l),
(337,420,ls),
(256,420,o),
(209,468,o),
(221,540,cs),
(232,612,o),
(294,660,o),
(375,660,cs),
(457,660,o),
(503,610,o),
(491,535,c),
(581,535,l),
(600,658,o),
(522,740,o),
(384,740,cs),
(250,740,o),
(150,663,o),
(131,546,cs),
(115,444,o),
(173,380,o),
(281,382,c),
(282,392,l),
(165,394,o),
(79,321,o),
(60,205,cs),
(40,76,o),
(122,-10,o),
(267,-10,cs)
);
}
);
width = 600;
},
{
layerId = "9ADF6715-3D0F-493D-8567-18A6FBCFC567";
shapes = (
{
closed = 1;
nodes = (
(411,-10,o),
(530,76,o),
(554,205,c),
(404,205,l),
(392,154,o),
(345,120,o),
(284,120,cs),
(218,120,o),
(180,159,o),
(190,218,cs),
(199,278,o),
(249,317,o),
(316,317,cs),
(417,317,l),
(436,437,l),
(333,437,ls),
(273,437,o),
(240,471,o),
(248,523,cs),
(256,575,o),
(301,610,o),
(361,610,cs),
(421,610,o),
(455,575,o),
(447,523,c),
(597,523,l),
(618,654,o),
(528,740,o),
(373,740,cs),
(226,740,o),
(117,660,o),
(98,540,cs),
(82,444,o),
(131,383,o),
(222,383,c),
(223,390,l),
(126,392,o),
(53,325,o),
(36,217,cs),
(15,80,o),
(104,-10,o),
(260,-10,cs)
);
}
);
width = 600;
}
);
unicode = 400;
},
{
glyphname = F;
layers = (
{
anchors = (
{
name = top;
pos = (372,730);
}
);
layerId = "9ADF6715-3D0F-493D-8567-18A6FBCFC567";
shapes = (
{
closed = 1;
nodes = (
(176,0,l),
(222,288,l),
(516,288,l),
(538,428,l),
(242,428,l),
(267,590,l),
(589,590,l),
(612,730,l),
(142,730,l),
(26,0,l)
);
}
);
width = 600;
},
{
anchors = (
{
name = top;
pos = (372,730);
}
);
layerId = "CCC0BD40-BA8C-414E-B576-CF0B94E6C996";
shapes = (
{
closed = 1;
nodes = (
(141,0,l),
(192,324,l),
(506,324,l),
(519,406,l),
(203,406,l),
(242,648,l),
(584,648,l),
(597,730,l),
(167,730,l),
(51,0,l)
);
}
);
width = 600;
},
{
anchors = (
{
name = top;
pos = (372,730);
}
);
layerId = "EDF5EB54-295C-4C90-9A2F-67CD82979CFF";
shapes = (
{
closed = 1;
nodes = (
(121,0,l),
(176,346,l),
(501,346,l),
(508,392,l),
(183,392,l),
(229,684,l),
(589,684,l),
(597,730,l),
(187,730,l),
(71,0,l)
);
}
);
width = 600;
}
);
unicode = 70;
},
{
glyphname = G;
layers = (
{
anchors = (
{
name = bottom;
pos = (260,0);
},
{
name = top;
pos = (372,730);
}
);
layerId = "9ADF6715-3D0F-493D-8567-18A6FBCFC567";
shapes = (
{
closed = 1;
nodes = (
(405,-10,o),
(516,77,o),
(537,210,cs),
(567,400,l),
(309,400,l),
(289,273,l),
(397,273,l),
(387,210,ls),
(378,152,o),
(339,120,o),
(279,120,cs),
(219,120,o),
(190,152,o),
(199,210,cs),
(248,520,ls),
(258,578,o),
(297,610,o),
(357,610,cs),
(417,610,o),
(446,578,o),
(436,520,c),
(586,520,l),
(607,653,o),
(524,740,o),
(377,740,cs),
(230,740,o),
(119,653,o),
(98,520,cs),
(49,210,ls),
(28,78,o),
(111,-10,o),
(258,-10,cs)
);
}
);
width = 600;
},
{
anchors = (
{
name = bottom;
pos = (260,0);
},
{
name = top;
pos = (372,730);
}
);
layerId = "CCC0BD40-BA8C-414E-B576-CF0B94E6C996";
shapes = (
{
closed = 1;
nodes = (
(389,-10,o),
(486,71,o),
(506,200,cs),
(533,372,l),
(295,372,l),
(282,290,l),
(430,290,l),
(416,200,ls),
(403,117,o),
(349,70,o),
(271,70,cs),
(192,70,o),
(153,117,o),
(166,200,cs),
(218,531,ls),
(231,613,o),
(285,659,o),
(364,659,cs),
(442,659,o),
(481,613,o),
(468,530,c),
(558,530,l),
(578,659,o),
(508,740,o),
(377,740,cs),
(244,740,o),
(149,661,o),
(128,530,cs),
(76,200,ls),
(55,69,o),
(125,-10,o),
(258,-10,cs)
);
}
);
width = 600;
},
{
anchors = (
{
name = bottom;
pos = (262,0);
},
{
name = top;
pos = (378,730);
}
);
layerId = "EDF5EB54-295C-4C90-9A2F-67CD82979CFF";
shapes = (
{
closed = 1;
nodes = (
(384,-10,o),
(477,72,o),
(498,200,cs),
(522,356,l),
(299,356,l),
(292,310,l),
(465,310,l),
(448,200,ls),
(432,98,o),
(364,35,o),
(268,35,cs),
(174,35,o),
(126,94,o),
(141,190,cs),
(197,540,ls),
(212,636,o),
(279,695,o),
(372,695,cs),
(467,695,o),
(516,632,o),
(500,530,c),
(550,530,l),
(570,658,o),
(503,740,o),
(379,740,cs),
(257,740,o),
(166,662,o),
(147,540,cs),
(91,190,ls),
(72,69,o),
(138,-10,o),
(260,-10,cs)
);
}
);
width = 600;
}
);
unicode = 71;
},
{
glyphname = H;
layers = (
{
anchors = (
{
name = top;
pos = (372,730);
}
);
layerId = "9ADF6715-3D0F-493D-8567-18A6FBCFC567";
shapes = (
{
closed = 1;
nodes = (
(172,0,l),
(221,310,l),
(389,310,l),
(340,0,l),
(490,0,l),
(606,730,l),
(456,730,l),
(411,450,l),
(243,450,l),
(288,730,l),
(138,730,l),
(22,0,l)
);
}
);
width = 600;
},
{
anchors = (
{
name = top;
pos = (372,730);
}
);
layerId = "CCC0BD40-BA8C-414E-B576-CF0B94E6C996";
shapes = (
{
closed = 1;
nodes = (
(139,0,l),
(192,336,l),
(426,336,l),
(373,0,l),
(463,0,l),
(579,730,l),
(489,730,l),
(439,418,l),
(205,418,l),
(255,730,l),
(165,730,l),
(49,0,l)
);
}
);
width = 600;
},
{
anchors = (
{
name = top;
pos = (372,730);
}
);
layerId = "EDF5EB54-295C-4C90-9A2F-67CD82979CFF";
shapes = (
{
closed = 1;
nodes = (
(116,0,l),
(172,356,l),
(452,356,l),
(396,0,l),
(446,0,l),
(562,730,l),
(512,730,l),
(460,402,l),
(180,402,l),
(232,730,l),
(182,730,l),
(66,0,l)
);
}
);
width = 600;
}
);
unicode = 72;
},
{
glyphname = Hbar;
layers = (
{
layerId = "9ADF6715-3D0F-493D-8567-18A6FBCFC567";
shapes = (
{
closed = 1;
nodes = (
(630,525,l),
(645,620,l),
(65,620,l),
(50,525,l)
);
},
{
alignment = -1;
ref = H;
}
);
width = 600;
},
{
layerId = "CCC0BD40-BA8C-414E-B576-CF0B94E6C996";
shapes = (
{
closed = 1;
nodes = (
(629,525,l),
(641,600,l),
(62,600,l),
(50,525,l)
);
},
{
alignment = -1;
ref = H;
}
);
width = 600;
},
{
layerId = "EDF5EB54-295C-4C90-9A2F-67CD82979CFF";
shapes = (
{
closed = 1;
nodes = (
(632,540,l),
(639,584,l),
(59,584,l),
(52,540,l)
);
},
{
alignment = -1;
ref = H;
}
);
width = 600;
}
);
unicode = 294;
},
{
glyphname = I;
layers = (
{
anchors = (
{
name = bottom;
pos = (256,0);
},
{
name = ogonek;
pos = (280,0);
},
{
name = top;
pos = (372,730);
},
{
name = topleft;
pos = (92,730);
}
);
layerId = "9ADF6715-3D0F-493D-8567-18A6FBCFC567";
shapes = (
{
closed = 1;
nodes = (
(476,0,l),
(497,130,l),
(352,130,l),
(426,600,l),
(571,600,l),
(592,730,l),
(152,730,l),
(131,600,l),
(276,600,l),
(202,130,l),
(57,130,l),
(36,0,l)
);
}
);
width = 600;
},
{
anchors = (
{
name = bottom;
pos = (256,0);
},
{
name = ogonek;
pos = (280,0);
},
{
name = top;
pos = (372,730);
},
{
name = topleft;
pos = (92,730);
}
);
layerId = "CCC0BD40-BA8C-414E-B576-CF0B94E6C996";
shapes = (
{
closed = 1;
nodes = (
(451,0,l),
(464,82,l),
(315,82,l),
(405,648,l),
(554,648,l),
(567,730,l),
(177,730,l),
(164,648,l),
(313,648,l),
(223,82,l),
(74,82,l),
(61,0,l)
);
}
);
width = 600;
},
{
anchors = (
{
name = bottom;
pos = (256,0);
},
{
name = ogonek;
pos = (280,0);
},
{
name = top;
pos = (372,730);
},
{
name = topleft;
pos = (92,730);
}
);
layerId = "EDF5EB54-295C-4C90-9A2F-67CD82979CFF";
shapes = (
{
closed = 1;
nodes = (
(436,0,l),
(443,46,l),
(289,46,l),
(390,684,l),
(544,684,l),
(552,730,l),
(192,730,l),
(184,684,l),
(340,684,l),
(239,46,l),
(83,46,l),
(76,0,l)
);
}
);
width = 600;
}
);
unicode = 73;
},
{
glyphname = Iogonek;
layers = (
{
layerId = "EDF5EB54-295C-4C90-9A2F-67CD82979CFF";
shapes = (
{
closed = 1;
nodes = (
(299,-195,l),
(305,-153,l),
(241,-153,ls),
(209,-153,o),
(193,-134,o),
(198,-103,cs),
(203,-75,o),
(232,-36,o),
(275,0,cs),
(288,10,l),
(251,10,l),
(194,-27,o),
(156,-74,o),
(149,-115,cs),
(141,-165,o),
(171,-195,o),
(226,-195,c)
);
},
{
ref = I;
}
);
width = 600;
},
{
layerId = "CCC0BD40-BA8C-414E-B576-CF0B94E6C996";
shapes = (
{
closed = 1;
nodes = (
(309,-203,l),
(318,-143,l),
(258,-143,ls),
(224,-143,o),
(207,-122,o),
(211,-93,cs),
(216,-65,o),
(239,-36,o),
(290,1,c),
(303,10,l),
(228,10,l),
(158,-34,o),
(130,-72,o),
(124,-110,cs),
(115,-164,o),
(157,-203,o),
(231,-203,cs)
);
},
{
ref = I;
}
);
width = 600;
},
{
layerId = "9ADF6715-3D0F-493D-8567-18A6FBCFC567";
shapes = (
{
closed = 1;
nodes = (
(324,-225,l),
(341,-120,l),
(272,-120,ls),
(243,-120,o),
(229,-103,o),
(232,-83,cs),
(235,-66,o),
(253,-42,o),
(283,-18,cs),
(320,11,l),
(234,11,l),
(161,-19,o),
(110,-68,o),
(103,-115,cs),
(92,-180,o),
(135,-225,o),
(216,-225,cs)
);
},
{
ref = I;
}
);
width = 600;
}
);
unicode = 302;
},
{
glyphname = J;
layers = (
{
anchors = (
{
name = top;
pos = (504,730);
}
);
layerId = "9ADF6715-3D0F-493D-8567-18A6FBCFC567";
shapes = (
{
closed = 1;
nodes = (
(383,-10,o),
(487,73,o),
(511,219,cs),
(592,730,l),
(237,730,l),
(215,595,l),
(420,595,l),
(361,219,ls),
(351,158,o),
(306,120,o),
(245,120,cs),
(183,120,o),
(151,159,o),
(161,221,c),
(11,221,l),
(-11,79,o),
(70,-10,o),
(224,-10,cs)
);
}
);
width = 600;
},
{
anchors = (
{
name = top;
pos = (432,730);
}
);
layerId = "CCC0BD40-BA8C-414E-B576-CF0B94E6C996";
shapes = (
{
closed = 1;
nodes = (
(368,-10,o),
(462,70,o),
(484,210,cs),
(567,730,l),
(272,730,l),
(259,648,l),
(464,648,l),
(394,210,ls),
(380,121,o),
(322,70,o),
(237,70,cs),
(152,70,o),
(110,121,o),
(124,210,c),
(34,210,l),
(13,74,o),
(84,-10,o),
(224,-10,cs)
);
}
);
width = 600;
},
{
anchors = (
{
name = top;
pos = (504,730);
}
);
layerId = "EDF5EB54-295C-4C90-9A2F-67CD82979CFF";
shapes = (
{
closed = 1;
nodes = (
(359,-10,o),
(446,66,o),
(468,199,cs),
(552,730,l),
(275,730,l),
(267,683,l),
(494,683,l),
(418,199,ls),
(402,98,o),
(333,35,o),
(237,35,cs),
(141,35,o),
(91,97,o),
(108,200,c),
(58,200,l),
(37,69,o),
(101,-10,o),
(229,-10,cs)
);
}
);
width = 600;
}
);
unicode = 74;
},
{
glyphname = K;
layers = (
{
anchors = (
{
name = bottom;
pos = (256,0);
},
{
name = top;
pos = (372,730);
}
);
layerId = "9ADF6715-3D0F-493D-8567-18A6FBCFC567";
shapes = (
{
closed = 1;
nodes = (
(171,0,l),
(220,309,l),
(296,309,l),
(372,0,l),
(531,0,l),
(429,372,l),
(641,730,l),
(478,730,l),
(310,447,l),
(242,447,l),
(287,730,l),
(137,730,l),
(21,0,l)
);
}
);
width = 600;
},
{
anchors = (
{
name = bottom;
pos = (256,0);
},
{
name = top;
pos = (372,730);
}
);
layerId = "CCC0BD40-BA8C-414E-B576-CF0B94E6C996";
shapes = (
{
closed = 1;
nodes = (
(138,0,l),
(192,338,l),
(300,338,l),
(416,0,l),
(516,0,l),
(385,376,l),
(622,730,l),
(522,730,l),
(310,417,l),
(204,417,l),
(254,730,l),
(164,730,l),
(48,0,l)
);
}
);
width = 600;
},
{
anchors = (
{
name = bottom;
pos = (256,0);
},
{
name = top;
pos = (372,730);
}
);
layerId = "EDF5EB54-295C-4C90-9A2F-67CD82979CFF";
shapes = (
{
closed = 1;
nodes = (
(116,0,l),
(172,356,l),
(327,356,l),
(440,0,l),
(496,0,l),
(375,377,l),
(602,730,l),
(544,730,l),
(332,401,l),
(180,401,l),
(232,730,l),
(182,730,l),
(66,0,l)
);
}
);
width = 600;
}
);
unicode = 75;
},
{
glyphname = L;
layers = (
{
anchors = (
{
name = bottom;
pos = (296,0);
},
{
name = top;
pos = (262,730);
}
);
layerId = "9ADF6715-3D0F-493D-8567-18A6FBCFC567";
shapes = (
{
closed = 1;
nodes = (
(516,0,l),
(538,140,l),
(243,140,l),
(337,730,l),
(187,730,l),
(71,0,l)
);
}
);
width = 600;
},
{
anchors = (
{
name = bottom;
pos = (296,0);
},
{
name = top;
pos = (253,730);
}
);
layerId = "CCC0BD40-BA8C-414E-B576-CF0B94E6C996";
shapes = (
{
closed = 1;
nodes = (
(511,0,l),
(524,82,l),
(194,82,l),
(297,730,l),
(207,730,l),
(91,0,l)
);
}
);
width = 600;
},
{
anchors = (
{
name = bottom;
pos = (296,0);
},
{
name = top;
pos = (238,730);
}
);
layerId = "EDF5EB54-295C-4C90-9A2F-67CD82979CFF";
shapes = (
{
closed = 1;
nodes = (
(501,0,l),
(508,46,l),
(153,46,l),
(262,730,l),
(212,730,l),
(96,0,l)
);
}
);
width = 600;
}
);
unicode = 76;
},
{
glyphname = Lslash;
layers = (
{
layerId = "9ADF6715-3D0F-493D-8567-18A6FBCFC567";
shapes = (
{
closed = 1;
nodes = (
(423,420,l),
(445,565,l),
(35,370,l),
(12,225,l)
);
},
{
alignment = -1;
pos = (10,0);
ref = L;
}
);
width = 600;
},
{
layerId = "CCC0BD40-BA8C-414E-B576-CF0B94E6C996";
shapes = (
{
closed = 1;
nodes = (
(422,480,l),
(435,564,l),
(25,310,l),
(12,226,l)
);
},
{
alignment = -1;
ref = L;
}
);
width = 600;
},
{
layerId = "EDF5EB54-295C-4C90-9A2F-67CD82979CFF";
shapes = (
{
closed = 1;
nodes = (
(424,495,l),
(433,552,l),
(23,295,l),
(14,238,l)
);
},
{
alignment = -1;
pos = (10,0);
ref = L;
}
);
width = 600;
}
);
unicode = 321;
},
{
glyphname = M;
layers = (
{
anchors = (
{
name = bottom;
pos = (256,0);
},
{
name = top;
pos = (372,730);
}
);
layerId = "CCC0BD40-BA8C-414E-B576-CF0B94E6C996";
shapes = (
{
closed = 1;
nodes = (
(120,0,l),
(162,265,ls),
(183,396,o),
(195,582,o),
(199,685,c),
(261,320,l),
(356,320,l),
(531,685,l),
(502,578,o),
(454,389,o),
(434,265,cs),
(392,0,l),
(480,0,l),
(596,730,l),
(476,730,l),
(366,495,ls),
(346,451,o),
(327,405,o),
(318,382,c),
(315,405,o),
(309,451,o),
(302,494,cs),
(264,730,l),
(148,730,l),
(32,0,l)
);
}
);
width = 600;
},
{
anchors = (
{
name = bottom;
pos = (256,0);
},
{
name = top;
pos = (372,730);
}
);
layerId = "EDF5EB54-295C-4C90-9A2F-67CD82979CFF";
shapes = (
{
closed = 1;
nodes = (
(97,0,l),
(167,440,ls),
(183,542,o),
(197,651,o),
(203,705,c),
(281,325,l),
(334,325,l),
(532,705,l),
(521,651,o),
(501,542,o),
(485,440,cs),
(415,0,l),
(464,0,l),
(580,730,l),
(504,730,l),
(358,450,ls),
(343,420,o),
(322,381,o),
(312,359,c),
(308,381,o),
(301,421,o),
(294,450,cs),
(237,730,l),
(164,730,l),
(48,0,l)
);
}
);
width = 600;
},
{
anchors = (
{
name = bottom;
pos = (256,0);
},
{
name = top;
pos = (372,730);
}
);
layerId = "9ADF6715-3D0F-493D-8567-18A6FBCFC567";
shapes = (
{
closed = 1;
nodes = (
(135,0,l),
(167,200,ls),
(191,353,o),
(204,541,o),
(206,640,c),
(242,310,l),
(369,310,l),
(505,640,l),
(477,537,o),
(432,346,o),
(409,200,cs),
(377,0,l),
(514,0,l),
(630,730,l),
(458,730,l),
(355,500,ls),
(334,452,o),
(321,414,o),
(317,399,c),
(318,414,o),
(317,452,o),
(310,500,cs),
(280,730,l),
(114,730,l),
(-2,0,l)
);
}
);
width = 600;
}
);
unicode = 77;
},
{
glyphname = N;
layers = (
{
anchors = (
{
name = bottom;
pos = (256,0);
},
{
name = top;
pos = (372,730);
}
);
layerId = "9ADF6715-3D0F-493D-8567-18A6FBCFC567";
shapes = (
{
closed = 1;
nodes = (
(148,0,l),
(199,320,ls),
(210,389,o),
(219,501,o),
(223,565,c),
(323,0,l),
(496,0,l),
(612,730,l),
(480,730,l),
(432,430,ls),
(421,361,o),
(411,238,o),
(406,165,c),
(305,730,l),
(132,730,l),
(16,0,l)
);
}
);
width = 600;
},
{
anchors = (
{
name = bottom;
pos = (256,0);
},
{
name = top;
pos = (372,730);
}
);
layerId = "CCC0BD40-BA8C-414E-B576-CF0B94E6C996";
shapes = (
{
closed = 1;
nodes = (
(133,0,l),
(198,410,ls),
(210,483,o),
(219,576,o),
(223,625,c),
(347,0,l),
(466,0,l),
(582,730,l),
(495,730,l),
(430,320,ls),
(418,247,o),
(409,154,o),
(406,105,c),
(281,730,l),
(162,730,l),
(46,0,l)
);
}
);
width = 600;
},
{
anchors = (
{
name = bottom;
pos = (256,0);
},
{
name = top;
pos = (372,730);
}
);
layerId = "EDF5EB54-295C-4C90-9A2F-67CD82979CFF";
shapes = (
{
closed = 1;
nodes = (
(114,0,l),
(203,560,ls),
(211,611,o),
(217,656,o),
(219,675,c),
(378,0,l),
(446,0,l),
(562,730,l),
(514,730,l),
(425,170,ls),
(423,155,o),
(415,95,o),
(411,55,c),
(249,730,l),
(182,730,l),
(66,0,l)
);
}
);
width = 600;
}
);
unicode = 78;
},
{
glyphname = Eng;
layers = (
{
layerId = "9ADF6715-3D0F-493D-8567-18A6FBCFC567";
shapes = (
{
closed = 1;
nodes = (
(227,-180,ls),
(368,-180,o),
(481,-96,o),
(500,25,cs),
(612,730,l),
(480,730,l),
(447,526,ls),
(436,457,o),
(427,330,o),
(422,257,c),
(302,730,l),
(132,730,l),
(16,0,l),
(148,0,l),
(199,320,ls),
(210,389,o),
(219,501,o),
(223,565,c),
(352,41,l),
(345,-7,o),
(311,-35,o),
(260,-35,cs),
(200,-35,l),
(177,-180,l)
);
}
);
width = 600;
},
{
layerId = "CCC0BD40-BA8C-414E-B576-CF0B94E6C996";
shapes = (
{
closed = 1;
nodes = (
(232,-180,ls),
(356,-180,o),
(449,-103,o),
(468,15,cs),
(582,730,l),
(495,730,l),
(442,397,ls),
(430,324,o),
(422,229,o),
(418,179,c),
(280,730,l),
(162,730,l),
(46,0,l),
(133,0,l),
(198,410,ls),
(210,483,o),
(219,576,o),
(223,625,c),
(378,15,l),
(367,-55,o),
(316,-98,o),
(245,-98,cs),
(180,-98,l),
(167,-180,l)
);
}
);
width = 600;
},
{
layerId = "EDF5EB54-295C-4C90-9A2F-67CD82979CFF";
shapes = (
{
closed = 1;
nodes = (
(234,-180,ls),
(352,-180,o),
(429,-115,o),
(447,0,cs),
(563,730,l),
(515,730,l),
(434,219,ls),
(426,168,o),
(420,118,o),
(418,94,c),
(249,730,l),
(181,730,l),
(65,0,l),
(113,0,l),
(202,560,ls),
(210,611,o),
(216,656,o),
(218,675,c),
(397,0,l),
(383,-88,o),
(330,-135,o),
(242,-135,cs),
(162,-135,l),
(154,-180,l)
);
}
);
width = 600;
}
);
unicode = 330;
},
{
glyphname = O;
layers = (
{
anchors = (
{
name = bottom;
pos = (256,0);
},
{
name = center;
pos = (314,365);
},
{
name = horn;
pos = (387,700);
},
{
name = ogonek;
pos = (305,0);
},
{
name = top;
pos = (372,730);
},
{
name = topleft;
pos = (92,730);
},
{
name = topright;
pos = (652,730);
}
);
layerId = "EDF5EB54-295C-4C90-9A2F-67CD82979CFF";
shapes = (
{
closed = 1;
nodes = (
(373,-10,o),
(462,68,o),
(481,190,cs),
(537,540,ls),
(556,661,o),
(491,740,o),
(373,740,cs),
(255,740,o),
(166,661,o),
(147,540,cs),
(91,190,ls),
(72,68,o),
(136,-10,o),
(254,-10,cs)
);
},
{
closed = 1;
nodes = (
(169,34,o),
(125,91,o),
(141,190,cs),
(197,540,ls),
(212,638,o),
(275,696,o),
(366,696,cs),
(457,696,o),
(502,638,o),
(487,540,cs),
(431,190,ls),
(415,91,o),
(353,34,o),
(261,34,cs)
);
}
);
width = 600;
},
{
anchors = (
{
name = bottom;
pos = (256,0);
},
{
name = center;
pos = (314,365);
},
{
name = horn;
pos = (387,700);
},
{
name = ogonek;
pos = (305,0);
},
{
name = top;
pos = (372,730);
},
{
name = topleft;
pos = (92,730);
},
{
name = topright;
pos = (652,730);
}
);
layerId = "CCC0BD40-BA8C-414E-B576-CF0B94E6C996";
shapes = (
{
closed = 1;
nodes = (
(385,-10,o),
(479,69,o),
(500,200,cs),
(552,531,ls),
(572,661,o),
(504,740,o),
(373,740,cs),
(242,740,o),
(149,661,o),
(128,530,cs),
(76,200,ls),
(55,69,o),
(123,-10,o),
(254,-10,cs)
);
},
{
closed = 1;
nodes = (
(189,71,o),
(153,117,o),
(166,200,cs),
(218,530,ls),
(231,613,o),
(282,659,o),
(360,659,cs),
(438,659,o),
(475,613,o),
(462,530,cs),
(410,200,ls),
(397,117,o),
(345,71,o),
(267,71,cs)
);
}
);
width = 600;
},
{
anchors = (
{
name = bottom;
pos = (256,0);
},
{
name = center;
pos = (314,365);
},
{
name = horn;
pos = (387,700);
},
{
name = ogonek;
pos = (305,0);
},
{
name = top;
pos = (372,730);
},
{
name = topleft;
pos = (92,730);
},
{
name = topright;
pos = (652,730);
}
);
layerId = "9ADF6715-3D0F-493D-8567-18A6FBCFC567";
shapes = (
{
closed = 1;
nodes = (
(401,-10,o),
(508,78,o),
(529,210,cs),
(578,520,ls),
(599,652,o),
(520,740,o),
(373,740,cs),
(226,740,o),
(119,652,o),
(98,520,cs),
(49,210,ls),
(28,78,o),
(107,-10,o),
(254,-10,cs)
);
},
{
closed = 1;
nodes = (
(215,120,o),
(190,152,o),
(199,210,cs),
(248,520,ls),
(257,578,o),
(292,610,o),
(353,610,cs),
(414,610,o),
(437,578,o),
(428,520,cs),
(379,210,ls),
(370,152,o),
(335,120,o),
(275,120,cs)
);
}
);
width = 600;
}
);
unicode = 79;
},
{
glyphname = Ohorn;
layers = (
{
anchors = (
{
name = top;
pos = (362,730);
}
);
layerId = "9ADF6715-3D0F-493D-8567-18A6FBCFC567";
shapes = (
{
closed = 1;
nodes = (
(492,600,ls),
(579,600,o),
(646,654,o),
(658,735,cs),
(670,810,l),
(550,810,l),
(538,735,ls),
(535,713,o),
(520,700,o),
(498,700,cs),
(448,700,l),
(432,600,l)
);
},
{
ref = O;
}
);
width = 600;
},
{
anchors = (
{
name = top;
pos = (362,730);
}
);
layerId = "CCC0BD40-BA8C-414E-B576-CF0B94E6C996";
shapes = (
{
closed = 1;
nodes = (
(482,635,ls),
(546,635,o),
(592,672,o),
(602,730,cs),
(614,810,l),
(539,810,l),
(527,735,ls),
(524,714,o),
(508,700,o),
(487,700,cs),
(467,700,l),
(457,635,l)
);
},
{
ref = O;
}
);
width = 600;
},
{
anchors = (
{
name = top;
pos = (390,730);
}
);
layerId = "EDF5EB54-295C-4C90-9A2F-67CD82979CFF";
shapes = (
{
closed = 1;
nodes = (
(499,665,ls),
(550,665,o),
(589,699,o),
(597,750,cs),
(607,810,l),
(567,810,l),
(557,750,ls),
(552,720,o),
(532,700,o),
(505,700,cs),
(464,700,l),
(458,665,l)
);
},
{
ref = O;
}
);
width = 600;
}
);
unicode = 416;
},
{
glyphname = Oogonek;
layers = (
{
anchors = (
{
name = horn;
pos = (387,700);
},
{
name = top;
pos = (372,730);
}
);
layerId = "9ADF6715-3D0F-493D-8567-18A6FBCFC567";
shapes = (
{
closed = 1;
nodes = (
(383,-225,l),
(400,-120,l),
(331,-120,ls),
(302,-120,o),
(288,-103,o),
(291,-82,cs),
(294,-65,o),
(310,-38,o),
(340,-17,cs),
(394,21,l),
(464,58,o),
(517,127,o),
(530,210,cs),
(579,520,ls),
(600,652,o),
(521,740,o),
(374,740,cs),
(227,740,o),
(120,652,o),
(99,520,cs),
(50,210,ls),
(29,78,o),
(108,-10,o),
(255,-10,cs),
(288,-10,o),
(307,11,o),
(308,21,c),
(236,-9,o),
(169,-68,o),
(162,-115,cs),
(151,-180,o),
(194,-225,o),
(275,-225,cs)
);
},
{
closed = 1;
nodes = (
(216,120,o),
(191,152,o),
(200,210,cs),
(249,520,ls),
(259,578,o),
(293,610,o),
(354,610,cs),
(415,610,o),
(439,578,o),
(429,520,cs),
(380,210,ls),
(371,152,o),
(336,120,o),
(276,120,cs)
);
}
);
width = 600;
},
{
anchors = (
{
name = horn;
pos = (387,700);
},
{
name = top;
pos = (372,730);
}
);
layerId = "EDF5EB54-295C-4C90-9A2F-67CD82979CFF";
shapes = (
{
closed = 1;
nodes = (
(367,-195,l),
(374,-153,l),
(310,-153,ls),
(278,-153,o),
(262,-134,o),
(267,-103,cs),
(271,-75,o),
(300,-33,o),
(344,2,cs),
(355,10,l),
(422,45,o),
(468,105,o),
(481,190,cs),
(537,540,ls),
(556,661,o),
(491,740,o),
(373,740,cs),
(255,740,o),
(166,661,o),
(147,540,cs),
(91,190,ls),
(72,68,o),
(136,-10,o),
(254,-10,cs),
(265,-10,o),
(284,-9,o),
(295,-6,c),
(252,-39,o),
(223,-80,o),
(218,-115,cs),
(210,-165,o),
(239,-195,o),
(294,-195,cs)
);
},
{
closed = 1;
nodes = (
(169,34,o),
(125,91,o),
(141,190,cs),
(197,540,ls),
(212,638,o),
(275,696,o),
(366,696,cs),
(457,696,o),
(502,638,o),
(487,540,cs),
(431,190,ls),
(415,91,o),
(353,34,o),
(261,34,cs)
);
}
);
width = 600;
},
{
anchors = (
{
name = horn;
pos = (387,700);
},
{
name = top;
pos = (372,730);
}
);
layerId = "CCC0BD40-BA8C-414E-B576-CF0B94E6C996";
shapes = (
{
closed = 1;
nodes = (
(381,-203,l),
(390,-143,l),
(330,-143,ls),
(296,-143,o),
(279,-122,o),
(283,-93,cs),
(288,-65,o),
(307,-36,o),
(357,1,cs),
(390,25,l),
(448,60,o),
(487,121,o),
(500,200,cs),
(552,531,ls),
(573,661,o),
(504,740,o),
(373,740,cs),
(242,740,o),
(149,661,o),
(128,530,cs),
(76,200,ls),
(55,69,o),
(123,-10,o),
(254,-10,cs),
(258,-10,o),
(263,-10,o),
(267,-10,c),
(226,-45,o),
(200,-82,o),
(196,-110,cs),
(187,-164,o),
(229,-203,o),
(303,-203,cs)
);
},
{
closed = 1;
nodes = (
(189,71,o),
(153,117,o),
(166,200,cs),
(218,530,ls),
(231,613,o),
(282,659,o),
(360,659,cs),
(438,659,o),
(475,613,o),
(462,530,cs),
(410,200,ls),
(397,117,o),
(345,71,o),
(267,71,cs)
);
}
);
width = 600;
}
);
unicode = 490;
},
{
glyphname = Oslash;
layers = (
{
anchors = (
{
name = bottom;
pos = (256,0);
},
{
name = horn;
pos = (392,730);
},
{
name = top;
pos = (372,730);
}
);
layerId = "9ADF6715-3D0F-493D-8567-18A6FBCFC567";
shapes = (
{
closed = 1;
nodes = (
(83,-40,l),
(660,750,l),
(542,750,l),
(-35,-40,l)
);
},
{
closed = 1;
nodes = (
(401,-10,o),
(508,78,o),
(529,210,cs),
(578,520,ls),
(599,652,o),
(520,740,o),
(373,740,cs),
(226,740,o),
(119,652,o),
(98,520,cs),
(49,210,ls),
(28,78,o),
(107,-10,o),
(254,-10,cs)
);
},
{
closed = 1;
nodes = (
(214,120,o),
(185,152,o),
(194,210,cs),
(243,520,ls),
(253,578,o),
(292,610,o),
(353,610,cs),
(414,610,o),
(443,578,o),
(433,520,cs),
(384,210,ls),
(375,152,o),
(336,120,o),
(275,120,cs)
);
}
);
width = 600;
},
{
anchors = (
{
name = bottom;
pos = (256,0);
},
{
name = horn;
pos = (392,730);
},
{
name = top;
pos = (372,730);
}
);
layerId = "CCC0BD40-BA8C-414E-B576-CF0B94E6C996";
shapes = (
{
closed = 1;
nodes = (
(71,-40,l),
(640,750,l),
(554,750,l),
(-15,-40,l)
);
},
{
closed = 1;
nodes = (
(385,-10,o),
(479,69,o),
(500,200,cs),
(552,531,ls),
(572,661,o),
(504,740,o),
(373,740,cs),
(242,740,o),
(149,661,o),
(128,530,cs),
(76,200,ls),
(55,69,o),
(123,-10,o),
(254,-10,cs)
);
},
{
closed = 1;
nodes = (
(189,71,o),
(153,117,o),
(166,200,cs),
(218,530,ls),
(231,613,o),
(282,659,o),
(360,659,cs),
(438,659,o),
(475,613,o),
(462,530,cs),
(410,200,ls),
(397,117,o),
(345,71,o),
(267,71,cs)
);
}
);
width = 600;
},
{
anchors = (
{
name = bottom;
pos = (256,0);
},
{
name = horn;
pos = (392,730);
},
{
name = top;
pos = (372,730);
}
);
layerId = "EDF5EB54-295C-4C90-9A2F-67CD82979CFF";
shapes = (
{
closed = 1;
nodes = (
(50,-40,l),
(625,750,l),
(575,750,l),
(0,-40,l)
);
},
{
closed = 1;
nodes = (
(373,-10,o),
(461,68,o),
(481,190,cs),
(537,540,ls),
(556,661,o),
(491,740,o),
(373,740,cs),
(255,740,o),
(166,661,o),
(147,540,cs),
(91,190,ls),
(71,68,o),
(136,-10,o),
(254,-10,cs)
);
},
{
closed = 1;
nodes = (
(169,34,o),
(125,91,o),
(141,190,cs),
(197,540,ls),
(213,638,o),
(275,696,o),
(366,696,cs),
(457,696,o),
(503,638,o),
(487,540,cs),
(431,190,ls),
(415,91,o),
(353,34,o),
(261,34,cs)
);
}
);
width = 600;
}
);
unicode = 216;
},
{
glyphname = OE;
layers = (
{
layerId = "9ADF6715-3D0F-493D-8567-18A6FBCFC567";
shapes = (
{
closed = 1;
nodes = (
(202,-4,o),
(243,47,o),
(255,86,c),
(260,86,l),
(246,0,l),
(536,0,l),
(556,126,l),
(395,126,l),
(424,311,l),
(560,311,l),
(580,437,l),
(444,437,l),
(471,605,l),
(632,605,l),
(652,730,l),
(362,730,l),
(349,650,l),
(344,650,l),
(345,689,o),
(320,740,o),
(248,740,cs),
(157,740,o),
(91,666,o),
(72,541,cs),
(17,195,ls),
(-3,70,o),
(39,-4,o),
(130,-4,cs)
);
},
{
closed = 1;
nodes = (
(167,121,o),
(150,149,o),
(157,195,cs),
(212,541,ls),
(219,587,o),
(245,615,o),
(280,615,cs),
(316,615,o),
(333,588,o),
(326,541,cs),
(271,195,ls),
(263,148,o),
(238,121,o),
(202,121,cs)
);
}
);
width = 600;
},
{
layerId = "CCC0BD40-BA8C-414E-B576-CF0B94E6C996";
shapes = (
{
closed = 1;
nodes = (
(218,-10,o),
(261,41,o),
(274,80,c),
(279,80,l),
(266,0,l),
(531,0,l),
(544,82,l),
(367,82,l),
(407,336,l),
(559,336,l),
(572,418,l),
(420,418,l),
(457,648,l),
(634,648,l),
(647,730,l),
(382,730,l),
(369,650,l),
(364,650,l),
(364,689,o),
(337,740,o),
(268,740,cs),
(172,740,o),
(102,667,o),
(83,550,cs),
(25,180,ls),
(6,63,o),
(53,-10,o),
(149,-10,cs)
);
},
{
closed = 1;
nodes = (
(131,70,o),
(104,112,o),
(115,180,cs),
(173,550,ls),
(184,618,o),
(225,660,o),
(281,660,cs),
(337,660,o),
(364,618,o),
(353,550,cs),
(295,180,ls),
(284,112,o),
(243,70,o),
(187,70,cs)
);
}
);
width = 600;
},
{
layerId = "EDF5EB54-295C-4C90-9A2F-67CD82979CFF";
shapes = (
{
closed = 1;
nodes = (
(219,-10,o),
(267,41,o),
(284,80,c),
(289,80,l),
(276,0,l),
(525,0,l),
(533,50,l),
(339,50,l),
(387,352,l),
(545,352,l),
(553,402,l),
(395,402,l),
(439,680,l),
(633,680,l),
(641,730,l),
(392,730,l),
(379,650,l),
(374,650,l),
(370,689,o),
(338,740,o),
(269,740,cs),
(178,740,o),
(101,664,o),
(84,557,cs),
(23,173,ls),
(6,66,o),
(59,-10,o),
(150,-10,cs)
);
},
{
closed = 1;
nodes = (
(102,40,o),
(66,94,o),
(78,173,cs),
(139,557,ls),
(152,636,o),
(205,690,o),
(272,690,cs),
(338,690,o),
(377,638,o),
(364,557,cs),
(303,173,ls),
(291,92,o),
(235,40,o),
(169,40,cs)
);
}
);
width = 600;
}
);
unicode = 338;
},
{
glyphname = P;
layers = (
{
anchors = (
{
name = top;
pos = (372,730);
}
);
layerId = "9ADF6715-3D0F-493D-8567-18A6FBCFC567";
shapes = (
{
closed = 1;
nodes = (
(172,0,l),
(214,266,l),
(313,266,ls),
(466,266,o),
(583,359,o),
(605,498,cs),
(627,638,o),
(541,730,o),
(387,730,cs),
(138,730,l),
(22,0,l)
);
},
{
closed = 1;
nodes = (
(266,595,l),
(365,595,ls),
(429,595,o),
(464,557,o),
(455,498,cs),
(446,439,o),
(399,401,o),
(335,401,cs),
(236,401,l)
);
}
);
width = 600;
},
{
anchors = (
{
name = top;
pos = (372,730);
}
);
layerId = "CCC0BD40-BA8C-414E-B576-CF0B94E6C996";
shapes = (
{
closed = 1;
nodes = (
(138,0,l),
(186,300,l),
(331,300,ls),
(467,300,o),
(567,384,o),
(588,515,cs),
(608,646,o),
(535,730,o),
(399,730,cs),
(164,730,l),
(48,0,l)
);
},
{
closed = 1;
nodes = (
(241,649,l),
(386,649,ls),
(465,649,o),
(508,597,o),
(495,515,cs),
(482,433,o),
(422,381,o),
(343,381,cs),
(198,381,l)
);
}
);
width = 600;
},
{
anchors = (
{
name = top;
pos = (372,730);
}
);
layerId = "EDF5EB54-295C-4C90-9A2F-67CD82979CFF";
shapes = (
{
closed = 1;
nodes = (
(116,0,l),
(167,324,l),
(332,324,ls),
(459,324,o),
(555,404,o),
(574,527,cs),
(594,650,o),
(525,730,o),
(397,730,cs),
(182,730,l),
(66,0,l)
);
},
{
closed = 1;
nodes = (
(224,684,l),
(389,684,ls),
(487,684,o),
(540,624,o),
(524,527,cs),
(509,431,o),
(437,370,o),
(340,370,cs),
(175,370,l)
);
}
);
width = 600;
}
);
unicode = 80;
},
{
glyphname = Thorn;
layers = (
{
layerId = "9ADF6715-3D0F-493D-8567-18A6FBCFC567";
shapes = (
{
closed = 1;
nodes = (
(176,0,l),
(202,165,l),
(322,165,ls),
(465,165,o),
(565,246,o),
(586,380,cs),
(608,515,o),
(534,595,o),
(390,595,cs),
(270,595,l),
(292,730,l),
(142,730,l),
(26,0,l)
);
},
{
closed = 1;
nodes = (
(250,470,l),
(345,470,ls),
(413,470,o),
(445,438,o),
(436,380,cs),
(427,322,o),
(385,290,o),
(317,290,cs),
(222,290,l)
);
}
);
width = 600;
},
{
layerId = "CCC0BD40-BA8C-414E-B576-CF0B94E6C996";
shapes = (
{
closed = 1;
nodes = (
(136,0,l),
(165,180,l),
(318,180,ls),
(450,180,o),
(547,258,o),
(566,380,cs),
(585,500,o),
(512,580,o),
(381,580,cs),
(228,580,l),
(252,730,l),
(162,730,l),
(46,0,l)
);
},
{
closed = 1;
nodes = (
(215,500,l),
(368,500,ls),
(444,500,o),
(485,454,o),
(473,380,cs),
(461,306,o),
(407,260,o),
(330,260,cs),
(177,260,l)
);
}
);
width = 600;
},
{
layerId = "EDF5EB54-295C-4C90-9A2F-67CD82979CFF";
shapes = (
{
closed = 1;
nodes = (
(111,0,l),
(142,195,l),
(320,195,ls),
(441,195,o),
(528,266,o),
(546,380,cs),
(564,494,o),
(499,565,o),
(378,565,cs),
(200,565,l),
(227,730,l),
(177,730,l),
(61,0,l)
);
},
{
closed = 1;
nodes = (
(193,520,l),
(371,520,ls),
(462,520,o),
(510,467,o),
(496,380,cs),
(483,294,o),
(418,241,o),
(327,241,cs),
(149,241,l)
);
}
);
width = 600;
}
);
unicode = 222;
},
{
glyphname = Q;
layers = (
{
anchors = (
{
name = top;
pos = (372,730);
}
);
layerId = "9ADF6715-3D0F-493D-8567-18A6FBCFC567";
shapes = (
{
closed = 1;
nodes = (
(479,-180,l),
(362,77,l),
(345,3,l),
(447,29,o),
(513,106,o),
(529,210,cs),
(578,520,ls),
(599,652,o),
(517,740,o),
(373,740,cs),
(228,740,o),
(119,653,o),
(98,520,cs),
(49,210,ls),
(28,79,o),
(110,-10,o),
(254,-10,cs),
(260,-10,o),
(269,-9,o),
(274,-9,c),
(250,4,l),
(332,-180,l)
);
},
{
closed = 1;
nodes = (
(213,121,o),
(190,153,o),
(199,210,cs),
(248,520,ls),
(257,578,o),
(295,610,o),
(353,610,cs),
(411,610,o),
(437,578,o),
(428,520,cs),
(379,210,ls),
(370,153,o),
(337,121,o),
(275,121,cs)
);
}
);
width = 600;
},
{
anchors = (
{
name = top;
pos = (372,730);
}
);
layerId = "CCC0BD40-BA8C-414E-B576-CF0B94E6C996";
shapes = (
{
closed = 1;
nodes = (
(450,-180,l),
(348,50,l),
(342,4,l),
(430,31,o),
(492,105,o),
(508,205,cs),
(559,525,ls),
(580,656,o),
(508,740,o),
(373,740,cs),
(238,740,o),
(140,656,o),
(119,525,cs),
(68,205,ls),
(47,74,o),
(119,-10,o),
(254,-10,cs),
(264,-10,o),
(275,-9,o),
(286,-7,c),
(274,-3,l),
(352,-180,l)
);
},
{
closed = 1;
nodes = (
(188,70,o),
(145,123,o),
(158,205,cs),
(209,525,ls),
(222,607,o),
(282,660,o),
(361,660,cs),
(440,660,o),
(482,607,o),
(469,525,cs),
(418,205,ls),
(405,123,o),
(346,70,o),
(267,70,cs)
);
}
);
width = 600;
},
{
anchors = (
{
name = top;
pos = (372,730);
}
);
layerId = "EDF5EB54-295C-4C90-9A2F-67CD82979CFF";
shapes = (
{
closed = 1;
nodes = (
(433,-180,l),
(340,31,l),
(339,5,l),
(415,31,o),
(467,101,o),
(481,190,cs),
(537,540,ls),
(556,656,o),
(493,740,o),
(374,740,cs),
(254,740,o),
(167,662,o),
(147,540,cs),
(91,190,ls),
(72,69,o),
(136,-10,o),
(255,-10,cs),
(275,-10,o),
(298,-7,o),
(309,-5,c),
(301,0,l),
(382,-180,l)
);
},
{
closed = 1;
nodes = (
(171,35,o),
(125,92,o),
(141,190,cs),
(197,540,ls),
(213,638,o),
(275,695,o),
(367,695,cs),
(457,695,o),
(503,637,o),
(487,540,cs),
(431,190,ls),
(415,92,o),
(354,35,o),
(263,35,cs)
);
}
);
width = 600;
}
);
unicode = 81;
},
{
glyphname = R;
layers = (
{
anchors = (
{
name = bottom;
pos = (256,0);
},
{
name = top;
pos = (372,730);
}
);
layerId = "9ADF6715-3D0F-493D-8567-18A6FBCFC567";
shapes = (
{
closed = 1;
nodes = (
(170,0,l),
(214,276,l),
(284,276,l),
(366,0,l),
(521,0,l),
(404,361,l),
(385,287,l),
(490,306,o),
(574,396,o),
(591,508,cs),
(613,644,o),
(527,730,o),
(372,730,cs),
(137,730,l),
(21,0,l)
);
},
{
closed = 1;
nodes = (
(265,600,l),
(351,600,ls),
(417,600,o),
(450,563,o),
(440,501,cs),
(431,441,o),
(386,406,o),
(320,406,cs),
(234,406,l)
);
}
);
width = 600;
},
{
anchors = (
{
name = bottom;
pos = (256,0);
},
{
name = top;
pos = (372,730);
}
);
layerId = "CCC0BD40-BA8C-414E-B576-CF0B94E6C996";
shapes = (
{
closed = 1;
nodes = (
(138,0,l),
(187,310,l),
(304,310,l),
(399,0,l),
(501,0,l),
(383,359,l),
(372,314,l),
(478,333,o),
(557,411,o),
(573,520,cs),
(593,645,o),
(520,730,o),
(390,730,cs),
(164,730,l),
(48,0,l)
);
},
{
closed = 1;
nodes = (
(241,649,l),
(377,649,ls),
(451,649,o),
(493,598,o),
(480,520,cs),
(468,442,o),
(411,391,o),
(336,391,cs),
(200,391,l)
);
}
);
width = 600;
},
{
anchors = (
{
name = bottom;
pos = (256,0);
},
{
name = top;
pos = (372,730);
}
);
layerId = "EDF5EB54-295C-4C90-9A2F-67CD82979CFF";
shapes = (
{
closed = 1;
nodes = (
(116,0,l),
(168,330,l),
(314,330,l),
(428,0,l),
(482,0,l),
(356,353,l),
(352,330,l),
(464,340,o),
(547,417,o),
(565,528,cs),
(584,652,o),
(516,730,o),
(387,730,cs),
(182,730,l),
(66,0,l)
);
},
{
closed = 1;
nodes = (
(224,684,l),
(379,684,ls),
(476,684,o),
(530,624,o),
(515,530,cs),
(500,436,o),
(427,375,o),
(330,375,cs),
(175,375,l)
);
}
);
width = 600;
}
);
unicode = 82;
},
{
glyphname = S;
layers = (
{
anchors = (
{
name = bottom;
pos = (256,0);
},
{
name = top;
pos = (372,730);
}
);
layerId = "9ADF6715-3D0F-493D-8567-18A6FBCFC567";
shapes = (
{
closed = 1;
nodes = (
(409,-10,o),
(520,74,o),
(542,206,cs),
(559,319,o),
(500,398,o),
(377,428,cs),
(302,446,ls),
(259,456,o),
(240,489,o),
(248,535,cs),
(255,583,o),
(291,610,o),
(349,610,cs),
(410,610,o),
(439,581,o),
(432,535,c),
(582,535,l),
(602,660,o),
(520,740,o),
(371,740,cs),
(223,740,o),
(117,657,o),
(97,529,cs),
(80,418,o),
(140,335,o),
(260,306,cs),
(331,289,ls),
(376,278,o),
(397,244,o),
(391,199,cs),
(383,149,o),
(341,120,o),
(278,120,cs),
(213,120,o),
(177,151,o),
(185,200,c),
(35,200,l),
(14,72,o),
(100,-10,o),
(254,-10,cs)
);
}
);
width = 600;
},
{
anchors = (
{
name = bottom;
pos = (256,0);
},
{
name = top;
pos = (372,730);
}
);
layerId = "CCC0BD40-BA8C-414E-B576-CF0B94E6C996";
shapes = (
{
closed = 1;
nodes = (
(392,-10,o),
(495,70,o),
(514,190,cs),
(529,287,o),
(484,363,o),
(392,394,cs),
(297,426,ls),
(242,444,o),
(216,492,o),
(226,554,cs),
(236,620,o),
(288,660,o),
(366,660,cs),
(445,660,o),
(483,617,o),
(471,545,c),
(561,545,l),
(578,663,o),
(507,741,o),
(379,741,cs),
(249,741,o),
(153,663,o),
(134,546,cs),
(120,450,o),
(167,375,o),
(260,345,cs),
(354,314,ls),
(407,297,o),
(433,250,o),
(424,188,cs),
(412,115,o),
(355,71,o),
(271,71,cs),
(181,71,o),
(136,116,o),
(148,190,c),
(58,190,l),
(40,66,o),
(115,-10,o),
(258,-10,cs)
);
}
);
width = 600;
},
{
anchors = (
{
name = bottom;
pos = (256,0);
},
{
name = top;
pos = (372,730);
}
);
layerId = "EDF5EB54-295C-4C90-9A2F-67CD82979CFF";
shapes = (
{
closed = 1;
nodes = (
(388,-10,o),
(481,64,o),
(500,180,cs),
(515,273,o),
(465,355,o),
(371,384,cs),
(290,409,ls),
(223,430,o),
(189,488,o),
(200,563,cs),
(212,645,o),
(278,695,o),
(371,695,cs),
(462,695,o),
(512,637,o),
(498,548,c),
(548,548,l),
(566,666,o),
(501,740,o),
(379,740,cs),
(256,740,o),
(167,670,o),
(150,559,cs),
(135,466,o),
(180,392,o),
(271,364,cs),
(352,339,ls),
(427,316,o),
(461,258,o),
(449,177,cs),
(435,88,o),
(367,35,o),
(267,35,cs),
(164,35,o),
(106,94,o),
(120,185,c),
(70,185,l),
(51,66,o),
(124,-10,o),
(259,-10,cs)
);
}
);
width = 600;
}
);
unicode = 83;
},
{
glyphname = Scedilla;
layers = (
{
anchors = (
{
name = _bottom;
pos = (256,0);
}
);
layerId = "9ADF6715-3D0F-493D-8567-18A6FBCFC567";
shapes = (
{
closed = 1;
nodes = (
(225,-225,ls),
(309,-225,o),
(372,-182,o),
(380,-133,cs),
(390,-72,o),
(313,-43,o),
(253,-39,c),
(281,16,l),
(208,16,l),
(159,-69,l),
(232,-69,o),
(272,-88,o),
(267,-119,cs),
(265,-135,o),
(239,-155,o),
(206,-155,cs),
(126,-155,l),
(115,-225,l)
);
},
{
alignment = -1;
ref = S;
}
);
width = 600;
},
{
anchors = (
{
name = _bottom;
pos = (256,0);
}
);
layerId = "CCC0BD40-BA8C-414E-B576-CF0B94E6C996";
shapes = (
{
closed = 1;
nodes = (
(214,-203,ls),
(286,-203,o),
(340,-166,o),
(347,-120,cs),
(355,-68,o),
(292,-41,o),
(240,-35,c),
(271,26,l),
(214,26,l),
(164,-69,l),
(231,-69,o),
(266,-89,o),
(262,-112,cs),
(259,-130,o),
(237,-148,o),
(208,-148,cs),
(138,-148,l),
(129,-203,l)
);
},
{
alignment = -1;
ref = S;
}
);
width = 600;
},
{
anchors = (
{
name = _bottom;
pos = (256,0);
}
);
layerId = "EDF5EB54-295C-4C90-9A2F-67CD82979CFF";
shapes = (
{
closed = 1;
nodes = (
(240,-195,ls),
(300,-195,o),
(346,-161,o),
(352,-118,cs),
(361,-61,o),
(302,-37,o),
(256,-34,c),
(288,26,l),
(246,26,l),
(197,-64,l),
(268,-64,o),
(311,-86,o),
(306,-118,cs),
(303,-140,o),
(278,-160,o),
(246,-160,cs),
(166,-160,l),
(160,-195,l)
);
},
{
alignment = -1;
ref = S;
}
);
width = 600;
}
);
unicode = 350;
},
{
glyphname = Germandbls;
layers = (
{
layerId = "EDF5EB54-295C-4C90-9A2F-67CD82979CFF";
shapes = (
{
closed = 1;
nodes = (
(116,0,l),
(202,543,ls),
(216,629,o),
(281,685,o),
(369,685,cs),
(528,685,l),
(291,411,l),
(284,368,l),
(324,368,ls),
(421,368,o),
(474,305,o),
(459,208,cs),
(443,109,o),
(370,45,o),
(273,45,cs),
(211,45,l),
(204,0,l),
(266,0,ls),
(394,0,o),
(489,82,o),
(509,210,cs),
(528,330,o),
(458,407,o),
(330,407,c),
(331,396,l),
(581,684,l),
(589,730,l),
(377,730,ls),
(259,730,o),
(170,657,o),
(152,543,cs),
(66,0,l)
);
}
);
width = 600;
},
{
layerId = "9ADF6715-3D0F-493D-8567-18A6FBCFC567";
shapes = (
{
closed = 1;
nodes = (
(151,0,l),
(232,511,ls),
(241,568,o),
(286,605,o),
(347,605,cs),
(460,605,l),
(284,438,l),
(267,328,l),
(314,328,ls),
(377,328,o),
(409,287,o),
(400,227,cs),
(390,167,o),
(346,125,o),
(282,125,cs),
(235,125,l),
(215,0,l),
(267,0,ls),
(418,0,o),
(528,84,o),
(549,215,cs),
(569,344,o),
(495,427,o),
(359,425,c),
(364,370,l),
(595,589,l),
(618,730,l),
(368,730,ls),
(225,730,o),
(118,644,o),
(97,511,cs),
(16,0,l)
);
}
);
width = 600;
},
{
layerId = "CCC0BD40-BA8C-414E-B576-CF0B94E6C996";
shapes = (
{
closed = 1;
nodes = (
(138,0,l),
(221,524,ls),
(233,601,o),
(287,648,o),
(361,648,cs),
(489,648,l),
(293,423,l),
(281,345,l),
(326,345,ls),
(406,345,o),
(448,295,o),
(435,215,cs),
(422,133,o),
(364,82,o),
(284,82,cs),
(227,82,l),
(214,0,l),
(281,0,ls),
(410,0,o),
(510,86,o),
(530,215,cs),
(550,342,o),
(487,425,o),
(373,423,c),
(369,396,l),
(587,642,l),
(601,730,l),
(374,730,ls),
(248,730,o),
(151,648,o),
(131,524,cs),
(48,0,l)
);
}
);
width = 600;
}
);
unicode = 7838;
},
{
glyphname = Schwa;
layers = (
{
layerId = "9ADF6715-3D0F-493D-8567-18A6FBCFC567";
shapes = (
{
closed = 1;
nodes = (
(402,-10,o),
(508,78,o),
(529,210,cs),
(578,520,ls),
(599,653,o),
(521,740,o),
(374,740,cs),
(228,740,o),
(122,654,o),
(100,520,c),
(250,520,l),
(260,578,o),
(294,610,o),
(354,610,cs),
(414,610,o),
(438,578,o),
(428,520,c),
(412,416,l),
(82,416,l),
(49,210,ls),
(28,78,o),
(109,-10,o),
(255,-10,cs)
);
},
{
closed = 1;
nodes = (
(212,105,o),
(188,138,o),
(199,210,cs),
(216,316,l),
(204,306,l),
(394,306,l),
(379,210,ls),
(368,142,o),
(340,105,o),
(274,105,cs)
);
}
);
width = 600;
},
{
layerId = "CCC0BD40-BA8C-414E-B576-CF0B94E6C996";
shapes = (
{
closed = 1;
nodes = (
(384,-10,o),
(478,73,o),
(498,200,cs),
(550,530,ls),
(571,661,o),
(506,740,o),
(373,740,cs),
(242,740,o),
(150,659,o),
(130,530,c),
(220,530,l),
(233,613,o),
(283,660,o),
(361,660,cs),
(440,660,o),
(473,613,o),
(460,531,cs),
(439,400,l),
(109,400,l),
(78,200,ls),
(58,73,o),
(124,-10,o),
(254,-10,cs)
);
},
{
closed = 1;
nodes = (
(184,65,o),
(154,113,o),
(168,200,cs),
(190,338,l),
(181,330,l),
(428,330,l),
(408,200,ls),
(394,113,o),
(348,65,o),
(266,65,cs)
);
}
);
width = 600;
},
{
layerId = "EDF5EB54-295C-4C90-9A2F-67CD82979CFF";
shapes = (
{
closed = 1;
nodes = (
(375,-10,o),
(462,69,o),
(481,190,cs),
(537,540,ls),
(556,662,o),
(494,740,o),
(372,740,cs),
(248,740,o),
(165,658,o),
(145,530,c),
(195,530,l),
(211,632,o),
(270,695,o),
(365,695,cs),
(458,695,o),
(502,636,o),
(487,540,cs),
(461,378,l),
(121,378,l),
(91,190,ls),
(72,69,o),
(132,-10,o),
(253,-10,cs)
);
},
{
closed = 1;
nodes = (
(168,34,o),
(126,94,o),
(141,190,cs),
(165,344,l),
(153,335,l),
(454,335,l),
(431,190,ls),
(416,93,o),
(354,34,o),
(260,34,cs)
);
}
);
width = 600;
}
);
unicode = 399;
},
{
glyphname = T;
layers = (
{
anchors = (
{
name = bottom;
pos = (256,0);
},
{
name = top;
pos = (372,730);
}
);
layerId = "9ADF6715-3D0F-493D-8567-18A6FBCFC567";
shapes = (
{
closed = 1;
nodes = (
(331,0,l),
(424,590,l),
(609,590,l),
(632,730,l),
(112,730,l),
(89,590,l),
(274,590,l),
(181,0,l)
);
}
);
width = 600;
},
{
anchors = (
{
name = bottom;
pos = (256,0);
},
{
name = top;
pos = (372,730);
}
);
layerId = "CCC0BD40-BA8C-414E-B576-CF0B94E6C996";
shapes = (
{
closed = 1;
nodes = (
(301,0,l),
(404,648,l),
(604,648,l),
(617,730,l),
(127,730,l),
(114,648,l),
(314,648,l),
(211,0,l)
);
}
);
width = 600;
},
{
anchors = (
{
name = bottom;
pos = (256,0);
},
{
name = top;
pos = (372,730);
}
);
layerId = "EDF5EB54-295C-4C90-9A2F-67CD82979CFF";
shapes = (
{
closed = 1;
nodes = (
(282,0,l),
(390,684,l),
(604,684,l),
(612,730,l),
(132,730,l),
(124,684,l),
(340,684,l),
(232,0,l)
);
}
);
width = 600;
}
);
unicode = 84;
},
{
glyphname = Tbar;
layers = (
{
layerId = "9ADF6715-3D0F-493D-8567-18A6FBCFC567";
shapes = (
{
closed = 1;
nodes = (
(500,275,l),
(518,390,l),
(118,390,l),
(100,275,l)
);
},
{
alignment = -1;
ref = T;
}
);
width = 600;
},
{
layerId = "CCC0BD40-BA8C-414E-B576-CF0B94E6C996";
shapes = (
{
closed = 1;
nodes = (
(493,295,l),
(505,370,l),
(125,370,l),
(113,295,l)
);
},
{
alignment = -1;
ref = T;
}
);
width = 600;
},
{
layerId = "EDF5EB54-295C-4C90-9A2F-67CD82979CFF";
shapes = (
{
closed = 1;
nodes = (
(486,310,l),
(493,355,l),
(133,355,l),
(126,310,l)
);
},
{
ref = T;
}
);
width = 600;
}
);
unicode = 358;
},
{
glyphname = Tcedilla;
layers = (
{
layerId = "9ADF6715-3D0F-493D-8567-18A6FBCFC567";
shapes = (
{
closed = 1;
nodes = (
(284,-225,ls),
(368,-225,o),
(431,-182,o),
(439,-133,cs),
(449,-72,o),
(372,-43,o),
(312,-39,c),
(331,0,l),
(267,16,l),
(218,-69,l),
(291,-69,o),
(331,-88,o),
(326,-119,cs),
(324,-135,o),
(298,-155,o),
(265,-155,cs),
(185,-155,l),
(174,-225,l)
);
},
{
alignment = -1;
ref = T;
}
);
width = 600;
},
{
layerId = "CCC0BD40-BA8C-414E-B576-CF0B94E6C996";
shapes = (
{
closed = 1;
nodes = (
(257,-203,ls),
(329,-203,o),
(383,-166,o),
(390,-120,cs),
(398,-68,o),
(335,-41,o),
(283,-35,c),
(301,0,l),
(257,26,l),
(207,-69,l),
(274,-69,o),
(309,-89,o),
(305,-112,cs),
(302,-130,o),
(280,-148,o),
(251,-148,cs),
(181,-148,l),
(172,-203,l)
);
},
{
alignment = -1;
ref = T;
}
);
width = 600;
},
{
layerId = "EDF5EB54-295C-4C90-9A2F-67CD82979CFF";
shapes = (
{
closed = 1;
nodes = (
(248,-195,ls),
(308,-195,o),
(353,-161,o),
(360,-118,cs),
(369,-61,o),
(310,-37,o),
(263,-34,c),
(282,0,l),
(254,26,l),
(205,-64,l),
(276,-64,o),
(319,-86,o),
(314,-118,cs),
(311,-140,o),
(286,-160,o),
(254,-160,cs),
(174,-160,l),
(168,-195,l)
);
},
{
alignment = -1;
ref = T;
}
);
width = 600;
}
);
unicode = 354;
},
{
glyphname = U;
layers = (
{
anchors = (
{
name = bottom;
pos = (256,0);
},
{
name = horn;
pos = (457,730);
},
{
name = ogonek;
pos = (305,0);
},
{
name = top;
pos = (372,730);
},
{
name = topright;
pos = (652,730);
}
);
layerId = "9ADF6715-3D0F-493D-8567-18A6FBCFC567";
shapes = (
{
closed = 1;
nodes = (
(402,-10,o),
(508,76,o),
(530,214,cs),
(612,730,l),
(462,730,l),
(380,215,ls),
(370,154,o),
(331,120,o),
(275,120,cs),
(218,120,o),
(190,154,o),
(200,215,cs),
(282,730,l),
(132,730,l),
(50,214,ls),
(28,75,o),
(106,-10,o),
(254,-10,cs)
);
}
);
width = 600;
},
{
anchors = (
{
name = bottom;
pos = (256,0);
},
{
name = horn;
pos = (457,730);
},
{
name = ogonek;
pos = (305,0);
},
{
name = top;
pos = (372,730);
},
{
name = topright;
pos = (652,730);
}
);
layerId = "CCC0BD40-BA8C-414E-B576-CF0B94E6C996";
shapes = (
{
closed = 1;
nodes = (
(391,-10,o),
(477,69,o),
(498,200,cs),
(582,730,l),
(492,730,l),
(408,200,ls),
(395,120,o),
(347,70,o),
(267,70,cs),
(186,70,o),
(155,120,o),
(168,200,cs),
(252,730,l),
(162,730,l),
(78,200,ls),
(57,70,o),
(118,-10,o),
(254,-10,cs)
);
}
);
width = 600;
},
{
anchors = (
{
name = bottom;
pos = (256,0);
},
{
name = horn;
pos = (464,730);
},
{
name = ogonek;
pos = (305,0);
},
{
name = top;
pos = (372,730);
},
{
name = topright;
pos = (652,730);
}
);
layerId = "EDF5EB54-295C-4C90-9A2F-67CD82979CFF";
shapes = (
{
closed = 1;
nodes = (
(371,-10,o),
(459,69,o),
(478,190,cs),
(564,730,l),
(514,730,l),
(428,190,ls),
(413,93,o),
(352,35,o),
(263,35,cs),
(173,35,o),
(129,92,o),
(144,190,cs),
(230,730,l),
(180,730,l),
(94,190,ls),
(75,69,o),
(138,-10,o),
(255,-10,cs)
);
}
);
width = 600;
}
);
unicode = 85;
},
{
glyphname = Uhorn;
layers = (
{
anchors = (
{
name = top;
pos = (372,730);
}
);
layerId = "9ADF6715-3D0F-493D-8567-18A6FBCFC567";
shapes = (
{
closed = 1;
nodes = (
(562,630,ls),
(649,630,o),
(715,684,o),
(728,765,cs),
(740,840,l),
(620,840,l),
(608,765,ls),
(605,743,o),
(590,730,o),
(568,730,cs),
(518,730,l),
(502,630,l)
);
},
{
alignment = -1;
ref = U;
}
);
width = 600;
},
{
anchors = (
{
name = top;
pos = (372,730);
}
);
layerId = "CCC0BD40-BA8C-414E-B576-CF0B94E6C996";
shapes = (
{
closed = 1;
nodes = (
(551,665,ls),
(615,665,o),
(662,702,o),
(671,760,cs),
(684,840,l),
(609,840,l),
(597,765,ls),
(594,744,o),
(578,730,o),
(557,730,cs),
(507,730,l),
(496,665,l)
);
},
{
ref = U;
}
);
width = 600;
},
{
anchors = (
{
name = top;
pos = (360,730);
}
);
layerId = "EDF5EB54-295C-4C90-9A2F-67CD82979CFF";
shapes = (
{
closed = 1;
nodes = (
(595,695,ls),
(646,695,o),
(685,729,o),
(693,780,cs),
(703,840,l),
(663,840,l),
(653,780,ls),
(648,750,o),
(628,730,o),
(601,730,cs),
(516,730,l),
(510,695,l)
);
},
{
alignment = -1;
ref = U;
}
);
width = 600;
}
);
unicode = 431;
},
{
glyphname = Uogonek;
layers = (
{
anchors = (
{
name = horn;
pos = (457,730);
},
{
name = top;
pos = (372,730);
}
);
layerId = "9ADF6715-3D0F-493D-8567-18A6FBCFC567";
shapes = (
{
closed = 1;
nodes = (
(382,-225,l),
(399,-120,l),
(330,-120,ls),
(301,-120,o),
(287,-103,o),
(290,-82,cs),
(293,-65,o),
(309,-38,o),
(339,-17,cs),
(393,21,l),
(463,58,o),
(516,127,o),
(529,210,cs),
(612,730,l),
(462,730,l),
(379,210,ls),
(370,152,o),
(335,120,o),
(275,120,cs),
(215,120,o),
(190,152,o),
(199,210,cs),
(282,730,l),
(132,730,l),
(49,210,ls),
(28,78,o),
(107,-10,o),
(254,-10,cs),
(287,-10,o),
(306,11,o),
(307,21,c),
(235,-9,o),
(168,-68,o),
(161,-115,cs),
(150,-180,o),
(193,-225,o),
(274,-225,cs)
);
}
);
width = 600;
},
{
anchors = (
{
name = horn;
pos = (457,730);
},
{
name = top;
pos = (372,730);
}
);
layerId = "CCC0BD40-BA8C-414E-B576-CF0B94E6C996";
shapes = (
{
closed = 1;
nodes = (
(381,-203,l),
(390,-143,l),
(330,-143,ls),
(296,-143,o),
(279,-122,o),
(283,-93,cs),
(288,-65,o),
(307,-36,o),
(357,1,cs),
(390,25,l),
(448,60,o),
(485,121,o),
(498,200,cs),
(582,730,l),
(492,730,l),
(408,200,ls),
(395,117,o),
(345,71,o),
(267,71,cs),
(189,71,o),
(155,117,o),
(168,200,cs),
(252,730,l),
(162,730,l),
(78,200,ls),
(57,69,o),
(123,-10,o),
(254,-10,cs),
(258,-10,o),
(263,-10,o),
(267,-10,c),
(226,-45,o),
(200,-82,o),
(196,-110,cs),
(187,-164,o),
(229,-203,o),
(303,-203,cs)
);
}
);
width = 600;
},
{
anchors = (
{
name = horn;
pos = (464,730);
},
{
name = top;
pos = (372,730);
}
);
layerId = "EDF5EB54-295C-4C90-9A2F-67CD82979CFF";
shapes = (
{
closed = 1;
nodes = (
(367,-195,l),
(374,-153,l),
(310,-153,ls),
(278,-153,o),
(262,-134,o),
(267,-103,cs),
(271,-75,o),
(300,-33,o),
(344,2,cs),
(355,10,l),
(422,45,o),
(465,105,o),
(478,190,cs),
(564,730,l),
(514,730,l),
(428,190,ls),
(412,91,o),
(353,34,o),
(261,34,cs),
(169,34,o),
(128,91,o),
(144,190,cs),
(230,730,l),
(180,730,l),
(94,190,ls),
(75,68,o),
(136,-10,o),
(254,-10,cs),
(265,-10,o),
(284,-9,o),
(295,-6,c),
(252,-39,o),
(223,-80,o),
(218,-115,cs),
(210,-165,o),
(239,-195,o),
(294,-195,cs)
);
}
);
width = 600;
}
);
unicode = 370;
},
{
glyphname = V;
layers = (
{
anchors = (
{
name = top;
pos = (372,730);
}
);
layerId = "9ADF6715-3D0F-493D-8567-18A6FBCFC567";
shapes = (
{
closed = 1;
nodes = (
(352,0,l),
(647,730,l),
(493,730,l),
(322,270,ls),
(310,237,o),
(292,178,o),
(282,144,c),
(281,178,o),
(279,237,o),
(277,269,cs),
(249,730,l),
(97,730,l),
(162,0,l)
);
}
);
width = 600;
},
{
anchors = (
{
name = top;
pos = (372,730);
}
);
layerId = "CCC0BD40-BA8C-414E-B576-CF0B94E6C996";
shapes = (
{
closed = 1;
nodes = (
(317,0,l),
(622,730,l),
(529,730,l),
(327,234,ls),
(299,165,o),
(277,100,o),
(268,70,c),
(268,100,o),
(264,165,o),
(258,234,cs),
(213,730,l),
(122,730,l),
(194,0,l)
);
}
);
width = 600;
},
{
anchors = (
{
name = top;
pos = (372,730);
}
);
layerId = "EDF5EB54-295C-4C90-9A2F-67CD82979CFF";
shapes = (
{
closed = 1;
nodes = (
(288,0,l),
(604,730,l),
(552,730,l),
(316,180,ls),
(291,122,o),
(271,66,o),
(262,40,c),
(261,66,o),
(259,122,o),
(252,180,cs),
(190,730,l),
(140,730,l),
(224,0,l)
);
}
);
width = 600;
}
);
unicode = 86;
},
{
glyphname = W;
layers = (
{
anchors = (
{
name = bottom;
pos = (256,0);
},
{
name = top;
pos = (372,730);
}
);
layerId = "9ADF6715-3D0F-493D-8567-18A6FBCFC567";
shapes = (
{
closed = 1;
nodes = (
(191,0,l),
(321,485,ls),
(330,519,o),
(346,594,o),
(356,640,c),
(352,594,o),
(346,519,o),
(344,485,cs),
(317,0,l),
(473,0,l),
(662,730,l),
(538,730,l),
(426,242,ls),
(419,213,o),
(406,144,o),
(398,100,c),
(400,144,o),
(402,213,o),
(404,242,cs),
(430,730,l),
(313,730,l),
(181,242,ls),
(173,213,o),
(156,144,o),
(145,100,c),
(151,144,o),
(159,213,o),
(161,242,cs),
(202,730,l),
(82,730,l),
(34,0,l)
);
}
);
width = 600;
},
{
anchors = (
{
name = bottom;
pos = (256,0);
},
{
name = top;
pos = (372,730);
}
);
layerId = "CCC0BD40-BA8C-414E-B576-CF0B94E6C996";
shapes = (
{
closed = 1;
nodes = (
(178,0,l),
(332,550,ls),
(345,595,o),
(357,643,o),
(364,667,c),
(362,643,o),
(359,595,o),
(357,550,cs),
(332,0,l),
(445,0,l),
(647,730,l),
(565,730,l),
(422,190,ls),
(410,146,o),
(398,93,o),
(391,65,c),
(393,93,o),
(395,146,o),
(397,190,cs),
(421,730,l),
(326,730,l),
(172,190,ls),
(159,146,o),
(147,93,o),
(139,65,c),
(143,93,o),
(147,146,o),
(150,190,cs),
(181,730,l),
(97,730,l),
(65,0,l)
);
}
);
width = 600;
},
{
anchors = (
{
name = bottom;
pos = (256,0);
},
{
name = top;
pos = (372,730);
}
);
layerId = "EDF5EB54-295C-4C90-9A2F-67CD82979CFF";
shapes = (
{
closed = 1;
nodes = (
(156,0,l),
(320,530,ls),
(336,582,o),
(356,652,o),
(368,690,c),
(367,651,o),
(365,581,o),
(364,530,cs),
(353,0,l),
(425,0,l),
(632,730,l),
(583,730,l),
(435,190,ls),
(425,154,o),
(403,80,o),
(390,35,c),
(391,80,o),
(392,154,o),
(393,190,cs),
(405,730,l),
(341,730,l),
(178,190,ls),
(167,154,o),
(145,80,o),
(132,35,c),
(134,80,o),
(137,154,o),
(138,190,cs),
(156,730,l),
(112,730,l),
(86,0,l)
);
}
);
width = 600;
}
);
unicode = 87;
},
{
glyphname = X;
layers = (
{
anchors = (
{
name = top;
pos = (372,730);
}
);
layerId = "9ADF6715-3D0F-493D-8567-18A6FBCFC567";
shapes = (
{
closed = 1;
nodes = (
(142,0,l),
(259,180,ls),
(278,209,o),
(291,237,o),
(297,250,c),
(300,237,o),
(307,209,o),
(317,180,cs),
(376,0,l),
(536,0,l),
(400,373,l),
(639,730,l),
(473,730,l),
(369,570,ls),
(350,541,o),
(339,515,o),
(334,504,c),
(333,515,o),
(324,540,o),
(315,570,cs),
(265,730,l),
(105,730,l),
(232,381,l),
(-24,0,l)
);
}
);
width = 600;
},
{
anchors = (
{
name = top;
pos = (372,730);
}
);
layerId = "CCC0BD40-BA8C-414E-B576-CF0B94E6C996";
shapes = (
{
closed = 1;
nodes = (
(100,0,l),
(262,233,ls),
(277,255,o),
(295,284,o),
(305,300,c),
(309,284,o),
(319,255,o),
(328,232,cs),
(417,0,l),
(516,0,l),
(367,374,l),
(621,730,l),
(518,730,l),
(369,514,ls),
(353,491,o),
(336,462,o),
(327,447,c),
(321,462,o),
(310,491,o),
(302,514,cs),
(223,730,l),
(123,730,l),
(264,372,l),
(-4,0,l)
);
}
);
width = 600;
},
{
anchors = (
{
name = top;
pos = (372,730);
}
);
layerId = "EDF5EB54-295C-4C90-9A2F-67CD82979CFF";
shapes = (
{
closed = 1;
nodes = (
(66,0,l),
(246,252,ls),
(261,273,o),
(292,316,o),
(313,344,c),
(324,316,o),
(345,273,o),
(353,252,cs),
(449,0,l),
(503,0,l),
(346,381,l),
(604,730,l),
(548,730,l),
(388,508,ls),
(372,485,o),
(340,442,o),
(321,416,c),
(309,443,o),
(289,485,o),
(280,508,cs),
(194,730,l),
(140,730,l),
(287,381,l),
(9,0,l)
);
}
);
width = 600;
}
);
unicode = 88;
},
{
glyphname = Y;
layers = (
{
anchors = (
{
name = bottom;
pos = (256,0);
},
{
name = top;
pos = (372,730);
}
);
layerId = "9ADF6715-3D0F-493D-8567-18A6FBCFC567";
shapes = (
{
closed = 1;
nodes = (
(331,0,l),
(372,260,l),
(657,730,l),
(497,730,l),
(373,510,ls),
(348,466,o),
(327,410,o),
(316,380,c),
(315,410,o),
(308,466,o),
(297,510,cs),
(240,730,l),
(87,730,l),
(222,260,l),
(181,0,l)
);
}
);
width = 600;
},
{
anchors = (
{
name = bottom;
pos = (256,0);
},
{
name = top;
pos = (372,730);
}
);
layerId = "CCC0BD40-BA8C-414E-B576-CF0B94E6C996";
shapes = (
{
closed = 1;
nodes = (
(301,0,l),
(344,273,l),
(637,730,l),
(542,730,l),
(352,430,ls),
(331,397,o),
(318,372,o),
(313,362,c),
(312,372,o),
(306,397,o),
(295,430,cs),
(198,730,l),
(107,730,l),
(254,273,l),
(211,0,l)
);
}
);
width = 600;
},
{
anchors = (
{
name = bottom;
pos = (256,0);
},
{
name = top;
pos = (372,730);
}
);
layerId = "EDF5EB54-295C-4C90-9A2F-67CD82979CFF";
shapes = (
{
closed = 1;
nodes = (
(281,0,l),
(325,280,l),
(622,730,l),
(568,730,l),
(351,400,ls),
(331,370,o),
(315,342,o),
(307,330,c),
(303,343,o),
(294,371,o),
(284,400,cs),
(172,730,l),
(122,730,l),
(275,280,l),
(231,0,l)
);
}
);
width = 600;
}
);
unicode = 89;
},
{
glyphname = Z;
layers = (
{
anchors = (
{
name = top;
pos = (372,730);
}
);
layerId = "9ADF6715-3D0F-493D-8567-18A6FBCFC567";
shapes = (
{
closed = 1;
nodes = (
(481,0,l),
(503,140,l),
(228,140,l),
(563,590,l),
(586,730,l),
(155,730,l),
(132,590,l),
(388,590,l),
(54,140,l),
(32,0,l)
);
}
);
width = 600;
},
{
anchors = (
{
name = top;
pos = (372,730);
}
);
layerId = "CCC0BD40-BA8C-414E-B576-CF0B94E6C996";
shapes = (
{
closed = 1;
nodes = (
(471,0,l),
(484,82,l),
(148,82,l),
(562,640,l),
(577,730,l),
(162,730,l),
(149,648,l),
(470,648,l),
(55,90,l),
(41,0,l)
);
}
);
width = 600;
},
{
anchors = (
{
name = top;
pos = (372,730);
}
);
layerId = "EDF5EB54-295C-4C90-9A2F-67CD82979CFF";
shapes = (
{
closed = 1;
nodes = (
(464,0,l),
(471,46,l),
(108,46,l),
(558,673,l),
(567,730,l),
(167,730,l),
(159,684,l),
(508,684,l),
(55,50,l),
(47,0,l)
);
}
);
width = 600;
}
);
unicode = 90;
},
{
export = 0;
glyphname = K.ss00;
layers = (
{
anchors = (
{
name = bottom;
pos = (256,0);
},
{
name = top;
pos = (372,730);
}
);
layerId = "9ADF6715-3D0F-493D-8567-18A6FBCFC567";
shapes = (
{
closed = 1;
nodes = (
(171,0,l),
(228,359,l),
(239,359,l),
(366,0,l),
(531,0,l),
(385,381,l),
(641,730,l),
(478,730,l),
(245,397,l),
(234,397,l),
(287,730,l),
(137,730,l),
(21,0,l)
);
}
);
width = 600;
},
{
anchors = (
{
name = bottom;
pos = (256,0);
},
{
name = top;
pos = (372,730);
}
);
layerId = "CCC0BD40-BA8C-414E-B576-CF0B94E6C996";
shapes = (
{
closed = 1;
nodes = (
(138,0,l),
(196,366,l),
(213,366,l),
(412,0,l),
(516,0,l),
(309,370,l),
(622,730,l),
(522,730,l),
(220,389,l),
(200,389,l),
(254,730,l),
(164,730,l),
(48,0,l)
);
}
);
width = 600;
},
{
anchors = (
{
name = bottom;
pos = (256,0);
},
{
name = top;
pos = (372,730);
}
);
layerId = "EDF5EB54-295C-4C90-9A2F-67CD82979CFF";
shapes = (
{
closed = 1;
nodes = (
(116,0,l),
(175,370,l),
(197,370,l),
(433,0,l),
(496,0,l),
(253,375,l),
(602,730,l),
(539,730,l),
(200,387,l),
(177,387,l),
(232,730,l),
(182,730,l),
(66,0,l)
);
}
);
width = 600;
}
);
},
{
glyphname = a;
layers = (
{
anchors = (
{
name = bottom;
pos = (261,0);
},
{
name = ogonek;
pos = (390,0);
},
{
name = top;
pos = (348,550);
}
);
layerId = "9ADF6715-3D0F-493D-8567-18A6FBCFC567";
shapes = (
{
closed = 1;
nodes = (
(288,-10,o),
(352,45,o),
(367,140,c),
(327,105,l),
(362,105,l),
(345,0,l),
(490,0,l),
(577,550,l),
(428,550,l),
(415,445,l),
(380,445,l),
(410,410,l),
(425,505,o),
(379,560,o),
(288,560,cs),
(177,560,o),
(93,476,o),
(71,345,cs),
(48,205,ls),
(26,73,o),
(86,-10,o),
(197,-10,cs)
);
},
{
closed = 1;
nodes = (
(216,120,o),
(190,152,o),
(199,210,cs),
(220,340,ls),
(229,397,o),
(265,430,o),
(321,430,cs),
(376,430,o),
(403,397,o),
(394,340,cs),
(373,210,ls),
(364,152,o),
(327,120,o),
(272,120,cs)
);
}
);
width = 600;
},
{
anchors = (
{
name = bottom;
pos = (261,0);
},
{
name = ogonek;
pos = (410,0);
},
{
name = top;
pos = (348,550);
}
);
layerId = "EDF5EB54-295C-4C90-9A2F-67CD82979CFF";
shapes = (
{
closed = 1;
nodes = (
(337,-10,o),
(414,49,o),
(428,140,c),
(380,75,l),
(408,75,l),
(396,0,l),
(446,0,l),
(533,550,l),
(483,550,l),
(471,475,l),
(453,475,l),
(471,410,l),
(485,501,o),
(428,560,o),
(332,560,cs),
(222,560,o),
(137,480,o),
(118,360,cs),
(91,189,ls),
(72,69,o),
(131,-10,o),
(241,-10,cs)
);
},
{
closed = 1;
nodes = (
(169,33,o),
(126,91,o),
(141,189,cs),
(168,360,ls),
(183,458,o),
(246,517,o),
(335,517,cs),
(426,517,o),
(468,458,o),
(453,360,cs),
(426,189,ls),
(411,91,o),
(348,33,o),
(258,33,cs)
);
}
);
width = 600;
},
{
anchors = (
{
name = bottom;
pos = (261,0);
},
{
name = ogonek;
pos = (420,0);
},
{
name = top;
pos = (348,550);
}
);
layerId = "CCC0BD40-BA8C-414E-B576-CF0B94E6C996";
shapes = (
{
closed = 1;
nodes = (
(314,-10,o),
(382,42,o),
(395,126,c),
(374,105,l),
(392,105,l),
(375,0,l),
(465,0,l),
(552,550,l),
(462,550,l),
(447,445,l),
(427,445,l),
(442,424,l),
(455,507,o),
(404,560,o),
(314,560,cs),
(203,560,o),
(121,482,o),
(101,355,cs),
(76,194,ls),
(56,68,o),
(113,-10,o),
(223,-10,cs)
);
},
{
closed = 1;
nodes = (
(190,68,o),
(154,115,o),
(167,200,cs),
(190,350,ls),
(203,435,o),
(255,482,o),
(331,482,cs),
(405,482,o),
(443,433,o),
(430,350,cs),
(407,200,ls),
(394,117,o),
(340,68,o),
(266,68,cs)
);
}
);
width = 600;
}
);
unicode = 97;
},
{
glyphname = aogonek;
layers = (
{
layerId = "EDF5EB54-295C-4C90-9A2F-67CD82979CFF";
shapes = (
{
closed = 1;
nodes = (
(469,-195,l),
(476,-153,l),
(412,-153,ls),
(380,-153,o),
(364,-134,o),
(369,-103,cs),
(373,-75,o),
(402,-36,o),
(446,0,c),
(421,10,l),
(365,-27,o),
(326,-74,o),
(320,-115,cs),
(312,-165,o),
(341,-195,o),
(396,-195,c)
);
},
{
ref = a;
}
);
width = 600;
},
{
layerId = "CCC0BD40-BA8C-414E-B576-CF0B94E6C996";
shapes = (
{
closed = 1;
nodes = (
(483,-203,l),
(492,-143,l),
(432,-143,ls),
(398,-143,o),
(381,-122,o),
(385,-93,cs),
(390,-65,o),
(413,-37,o),
(464,0,c),
(402,10,l),
(332,-34,o),
(304,-72,o),
(298,-110,cs),
(289,-164,o),
(331,-203,o),
(405,-203,cs)
);
},
{
ref = a;
}
);
width = 600;
},
{
layerId = "9ADF6715-3D0F-493D-8567-18A6FBCFC567";
shapes = (
{
closed = 1;
nodes = (
(510,-225,l),
(527,-120,l),
(458,-120,ls),
(429,-120,o),
(415,-103,o),
(418,-83,cs),
(421,-66,o),
(439,-42,o),
(492,0,c),
(420,11,l),
(347,-19,o),
(296,-68,o),
(289,-115,cs),
(278,-180,o),
(321,-225,o),
(402,-225,cs)
);
},
{
ref = a;
}
);
width = 600;
}
);
unicode = 261;
},
{
glyphname = ae;
layers = (
{
anchors = (
{
name = top;
pos = (343,550);
}
);
layerId = "9ADF6715-3D0F-493D-8567-18A6FBCFC567";
shapes = (
{
closed = 1;
nodes = (
(207,-10,o),
(251,33,o),
(262,65,c),
(270,65,l),
(270,33,o),
(297,-10,o),
(374,-10,cs),
(461,-10,o),
(529,50,o),
(543,140,c),
(428,140,l),
(423,106,o),
(403,87,o),
(374,87,cs),
(345,87,o),
(330,107,o),
(335,140,cs),
(353,250,l),
(561,250,l),
(586,410,ls),
(600,500,o),
(552,560,o),
(465,560,cs),
(388,560,o),
(347,517,o),
(337,485,c),
(329,485,l),
(329,517,o),
(302,560,o),
(226,560,cs),
(138,560,o),
(70,496,o),
(54,400,c),
(169,400,l),
(176,440,o),
(197,463,o),
(228,463,cs),
(256,463,o),
(269,443,o),
(264,410,cs),
(251,330,l),
(208,330,ls),
(109,330,o),
(34,274,o),
(21,190,cs),
(13,140,ls),
(-1,50,o),
(44,-10,o),
(126,-10,cs)
);
},
{
closed = 1;
nodes = (
(138,87,o),
(123,107,o),
(128,140,cs),
(136,190,ls),
(142,228,o),
(165,250,o),
(196,250,cs),
(239,250,l),
(221,140,ls),
(216,107,o),
(197,87,o),
(169,87,cs)
);
},
{
closed = 1;
nodes = (
(378,410,ls),
(383,443,o),
(403,463,o),
(433,463,cs),
(462,463,o),
(477,444,o),
(471,410,cs),
(458,330,l),
(365,330,l)
);
}
);
width = 600;
},
{
anchors = (
{
name = top;
pos = (343,550);
}
);
layerId = "CCC0BD40-BA8C-414E-B576-CF0B94E6C996";
shapes = (
{
closed = 1;
nodes = (
(209,-10,o),
(257,36,o),
(268,70,c),
(272,70,l),
(272,36,o),
(299,-10,o),
(374,-10,cs),
(461,-10,o),
(528,46,o),
(542,130,c),
(457,130,l),
(450,91,o),
(420,67,o),
(377,67,cs),
(337,67,o),
(315,100,o),
(323,150,cs),
(339,255,l),
(561,255,l),
(584,400,ls),
(600,499,o),
(555,560,o),
(465,560,cs),
(391,560,o),
(348,514,o),
(337,480,c),
(333,480,l),
(332,514,o),
(303,560,o),
(225,560,cs),
(145,560,o),
(83,504,o),
(70,420,c),
(155,420,l),
(161,458,o),
(189,483,o),
(227,483,cs),
(273,483,o),
(290,457,o),
(281,399,cs),
(269,325,l),
(195,325,ls),
(102,325,o),
(34,272,o),
(21,190,cs),
(12,130,ls),
(-2,44,o),
(41,-10,o),
(124,-10,cs)
);
},
{
closed = 1;
nodes = (
(117,67,o),
(95,91,o),
(102,130,cs),
(111,190,ls),
(117,230,o),
(145,255,o),
(186,255,cs),
(258,255,l),
(242,150,ls),
(234,100,o),
(200,67,o),
(157,67,cs)
);
},
{
closed = 1;
nodes = (
(362,400,ls),
(370,450,o),
(400,483,o),
(442,483,cs),
(486,483,o),
(507,450,o),
(499,400,cs),
(487,325,l),
(350,325,l)
);
}
);
width = 600;
},
{
anchors = (
{
name = top;
pos = (343,550);
}
);
layerId = "EDF5EB54-295C-4C90-9A2F-67CD82979CFF";
shapes = (
{
closed = 1;
nodes = (
(209,-10,o),
(256,38,o),
(269,75,c),
(272,75,l),
(273,38,o),
(303,-10,o),
(380,-10,cs),
(461,-10,o),
(517,43,o),
(537,125,c),
(487,125,l),
(473,72,o),
(437,35,o),
(385,35,cs),
(328,35,o),
(297,79,o),
(306,140,cs),
(326,268,l),
(558,268,l),
(581,410,ls),
(595,500,o),
(552,560,o),
(468,560,cs),
(397,560,o),
(350,511,o),
(335,474,c),
(333,474,l),
(332,511,o),
(302,560,o),
(225,560,cs),
(144,560,o),
(83,507,o),
(63,425,c),
(113,425,l),
(127,478,o),
(169,516,o),
(221,516,cs),
(277,516,o),
(309,471,o),
(299,410,cs),
(284,313,l),
(176,313,ls),
(95,313,o),
(38,263,o),
(25,185,cs),
(18,139,ls),
(4,50,o),
(45,-10,o),
(128,-10,cs)
);
},
{
closed = 1;
nodes = (
(88,32,o),
(58,77,o),
(68,139,cs),
(75,185,ls),
(83,234,o),
(121,268,o),
(168,268,cs),
(276,268,l),
(256,140,ls),
(246,78,o),
(199,32,o),
(144,32,cs)
);
},
{
closed = 1;
nodes = (
(349,410,ls),
(358,470,o),
(404,516,o),
(458,516,cs),
(512,516,o),
(540,470,o),
(531,410,cs),
(516,313,l),
(334,313,l)
);
}
);
width = 600;
}
);
unicode = 230;
},
{
glyphname = b;
layers = (
{
layerId = "9ADF6715-3D0F-493D-8567-18A6FBCFC567";
shapes = (
{
closed = 1;
nodes = (
(422,-10,o),
(508,73,o),
(528,205,cs),
(551,345,ls),
(571,476,o),
(513,560,o),
(402,560,cs),
(311,560,o),
(247,505,o),
(232,410,c),
(272,445,l),
(237,445,l),
(264,580,l),
(288,730,l),
(138,730,l),
(22,0,l),
(167,0,l),
(184,105,l),
(219,105,l),
(189,140,l),
(174,45,o),
(220,-10,o),
(311,-10,cs)
);
},
{
closed = 1;
nodes = (
(223,120,o),
(196,152,o),
(205,210,cs),
(226,340,ls),
(235,397,o),
(272,430,o),
(327,430,cs),
(383,430,o),
(409,397,o),
(400,340,cs),
(379,210,ls),
(370,152,o),
(334,120,o),
(278,120,cs)
);
}
);
width = 600;
},
{
layerId = "CCC0BD40-BA8C-414E-B576-CF0B94E6C996";
shapes = (
{
closed = 1;
nodes = (
(396,-10,o),
(479,68,o),
(499,194,cs),
(524,355,ls),
(544,482,o),
(488,560,o),
(377,560,cs),
(287,560,o),
(218,507,o),
(205,424,c),
(226,445,l),
(206,445,l),
(228,570,l),
(254,730,l),
(164,730,l),
(48,0,l),
(138,0,l),
(155,105,l),
(173,105,l),
(158,126,l),
(145,42,o),
(195,-10,o),
(286,-10,cs)
);
},
{
closed = 1;
nodes = (
(195,68,o),
(157,117,o),
(170,200,cs),
(193,350,ls),
(207,433,o),
(260,482,o),
(334,482,cs),
(410,482,o),
(447,435,o),
(433,350,cs),
(410,200,ls),
(396,115,o),
(345,68,o),
(269,68,cs)
);
}
);
width = 600;
},
{
layerId = "EDF5EB54-295C-4C90-9A2F-67CD82979CFF";
shapes = (
{
closed = 1;
nodes = (
(377,-10,o),
(462,69,o),
(481,189,cs),
(508,360,ls),
(527,480,o),
(468,560,o),
(358,560,cs),
(262,560,o),
(185,501,o),
(171,410,c),
(209,475,l),
(191,475,l),
(208,580,l),
(232,730,l),
(182,730,l),
(66,0,l),
(116,0,l),
(128,75,l),
(156,75,l),
(128,140,l),
(114,49,o),
(171,-10,o),
(267,-10,cs)
);
},
{
closed = 1;
nodes = (
(174,33,o),
(130,91,o),
(146,189,cs),
(173,360,ls),
(189,458,o),
(250,517,o),
(341,517,cs),
(430,517,o),
(474,458,o),
(458,360,cs),
(431,189,ls),
(415,91,o),
(353,33,o),
(264,33,cs)
);
}
);
width = 600;
}
);
unicode = 98;
},
{
glyphname = c;
layers = (
{
anchors = (
{
name = bottom;
pos = (259,0);
},
{
name = top;
pos = (346,550);
}
);
layerId = "9ADF6715-3D0F-493D-8567-18A6FBCFC567";
shapes = (
{
closed = 1;
nodes = (
(402,-10,o),
(508,68,o),
(533,195,c),
(383,195,l),
(371,147,o),
(333,120,o),
(278,120,cs),
(218,120,o),
(190,152,o),
(199,210,cs),
(220,340,ls),
(229,398,o),
(267,430,o),
(327,430,cs),
(381,430,o),
(412,402,o),
(408,355,c),
(558,355,l),
(573,482,o),
(493,560,o),
(348,560,cs),
(201,560,o),
(91,473,o),
(70,340,cs),
(49,210,ls),
(28,77,o),
(110,-10,o),
(257,-10,cs)
);
}
);
width = 600;
},
{
anchors = (
{
name = bottom;
pos = (260,0);
},
{
name = top;
pos = (347,550);
}
);
layerId = "CCC0BD40-BA8C-414E-B576-CF0B94E6C996";
shapes = (
{
closed = 1;
nodes = (
(385,-10,o),
(480,63,o),
(503,180,c),
(413,180,l),
(397,110,o),
(345,70,o),
(271,70,cs),
(192,70,o),
(153,117,o),
(166,200,cs),
(190,351,ls),
(203,433,o),
(257,480,o),
(336,480,cs),
(410,480,o),
(450,440,o),
(443,370,c),
(533,370,l),
(547,487,o),
(476,560,o),
(349,560,cs),
(216,560,o),
(120,481,o),
(99,350,cs),
(76,200,ls),
(55,69,o),
(125,-10,o),
(258,-10,cs)
);
}
);
visible = 1;
width = 600;
},
{
anchors = (
{
name = bottom;
pos = (258,0);
},
{
name = top;
pos = (345,550);
}
);
layerId = "EDF5EB54-295C-4C90-9A2F-67CD82979CFF";
shapes = (
{
closed = 1;
nodes = (
(377,-10,o),
(466,64,o),
(485,180,c),
(435,180,l),
(420,90,o),
(356,36,o),
(264,36,cs),
(173,36,o),
(126,94,o),
(141,190,cs),
(168,360,ls),
(183,457,o),
(248,514,o),
(339,514,cs),
(431,514,o),
(479,460,o),
(465,370,c),
(515,370,l),
(533,486,o),
(468,560,o),
(347,560,cs),
(227,560,o),
(137,481,o),
(118,360,cs),
(91,190,ls),
(72,68,o),
(135,-10,o),
(256,-10,cs)
);
}
);
width = 600;
}
);
unicode = 99;
},
{
glyphname = ccedilla;
layers = (
{
anchors = (
{
name = _bottom;
pos = (258,0);
}
);
layerId = "EDF5EB54-295C-4C90-9A2F-67CD82979CFF";
shapes = (
{
closed = 1;
nodes = (
(217,-195,ls),
(277,-195,o),
(323,-161,o),
(329,-118,cs),
(338,-61,o),
(279,-37,o),
(233,-34,c),
(265,26,l),
(223,26,l),
(174,-64,l),
(245,-64,o),
(288,-86,o),
(283,-118,cs),
(280,-140,o),
(255,-160,o),
(223,-160,cs),
(143,-160,l),
(137,-195,l)
);
},
{
ref = c;
}
);
width = 600;
},
{
anchors = (
{
name = _bottom;
pos = (260,0);
}
);
layerId = "CCC0BD40-BA8C-414E-B576-CF0B94E6C996";
shapes = (
{
closed = 1;
nodes = (
(218,-203,ls),
(290,-203,o),
(344,-166,o),
(351,-120,cs),
(359,-68,o),
(296,-41,o),
(244,-35,c),
(275,26,l),
(218,26,l),
(168,-69,l),
(235,-69,o),
(270,-89,o),
(266,-112,cs),
(263,-130,o),
(241,-148,o),
(212,-148,cs),
(142,-148,l),
(133,-203,l)
);
},
{
ref = c;
}
);
width = 600;
},
{
anchors = (
{
name = _bottom;
pos = (259,0);
}
);
layerId = "9ADF6715-3D0F-493D-8567-18A6FBCFC567";
shapes = (
{
closed = 1;
nodes = (
(223,-225,ls),
(307,-225,o),
(370,-182,o),
(378,-133,cs),
(388,-72,o),
(311,-43,o),
(251,-39,c),
(279,16,l),
(206,16,l),
(157,-69,l),
(230,-69,o),
(270,-88,o),
(265,-119,cs),
(263,-135,o),
(237,-155,o),
(204,-155,cs),
(124,-155,l),
(113,-225,l)
);
},
{
ref = c;
}
);
width = 600;
}
);
unicode = 231;
},
{
glyphname = d;
layers = (
{
layerId = "9ADF6715-3D0F-493D-8567-18A6FBCFC567";
shapes = (
{
closed = 1;
nodes = (
(288,-10,o),
(352,45,o),
(367,140,c),
(327,105,l),
(362,105,l),
(345,0,l),
(490,0,l),
(606,730,l),
(456,730,l),
(432,580,l),
(415,445,l),
(380,445,l),
(410,410,l),
(425,505,o),
(379,560,o),
(288,560,cs),
(177,560,o),
(91,476,o),
(71,345,cs),
(48,205,ls),
(28,73,o),
(86,-10,o),
(197,-10,cs)
);
},
{
closed = 1;
nodes = (
(216,120,o),
(190,152,o),
(199,210,cs),
(220,340,ls),
(229,397,o),
(265,430,o),
(321,430,cs),
(376,430,o),
(403,397,o),
(394,340,cs),
(373,210,ls),
(364,152,o),
(327,120,o),
(272,120,cs)
);
}
);
width = 600;
},
{
layerId = "CCC0BD40-BA8C-414E-B576-CF0B94E6C996";
shapes = (
{
closed = 1;
nodes = (
(314,-10,o),
(382,42,o),
(395,126,c),
(374,105,l),
(392,105,l),
(375,0,l),
(465,0,l),
(581,730,l),
(491,730,l),
(465,570,l),
(447,445,l),
(427,445,l),
(442,424,l),
(455,507,o),
(404,560,o),
(314,560,cs),
(203,560,o),
(121,482,o),
(101,355,cs),
(76,194,ls),
(56,68,o),
(113,-10,o),
(223,-10,cs)
);
},
{
closed = 1;
nodes = (
(190,68,o),
(153,115,o),
(167,200,cs),
(190,350,ls),
(204,435,o),
(255,482,o),
(331,482,cs),
(405,482,o),
(444,433,o),
(430,350,cs),
(407,200,ls),
(394,117,o),
(340,68,o),
(266,68,cs)
);
}
);
width = 600;
},
{
layerId = "EDF5EB54-295C-4C90-9A2F-67CD82979CFF";
shapes = (
{
closed = 1;
nodes = (
(337,-10,o),
(414,49,o),
(428,140,c),
(380,75,l),
(408,75,l),
(396,0,l),
(446,0,l),
(562,730,l),
(512,730,l),
(488,580,l),
(471,475,l),
(453,475,l),
(471,410,l),
(485,501,o),
(428,560,o),
(332,560,cs),
(222,560,o),
(137,480,o),
(118,360,cs),
(91,189,ls),
(72,69,o),
(131,-10,o),
(241,-10,cs)
);
},
{
closed = 1;
nodes = (
(169,33,o),
(125,91,o),
(141,189,cs),
(168,360,ls),
(184,458,o),
(246,517,o),
(335,517,cs),
(426,517,o),
(469,458,o),
(453,360,cs),
(426,189,ls),
(410,91,o),
(348,33,o),
(258,33,cs)
);
}
);
width = 600;
}
);
unicode = 100;
},
{
glyphname = eth;
layers = (
{
layerId = "9ADF6715-3D0F-493D-8567-18A6FBCFC567";
shapes = (
{
closed = 1;
nodes = (
(415,0,o),
(531,96,o),
(556,251,cs),
(569,337,o),
(546,429,o),
(480,537,cs),
(439,604,l),
(552,641,l),
(567,747,l),
(386,687,l),
(361,730,l),
(208,730,l),
(261,642,l),
(158,608,l),
(143,501,l),
(313,558,l),
(354,489,ls),
(400,412,o),
(408,380,o),
(406,375,c),
(400,375,l),
(386,410,o),
(340,456,o),
(271,456,cs),
(150,456,o),
(54,368,o),
(33,236,cs),
(11,94,o),
(99,0,o),
(256,0,cs)
);
},
{
closed = 1;
nodes = (
(209,125,o),
(173,168,o),
(183,235,cs),
(194,302,o),
(244,345,o),
(311,345,cs),
(377,345,o),
(414,301,o),
(403,235,cs),
(393,168,o),
(343,125,o),
(276,125,cs)
);
}
);
width = 600;
},
{
layerId = "CCC0BD40-BA8C-414E-B576-CF0B94E6C996";
shapes = (
{
closed = 1;
nodes = (
(392,-10,o),
(499,83,o),
(521,223,cs),
(535,308,o),
(515,410,o),
(466,493,cs),
(401,604,l),
(521,653,l),
(533,735,l),
(366,668,l),
(332,730,l),
(237,730,l),
(292,633,l),
(164,577,l),
(151,496,l),
(327,569,l),
(377,480,ls),
(405,430,o),
(421,393,o),
(425,380,c),
(411,380,l),
(400,404,o),
(364,436,o),
(306,436,cs),
(179,436,o),
(81,348,o),
(60,215,cs),
(39,80,o),
(116,-10,o),
(253,-10,cs)
);
},
{
closed = 1;
nodes = (
(183,70,o),
(136,128,o),
(150,215,cs),
(164,302,o),
(229,360,o),
(312,360,cs),
(397,360,o),
(444,302,o),
(430,215,cs),
(416,128,o),
(351,70,o),
(266,70,cs)
);
}
);
width = 600;
},
{
layerId = "EDF5EB54-295C-4C90-9A2F-67CD82979CFF";
shapes = (
{
closed = 1;
nodes = (
(388,-10,o),
(488,78,o),
(510,213,cs),
(524,302,o),
(499,403,o),
(433,517,cs),
(379,610,l),
(524,673,l),
(530,717,l),
(360,644,l),
(314,730,l),
(264,730,l),
(323,628,l),
(161,557,l),
(155,513,l),
(342,594,l),
(398,491,ls),
(437,419,o),
(453,366,o),
(456,347,c),
(453,347,l),
(437,385,o),
(388,436,o),
(315,436,cs),
(186,436,o),
(91,350,o),
(70,215,cs),
(49,79,o),
(121,-10,o),
(254,-10,cs)
);
},
{
closed = 1;
nodes = (
(161,40,o),
(108,108,o),
(125,215,cs),
(142,322,o),
(217,390,o),
(318,390,cs),
(413,390,o),
(471,318,o),
(455,216,cs),
(438,109,o),
(362,40,o),
(262,40,cs)
);
}
);
width = 600;
}
);
unicode = 240;
},
{
glyphname = dcaron;
layers = (
{
layerId = "9ADF6715-3D0F-493D-8567-18A6FBCFC567";
shapes = (
{
closed = 1;
nodes = (
(648,550,l),
(687,730,l),
(577,730,l),
(548,550,l)
);
},
{
closed = 1;
nodes = (
(234,-10,o),
(293,48,o),
(307,140,c),
(267,105,l),
(302,105,l),
(285,0,l),
(420,0,l),
(536,730,l),
(396,730,l),
(372,580,l),
(355,445,l),
(320,445,l),
(350,410,l),
(365,502,o),
(325,560,o),
(248,560,cs),
(148,560,o),
(72,479,o),
(52,351,cs),
(28,200,ls),
(7,71,o),
(57,-10,o),
(157,-10,cs)
);
},
{
closed = 1;
nodes = (
(182,110,o),
(159,145,o),
(168,205,cs),
(191,346,ls),
(200,405,o),
(235,440,o),
(283,440,cs),
(325,440,o),
(344,405,o),
(335,346,cs),
(312,205,ls),
(303,145,o),
(272,110,o),
(230,110,cs)
);
}
);
width = 600;
},
{
layerId = "CCC0BD40-BA8C-414E-B576-CF0B94E6C996";
shapes = (
{
closed = 1;
nodes = (
(633,550,l),
(672,730,l),
(582,730,l),
(553,550,l)
);
},
{
closed = 1;
nodes = (
(265,-10,o),
(326,43,o),
(339,126,c),
(318,105,l),
(336,105,l),
(319,0,l),
(409,0,l),
(525,730,l),
(435,730,l),
(409,570,l),
(391,445,l),
(371,445,l),
(386,424,l),
(399,507,o),
(356,560,o),
(273,560,cs),
(172,560,o),
(95,483,o),
(76,360,cs),
(49,189,ls),
(30,67,o),
(81,-10,o),
(182,-10,cs)
);
},
{
closed = 1;
nodes = (
(159,68,o),
(127,115,o),
(140,195,cs),
(165,355,ls),
(178,435,o),
(224,482,o),
(290,482,cs),
(356,482,o),
(388,435,o),
(375,355,cs),
(350,195,ls),
(337,115,o),
(291,68,o),
(225,68,cs)
);
}
);
width = 600;
},
{
layerId = "EDF5EB54-295C-4C90-9A2F-67CD82979CFF";
shapes = (
{
closed = 1;
nodes = (
(598,550,l),
(642,730,l),
(592,730,l),
(553,550,l)
);
},
{
closed = 1;
nodes = (
(310,-10,o),
(379,48,o),
(393,140,c),
(345,75,l),
(373,75,l),
(361,0,l),
(411,0,l),
(527,730,l),
(477,730,l),
(453,580,l),
(436,475,l),
(418,475,l),
(436,410,l),
(451,502,o),
(401,560,o),
(307,560,cs),
(202,560,o),
(122,483,o),
(103,360,cs),
(76,189,ls),
(57,67,o),
(111,-10,o),
(216,-10,cs)
);
},
{
closed = 1;
nodes = (
(152,33,o),
(111,93,o),
(126,189,cs),
(153,360,ls),
(168,456,o),
(229,517,o),
(310,517,cs),
(392,517,o),
(433,456,o),
(418,360,cs),
(391,189,ls),
(376,93,o),
(315,33,o),
(233,33,cs)
);
}
);
width = 600;
}
);
unicode = 271;
},
{
glyphname = dcroat;
layers = (
{
layerId = "9ADF6715-3D0F-493D-8567-18A6FBCFC567";
shapes = (
{
closed = 1;
nodes = (
(28,73,o),
(86,-10,o),
(197,-10,cs),
(276,-10,o),
(335,32,o),
(359,105,c),
(362,105,l),
(345,0,l),
(490,0,l),
(578,555,l),
(644,555,l),
(658,645,l),
(592,645,l),
(606,730,l),
(456,730,l),
(442,645,l),
(298,645,l),
(284,555,l),
(428,555,l),
(422,520,l),
(406,385,l),
(403,385,l),
(403,458,o),
(357,500,o),
(278,500,cs),
(167,500,o),
(82,416,o),
(61,285,cs),
(48,205,ls)
);
},
{
closed = 1;
nodes = (
(210,280,ls),
(219,337,o),
(256,370,o),
(312,370,cs),
(367,370,o),
(393,337,o),
(384,280,cs),
(373,210,ls),
(364,152,o),
(327,120,o),
(272,120,cs),
(216,120,o),
(190,152,o),
(199,210,cs)
);
}
);
width = 600;
},
{
layerId = "CCC0BD40-BA8C-414E-B576-CF0B94E6C996";
shapes = (
{
closed = 1;
nodes = (
(57,68,o),
(112,-10,o),
(222,-10,cs),
(306,-10,o),
(367,33,o),
(387,105,c),
(389,105,l),
(372,0,l),
(462,0,l),
(552,570,l),
(646,570,l),
(658,645,l),
(564,645,l),
(578,730,l),
(488,730,l),
(474,645,l),
(308,645,l),
(296,570,l),
(462,570,l),
(453,510,l),
(435,385,l),
(432,385,l),
(434,456,o),
(385,500,o),
(303,500,cs),
(192,500,o),
(113,422,o),
(93,295,cs),
(77,194,ls)
);
},
{
closed = 1;
nodes = (
(182,290,ls),
(195,375,o),
(245,422,o),
(321,422,cs),
(395,422,o),
(431,373,o),
(418,290,cs),
(404,200,ls),
(391,117,o),
(339,68,o),
(265,68,cs),
(189,68,o),
(154,115,o),
(168,200,cs)
);
}
);
width = 600;
},
{
layerId = "EDF5EB54-295C-4C90-9A2F-67CD82979CFF";
shapes = (
{
closed = 1;
nodes = (
(72,69,o),
(131,-10,o),
(241,-10,cs),
(312,-10,o),
(372,22,o),
(404,75,c),
(408,75,l),
(396,0,l),
(446,0,l),
(539,586,l),
(639,586,l),
(646,631,l),
(546,631,l),
(562,730,l),
(512,730,l),
(496,631,l),
(316,631,l),
(309,586,l),
(489,586,l),
(478,520,l),
(462,415,l),
(458,415,l),
(443,468,o),
(393,500,o),
(322,500,cs),
(212,500,o),
(128,420,o),
(109,300,cs),
(91,189,ls)
);
},
{
closed = 1;
nodes = (
(159,300,ls),
(174,398,o),
(236,457,o),
(325,457,cs),
(416,457,o),
(459,398,o),
(444,300,cs),
(426,189,ls),
(410,91,o),
(348,33,o),
(258,33,cs),
(169,33,o),
(125,91,o),
(141,189,cs)
);
}
);
width = 600;
}
);
unicode = 273;
},
{
glyphname = e;
layers = (
{
anchors = (
{
name = bottom;
pos = (256,0);
},
{
name = ogonek;
pos = (305,0);
},
{
name = top;
pos = (343,550);
}
);
layerId = "9ADF6715-3D0F-493D-8567-18A6FBCFC567";
shapes = (
{
closed = 1;
nodes = (
(374,-10,o),
(476,54,o),
(515,150,c),
(368,150,l),
(354,122,o),
(323,105,o),
(276,105,cs),
(209,105,o),
(181,141,o),
(192,210,cs),
(197,240,l),
(534,240,l),
(550,340,ls),
(571,472,o),
(492,560,o),
(346,560,cs),
(199,560,o),
(91,472,o),
(70,340,cs),
(49,210,ls),
(28,78,o),
(108,-10,o),
(255,-10,cs)
);
},
{
closed = 1;
nodes = (
(415,327,l),
(210,325,l),
(213,340,ls),
(224,408,o),
(262,447,o),
(328,447,cs),
(393,447,o),
(418,410,o),
(407,342,cs),
(403,317,l)
);
}
);
width = 600;
},
{
anchors = (
{
name = bottom;
pos = (256,0);
},
{
name = ogonek;
pos = (305,0);
},
{
name = top;
pos = (343,550);
}
);
layerId = "CCC0BD40-BA8C-414E-B576-CF0B94E6C996";
shapes = (
{
closed = 1;
nodes = (
(370,-10,o),
(462,48,o),
(488,140,c),
(398,140,l),
(380,91,o),
(335,66,o),
(266,66,cs),
(184,66,o),
(150,113,o),
(164,200,cs),
(172,253,l),
(508,253,l),
(523,350,ls),
(544,477,o),
(475,560,o),
(345,560,cs),
(215,560,o),
(120,477,o),
(99,350,cs),
(76,200,ls),
(56,73,o),
(124,-10,o),
(254,-10,cs)
);
},
{
closed = 1;
nodes = (
(438,321,l),
(183,321,l),
(187,350,ls),
(201,437,o),
(251,485,o),
(333,485,cs),
(415,485,o),
(449,437,o),
(435,350,cs),
(430,313,l)
);
}
);
width = 600;
},
{
anchors = (
{
name = bottom;
pos = (256,0);
},
{
name = ogonek;
pos = (305,0);
},
{
name = top;
pos = (343,550);
}
);
layerId = "EDF5EB54-295C-4C90-9A2F-67CD82979CFF";
shapes = (
{
closed = 1;
nodes = (
(358,-10,o),
(437,46,o),
(471,135,c),
(421,135,l),
(392,72,o),
(336,34,o),
(262,34,cs),
(169,34,o),
(126,94,o),
(141,190,cs),
(153,265,l),
(493,265,l),
(508,360,ls),
(527,481,o),
(467,560,o),
(346,560,cs),
(224,560,o),
(137,481,o),
(118,360,cs),
(91,190,ls),
(72,68,o),
(132,-10,o),
(255,-10,cs)
);
},
{
closed = 1;
nodes = (
(461,308,l),
(160,308,l),
(168,360,ls),
(183,457,o),
(245,516,o),
(339,516,cs),
(431,516,o),
(474,456,o),
(458,360,cs),
(448,299,l)
);
}
);
width = 600;
}
);
unicode = 101;
},
{
glyphname = eogonek;
layers = (
{
anchors = (
{
name = top;
pos = (343,550);
}
);
layerId = "9ADF6715-3D0F-493D-8567-18A6FBCFC567";
shapes = (
{
closed = 1;
nodes = (
(388,-225,l),
(405,-120,l),
(336,-120,ls),
(307,-120,o),
(293,-103,o),
(296,-83,cs),
(299,-66,o),
(317,-42,o),
(347,-18,cs),
(406,29,l),
(454,58,o),
(494,99,o),
(515,150,c),
(368,150,l),
(354,122,o),
(323,105,o),
(276,105,cs),
(209,105,o),
(181,141,o),
(192,210,cs),
(197,240,l),
(534,240,l),
(550,340,ls),
(571,472,o),
(492,560,o),
(346,560,cs),
(199,560,o),
(91,472,o),
(70,340,cs),
(49,210,ls),
(28,78,o),
(108,-10,o),
(255,-10,cs),
(290,-10,o),
(316,9,o),
(320,29,c),
(225,-19,o),
(174,-68,o),
(167,-115,cs),
(156,-180,o),
(199,-225,o),
(280,-225,cs)
);
},
{
closed = 1;
nodes = (
(415,327,l),
(210,325,l),
(213,340,ls),
(224,408,o),
(262,447,o),
(328,447,cs),
(393,447,o),
(418,410,o),
(407,342,cs),
(403,317,l)
);
}
);
width = 600;
},
{
anchors = (
{
name = top;
pos = (343,550);
}
);
layerId = "CCC0BD40-BA8C-414E-B576-CF0B94E6C996";
shapes = (
{
closed = 1;
nodes = (
(375,-203,l),
(384,-143,l),
(324,-143,ls),
(290,-143,o),
(273,-122,o),
(277,-93,cs),
(282,-65,o),
(305,-36,o),
(356,1,cs),
(374,14,l),
(430,39,o),
(472,83,o),
(488,140,c),
(398,140,l),
(380,91,o),
(335,66,o),
(266,66,cs),
(184,66,o),
(150,113,o),
(164,200,cs),
(172,253,l),
(508,253,l),
(523,350,ls),
(544,477,o),
(475,560,o),
(345,560,cs),
(215,560,o),
(120,477,o),
(99,350,cs),
(76,200,ls),
(56,73,o),
(124,-10,o),
(254,-10,cs),
(257,-10,o),
(261,-10,o),
(264,-10,c),
(220,-45,o),
(194,-80,o),
(190,-110,cs),
(181,-164,o),
(223,-203,o),
(297,-203,cs)
);
},
{
closed = 1;
nodes = (
(471,321,l),
(183,321,l),
(187,350,ls),
(201,437,o),
(251,485,o),
(333,485,cs),
(415,485,o),
(449,437,o),
(435,350,cs),
(425,281,l)
);
}
);
width = 600;
},
{
anchors = (
{
name = top;
pos = (343,550);
}
);
layerId = "EDF5EB54-295C-4C90-9A2F-67CD82979CFF";
shapes = (
{
closed = 1;
nodes = (
(374,-195,l),
(381,-153,l),
(317,-153,ls),
(285,-153,o),
(269,-134,o),
(274,-103,cs),
(278,-75,o),
(307,-36,o),
(351,0,cs),
(382,24,l),
(423,50,o),
(453,88,o),
(471,135,c),
(421,135,l),
(392,72,o),
(336,34,o),
(262,34,cs),
(169,34,o),
(126,94,o),
(141,190,cs),
(153,265,l),
(493,265,l),
(508,360,ls),
(527,481,o),
(467,560,o),
(346,560,cs),
(224,560,o),
(137,481,o),
(118,360,cs),
(91,190,ls),
(72,68,o),
(132,-10,o),
(255,-10,cs),
(272,-10,o),
(290,-8,o),
(305,-5,c),
(253,-48,o),
(230,-84,o),
(225,-115,cs),
(217,-165,o),
(246,-195,o),
(301,-195,cs)
);
},
{
closed = 1;
nodes = (
(472,308,l),
(160,308,l),
(168,360,ls),
(183,457,o),
(245,516,o),
(339,516,cs),
(431,516,o),
(473,456,o),
(458,360,cs),
(446,286,l)
);
}
);
width = 600;
}
);
unicode = 281;
},
{
glyphname = schwa;
layers = (
{
layerId = "9ADF6715-3D0F-493D-8567-18A6FBCFC567";
shapes = (
{
closed = 1;
nodes = (
(400,-10,o),
(508,78,o),
(529,210,cs),
(550,340,ls),
(571,472,o),
(491,560,o),
(344,560,cs),
(225,560,o),
(124,496,o),
(84,400,c),
(231,400,l),
(245,428,o),
(276,445,o),
(323,445,cs),
(390,445,o),
(418,409,o),
(407,340,cs),
(402,310,l),
(65,310,l),
(49,210,ls),
(28,78,o),
(107,-10,o),
(253,-10,cs)
);
},
{
closed = 1;
nodes = (
(207,105,o),
(181,142,o),
(192,210,cs),
(196,235,l),
(185,225,l),
(389,225,l),
(386,210,ls),
(375,142,o),
(338,105,o),
(272,105,cs)
);
}
);
width = 600;
},
{
layerId = "CCC0BD40-BA8C-414E-B576-CF0B94E6C996";
shapes = (
{
closed = 1;
nodes = (
(384,-10,o),
(478,73,o),
(498,200,cs),
(521,350,ls),
(542,477,o),
(475,560,o),
(345,560,cs),
(229,560,o),
(140,502,o),
(113,410,c),
(203,410,l),
(221,459,o),
(264,484,o),
(333,484,cs),
(415,484,o),
(447,437,o),
(433,350,cs),
(425,297,l),
(93,297,l),
(78,200,ls),
(58,73,o),
(124,-10,o),
(254,-10,cs)
);
},
{
closed = 1;
nodes = (
(184,65,o),
(152,113,o),
(166,200,cs),
(172,237,l),
(163,229,l),
(414,229,l),
(410,200,ls),
(396,113,o),
(348,65,o),
(266,65,cs)
);
}
);
width = 600;
},
{
layerId = "EDF5EB54-295C-4C90-9A2F-67CD82979CFF";
shapes = (
{
closed = 1;
nodes = (
(375,-10,o),
(462,69,o),
(481,190,cs),
(508,360,ls),
(527,482,o),
(467,560,o),
(344,560,cs),
(241,560,o),
(162,504,o),
(128,415,c),
(178,415,l),
(207,478,o),
(263,516,o),
(337,516,cs),
(430,516,o),
(473,456,o),
(458,360,cs),
(446,285,l),
(106,285,l),
(91,190,ls),
(72,69,o),
(132,-10,o),
(253,-10,cs)
);
},
{
closed = 1;
nodes = (
(168,34,o),
(126,94,o),
(141,190,cs),
(151,251,l),
(138,242,l),
(439,242,l),
(431,190,ls),
(416,93,o),
(354,34,o),
(260,34,cs)
);
}
);
width = 600;
}
);
unicode = 601;
},
{
glyphname = f;
layers = (
{
layerId = "CCC0BD40-BA8C-414E-B576-CF0B94E6C996";
shapes = (
{
closed = 1;
nodes = (
(73,-180,ls),
(181,-180,o),
(255,-119,o),
(271,-20,cs),
(342,413,l),
(556,413,l),
(569,495,l),
(355,495,l),
(367,570,ls),
(375,623,o),
(405,648,o),
(461,648,cs),
(587,648,l),
(600,730,l),
(475,730,ls),
(367,730,o),
(293,669,o),
(277,570,cs),
(265,495,l),
(94,495,l),
(81,413,l),
(252,413,l),
(181,-20,ls),
(172,-73,o),
(143,-98,o),
(87,-98,cs),
(13,-98,l),
(0,-180,l)
);
}
);
width = 600;
},
{
layerId = "EDF5EB54-295C-4C90-9A2F-67CD82979CFF";
shapes = (
{
closed = 1;
nodes = (
(98,-180,ls),
(179,-180,o),
(235,-133,o),
(248,-55,cs),
(331,449,l),
(550,449,l),
(557,494,l),
(338,494,l),
(356,605,ls),
(364,656,o),
(397,685,o),
(448,685,cs),
(587,685,l),
(595,730,l),
(456,730,ls),
(375,730,o),
(319,683,o),
(306,605,cs),
(288,494,l),
(104,494,l),
(97,449,l),
(281,449,l),
(198,-55,ls),
(190,-106,o),
(157,-135,o),
(106,-135,cs),
(8,-135,l),
(0,-180,l)
);
}
);
width = 600;
},
{
layerId = "9ADF6715-3D0F-493D-8567-18A6FBCFC567";
shapes = (
{
closed = 1;
nodes = (
(48,-180,ls),
(189,-180,o),
(289,-106,o),
(308,14,cs),
(362,350,l),
(557,350,l),
(579,485,l),
(384,485,l),
(395,555,ls),
(399,582,o),
(420,600,o),
(447,600,cs),
(579,600,l),
(600,730,l),
(463,730,ls),
(349,730,o),
(262,662,o),
(246,560,cs),
(234,485,l),
(82,485,l),
(60,350,l),
(212,350,l),
(159,19,ls),
(151,-31,o),
(115,-60,o),
(62,-60,cs),
(19,-60,l),
(0,-180,l)
);
}
);
width = 600;
}
);
unicode = 102;
},
{
glyphname = g;
layers = (
{
anchors = (
{
name = top;
pos = (340,550);
}
);
layerId = "CCC0BD40-BA8C-414E-B576-CF0B94E6C996";
shapes = (
{
closed = 1;
nodes = (
(264,-180,ls),
(372,-180,o),
(446,-119,o),
(462,-20,cs),
(552,550,l),
(463,550,l),
(446,445,l),
(429,445,l),
(444,430,l),
(457,510,o),
(407,560,o),
(318,560,cs),
(205,560,o),
(122,481,o),
(102,356,cs),
(84,240,ls),
(64,114,o),
(122,35,o),
(235,35,cs),
(324,35,o),
(389,85,o),
(402,165,c),
(383,150,l),
(401,150,l),
(383,50,l),
(372,-20,ls),
(363,-73,o),
(334,-98,o),
(278,-98,cs),
(103,-98,l),
(90,-180,l)
);
},
{
closed = 1;
nodes = (
(198,113,o),
(161,160,o),
(175,245,cs),
(191,350,ls),
(205,435,o),
(256,482,o),
(332,482,cs),
(406,482,o),
(445,433,o),
(431,350,cs),
(415,245,ls),
(402,162,o),
(348,113,o),
(274,113,cs)
);
}
);
width = 600;
},
{
anchors = (
{
name = top;
pos = (340,550);
}
);
layerId = "EDF5EB54-295C-4C90-9A2F-67CD82979CFF";
shapes = (
{
closed = 1;
nodes = (
(246,-180,ls),
(358,-180,o),
(427,-124,o),
(444,-15,cs),
(533,550,l),
(483,550,l),
(468,455,l),
(455,455,l),
(468,410,l),
(482,501,o),
(428,560,o),
(332,560,cs),
(222,560,o),
(137,480,o),
(118,360,cs),
(99,239,ls),
(80,119,o),
(139,40,o),
(249,40,cs),
(345,40,o),
(419,99,o),
(433,190,c),
(401,145,l),
(419,145,l),
(401,30,l),
(394,-15,ls),
(382,-94,o),
(333,-135,o),
(254,-135,cs),
(109,-135,l),
(101,-180,l)
);
},
{
closed = 1;
nodes = (
(177,83,o),
(134,141,o),
(149,239,cs),
(168,360,ls),
(183,458,o),
(246,517,o),
(335,517,cs),
(426,517,o),
(468,458,o),
(453,360,cs),
(434,239,ls),
(419,141,o),
(356,83,o),
(266,83,cs)
);
}
);
width = 600;
},
{
anchors = (
{
name = top;
pos = (340,550);
}
);
layerId = "9ADF6715-3D0F-493D-8567-18A6FBCFC567";
shapes = (
{
closed = 1;
nodes = (
(232,-180,ls),
(373,-180,o),
(473,-106,o),
(492,14,cs),
(577,550,l),
(427,550,l),
(415,445,l),
(380,445,l),
(410,410,l),
(425,505,o),
(379,560,o),
(288,560,cs),
(177,560,o),
(91,476,o),
(71,345,cs),
(55,245,ls),
(34,113,o),
(93,30,o),
(204,30,cs),
(295,30,o),
(358,85,o),
(374,180,c),
(333,145,l),
(368,145,l),
(349,40,l),
(346,19,ls),
(338,-31,o),
(302,-60,o),
(246,-60,cs),
(91,-60,l),
(72,-180,l)
);
},
{
closed = 1;
nodes = (
(222,160,o),
(196,192,o),
(206,250,cs),
(220,340,ls),
(229,397,o),
(265,430,o),
(321,430,cs),
(376,430,o),
(403,397,o),
(394,340,cs),
(380,250,ls),
(370,192,o),
(333,160,o),
(278,160,cs)
);
}
);
width = 600;
}
);
unicode = 103;
},
{
glyphname = h;
layers = (
{
layerId = "9ADF6715-3D0F-493D-8567-18A6FBCFC567";
shapes = (
{
closed = 1;
nodes = (
(172,0,l),
(226,340,ls),
(235,397,o),
(271,430,o),
(324,430,cs),
(378,430,o),
(405,397,o),
(396,340,cs),
(342,0,l),
(492,0,l),
(548,355,ls),
(568,479,o),
(511,560,o),
(404,560,cs),
(313,560,o),
(247,503,o),
(232,410,c),
(281,445,l),
(237,445,l),
(259,550,l),
(288,730,l),
(138,730,l),
(22,0,l)
);
}
);
width = 600;
},
{
layerId = "CCC0BD40-BA8C-414E-B576-CF0B94E6C996";
shapes = (
{
closed = 1;
nodes = (
(138,0,l),
(193,350,ls),
(207,435,o),
(261,484,o),
(336,484,cs),
(408,484,o),
(445,438,o),
(433,360,cs),
(376,0,l),
(466,0,l),
(525,370,ls),
(543,487,o),
(484,560,o),
(374,560,cs),
(282,560,o),
(219,510,o),
(205,424,c),
(227,445,l),
(208,445,l),
(225,550,l),
(254,730,l),
(164,730,l),
(48,0,l)
);
}
);
width = 600;
},
{
layerId = "EDF5EB54-295C-4C90-9A2F-67CD82979CFF";
shapes = (
{
closed = 1;
nodes = (
(116,0,l),
(173,360,ls),
(188,457,o),
(253,517,o),
(341,517,cs),
(427,517,o),
(471,459,o),
(455,360,cs),
(398,0,l),
(448,0,l),
(506,367,ls),
(525,485,o),
(466,560,o),
(358,560,cs),
(262,560,o),
(188,501,o),
(174,410,c),
(213,470,l),
(190,470,l),
(208,580,l),
(232,730,l),
(182,730,l),
(66,0,l)
);
}
);
width = 600;
}
);
unicode = 104;
},
{
glyphname = idotless;
layers = (
{
anchors = (
{
name = bottom;
pos = (276,0);
},
{
name = ogonek;
pos = (290,0);
},
{
name = top;
pos = (363,550);
}
);
layerId = "9ADF6715-3D0F-493D-8567-18A6FBCFC567";
shapes = (
{
closed = 1;
nodes = (
(516,0,l),
(538,136,l),
(378,136,l),
(443,550,l),
(138,550,l),
(117,415,l),
(282,415,l),
(238,136,l),
(48,136,l),
(26,0,l)
);
}
);
width = 600;
},
{
anchors = (
{
name = bottom;
pos = (271,0);
},
{
name = ogonek;
pos = (290,0);
},
{
name = top;
pos = (358,550);
}
);
layerId = "CCC0BD40-BA8C-414E-B576-CF0B94E6C996";
shapes = (
{
closed = 1;
nodes = (
(506,0,l),
(519,82,l),
(334,82,l),
(408,550,l),
(148,550,l),
(135,468,l),
(305,468,l),
(244,82,l),
(49,82,l),
(36,0,l)
);
}
);
width = 600;
},
{
anchors = (
{
name = bottom;
pos = (271,0);
},
{
name = ogonek;
pos = (290,0);
},
{
name = top;
pos = (358,550);
}
);
layerId = "EDF5EB54-295C-4C90-9A2F-67CD82979CFF";
shapes = (
{
closed = 1;
nodes = (
(491,0,l),
(498,45,l),
(309,45,l),
(389,550,l),
(163,550,l),
(156,505,l),
(332,505,l),
(259,45,l),
(58,45,l),
(51,0,l)
);
}
);
width = 600;
}
);
unicode = 305;
},
{
glyphname = iogonek;
layers = (
{
layerId = "EDF5EB54-295C-4C90-9A2F-67CD82979CFF";
shapes = (
{
closed = 1;
nodes = (
(315,-195,l),
(322,-153,l),
(258,-153,ls),
(226,-153,o),
(210,-134,o),
(215,-103,cs),
(219,-75,o),
(248,-36,o),
(292,0,cs),
(305,10,l),
(268,10,l),
(211,-27,o),
(172,-74,o),
(166,-115,cs),
(158,-165,o),
(187,-195,o),
(242,-195,c)
);
},
{
ref = idotless;
},
{
pos = (614,0);
ref = dotaccentcomb;
}
);
width = 600;
},
{
layerId = "CCC0BD40-BA8C-414E-B576-CF0B94E6C996";
shapes = (
{
closed = 1;
nodes = (
(324,-203,l),
(333,-143,l),
(273,-143,ls),
(239,-143,o),
(222,-122,o),
(226,-93,cs),
(231,-65,o),
(254,-36,o),
(305,1,c),
(318,10,l),
(243,10,l),
(173,-34,o),
(145,-72,o),
(139,-110,cs),
(130,-164,o),
(172,-203,o),
(246,-203,cs)
);
},
{
ref = idotless;
},
{
pos = (615,0);
ref = dotaccentcomb;
}
);
width = 600;
},
{
layerId = "9ADF6715-3D0F-493D-8567-18A6FBCFC567";
shapes = (
{
closed = 1;
nodes = (
(344,-225,l),
(361,-120,l),
(292,-120,ls),
(263,-120,o),
(249,-103,o),
(252,-83,cs),
(255,-66,o),
(273,-42,o),
(303,-18,cs),
(340,11,l),
(254,11,l),
(181,-19,o),
(130,-68,o),
(123,-115,cs),
(112,-180,o),
(155,-225,o),
(236,-225,cs)
);
},
{
ref = idotless;
},
{
pos = (620,0);
ref = dotaccentcomb;
}
);
width = 600;
}
);
unicode = 303;
},
{
glyphname = jdotless;
layers = (
{
anchors = (
{
name = top;
pos = (438,550);
}
);
layerId = "9ADF6715-3D0F-493D-8567-18A6FBCFC567";
shapes = (
{
closed = 1;
nodes = (
(178,-180,ls),
(316,-180,o),
(416,-96,o),
(437,40,cs),
(518,550,l),
(153,550,l),
(131,410,l),
(346,410,l),
(288,45,ls),
(280,-9,o),
(244,-40,o),
(190,-40,cs),
(30,-40,l),
(7,-180,l)
);
}
);
width = 600;
},
{
anchors = (
{
name = top;
pos = (428,550);
}
);
layerId = "CCC0BD40-BA8C-414E-B576-CF0B94E6C996";
shapes = (
{
closed = 1;
nodes = (
(141,-180,ls),
(276,-180,o),
(375,-98,o),
(396,31,cs),
(478,550,l),
(158,550,l),
(145,468,l),
(375,468,l),
(306,31,ls),
(293,-51,o),
(238,-97,o),
(155,-97,cs),
(26,-97,l),
(12,-180,l)
);
}
);
width = 600;
},
{
anchors = (
{
name = top;
pos = (437,550);
}
);
layerId = "EDF5EB54-295C-4C90-9A2F-67CD82979CFF";
shapes = (
{
closed = 1;
nodes = (
(157,-180,ls),
(279,-180,o),
(363,-109,o),
(382,10,cs),
(467,550,l),
(167,550,l),
(160,505,l),
(410,505,l),
(332,10,ls),
(317,-84,o),
(259,-135,o),
(165,-135,cs),
(30,-135,l),
(22,-180,l)
);
}
);
width = 600;
}
);
unicode = 567;
},
{
glyphname = k;
layers = (
{
anchors = (
{
name = bottom;
pos = (256,0);
},
{
name = top;
pos = (372,730);
}
);
layerId = "CCC0BD40-BA8C-414E-B576-CF0B94E6C996";
shapes = (
{
closed = 1;
nodes = (
(141,0,l),
(180,245,l),
(279,245,l),
(400,0,l),
(503,0,l),
(361,285,l),
(587,550,l),
(482,550,l),
(286,323,l),
(192,323,l),
(257,730,l),
(167,730,l),
(51,0,l)
);
}
);
width = 600;
},
{
anchors = (
{
name = bottom;
pos = (256,0);
},
{
name = top;
pos = (372,730);
}
);
layerId = "EDF5EB54-295C-4C90-9A2F-67CD82979CFF";
shapes = (
{
closed = 1;
nodes = (
(119,0,l),
(161,264,l),
(294,264,l),
(429,0,l),
(487,0,l),
(339,283,l),
(570,550,l),
(509,550,l),
(299,309,l),
(168,309,l),
(235,730,l),
(185,730,l),
(69,0,l)
);
}
);
width = 600;
},
{
anchors = (
{
name = bottom;
pos = (256,0);
},
{
name = top;
pos = (372,730);
}
);
layerId = "9ADF6715-3D0F-493D-8567-18A6FBCFC567";
shapes = (
{
closed = 1;
nodes = (
(175,0,l),
(209,216,l),
(287,216,l),
(371,0,l),
(534,0,l),
(420,274,l),
(618,550,l),
(448,550,l),
(300,342,l),
(229,342,l),
(291,730,l),
(141,730,l),
(25,0,l)
);
}
);
width = 600;
}
);
unicode = 107;
},
{
glyphname = l;
layers = (
{
anchors = (
{
name = bottom;
pos = (280,0);
},
{
name = top;
pos = (342,730);
}
);
layerId = "9ADF6715-3D0F-493D-8567-18A6FBCFC567";
shapes = (
{
closed = 1;
nodes = (
(521,0,l),
(542,135,l),
(382,135,ls),
(346,135,o),
(326,159,o),
(332,195,cs),
(417,730,l),
(97,730,l),
(75,595,l),
(245,595,l),
(182,195,ls),
(164,78,o),
(229,0,o),
(346,0,cs)
);
}
);
width = 600;
},
{
anchors = (
{
name = bottom;
pos = (240,0);
},
{
name = top;
pos = (312,730);
}
);
layerId = "CCC0BD40-BA8C-414E-B576-CF0B94E6C996";
shapes = (
{
closed = 1;
nodes = (
(506,0,l),
(519,82,l),
(334,82,ls),
(291,82,o),
(269,110,o),
(276,155,cs),
(367,730,l),
(112,730,l),
(99,648,l),
(264,648,l),
(186,155,ls),
(171,61,o),
(224,0,o),
(321,0,cs)
);
}
);
width = 600;
},
{
anchors = (
{
name = bottom;
pos = (240,0);
},
{
name = top;
pos = (312,730);
}
);
layerId = "EDF5EB54-295C-4C90-9A2F-67CD82979CFF";
shapes = (
{
closed = 1;
nodes = (
(496,0,l),
(503,45,l),
(328,45,ls),
(269,45,o),
(243,76,o),
(252,135,cs),
(347,730,l),
(122,730,l),
(114,685,l),
(289,685,l),
(202,135,ls),
(188,48,o),
(231,0,o),
(321,0,cs)
);
}
);
width = 600;
}
);
unicode = 108;
},
{
glyphname = lambdastroke;
layers = (
{
layerId = "EDF5EB54-295C-4C90-9A2F-67CD82979CFF";
shapes = (
{
closed = 1;
nodes = (
(534,692,l),
(542,740,l),
(132,550,l),
(124,502,l)
);
},
{
ref = lambda;
}
);
width = 600;
},
{
layerId = "CCC0BD40-BA8C-414E-B576-CF0B94E6C996";
shapes = (
{
closed = 1;
nodes = (
(529,660,l),
(542,740,l),
(132,550,l),
(119,470,l)
);
},
{
ref = lambda;
}
);
width = 600;
},
{
layerId = "9ADF6715-3D0F-493D-8567-18A6FBCFC567";
shapes = (
{
closed = 1;
nodes = (
(525,635,l),
(542,740,l),
(132,550,l),
(115,445,l)
);
},
{
ref = lambda;
}
);
width = 600;
}
);
unicode = 411;
},
{
glyphname = lslash;
layers = (
{
layerId = "9ADF6715-3D0F-493D-8567-18A6FBCFC567";
shapes = (
{
closed = 1;
nodes = (
(480,420,l),
(480,560,l),
(100,370,l),
(100,230,l)
);
},
{
alignment = -1;
ref = l;
}
);
width = 600;
},
{
layerId = "CCC0BD40-BA8C-414E-B576-CF0B94E6C996";
shapes = (
{
closed = 1;
nodes = (
(470,480,l),
(470,560,l),
(100,310,l),
(100,230,l)
);
},
{
alignment = -1;
ref = l;
}
);
width = 600;
},
{
layerId = "EDF5EB54-295C-4C90-9A2F-67CD82979CFF";
shapes = (
{
closed = 1;
nodes = (
(470,495,l),
(470,550,l),
(100,295,l),
(100,240,l)
);
},
{
alignment = -1;
ref = l;
}
);
width = 600;
}
);
unicode = 322;
},
{
glyphname = m;
layers = (
{
layerId = "9ADF6715-3D0F-493D-8567-18A6FBCFC567";
shapes = (
{
closed = 1;
nodes = (
(127,0,l),
(190,403,ls),
(195,434,o),
(212,451,o),
(237,451,cs),
(262,451,o),
(273,434,o),
(268,403,cs),
(205,0,l),
(308,0,l),
(371,403,ls),
(376,434,o),
(393,451,o),
(418,451,cs),
(443,451,o),
(454,434,o),
(449,403,cs),
(386,0,l),
(515,0,l),
(581,420,ls),
(594,502,o),
(556,560,o),
(491,560,cs),
(435,560,o),
(389,517,o),
(379,456,c),
(390,470,l),
(362,470,l),
(375,440,l),
(386,510,o),
(355,560,o),
(299,560,cs),
(246,560,o),
(203,517,o),
(193,456,c),
(214,470,l),
(190,470,l),
(203,550,l),
(85,550,l),
(-2,0,l)
);
}
);
width = 600;
},
{
layerId = "CCC0BD40-BA8C-414E-B576-CF0B94E6C996";
shapes = (
{
closed = 1;
nodes = (
(105,0,l),
(171,420,ls),
(178,465,o),
(201,491,o),
(238,491,cs),
(275,491,o),
(293,465,o),
(286,419,cs),
(220,0,l),
(292,0,l),
(358,420,ls),
(365,465,o),
(391,491,o),
(427,491,cs),
(464,491,o),
(480,464,o),
(473,419,cs),
(407,0,l),
(490,0,l),
(556,418,ls),
(569,503,o),
(538,560,o),
(469,560,cs),
(413,560,o),
(370,521,o),
(361,460,c),
(383,484,l),
(341,484,l),
(360,430,l),
(373,513,o),
(345,560,o),
(284,560,cs),
(228,560,o),
(187,521,o),
(178,460,c),
(195,484,l),
(177,484,l),
(188,550,l),
(109,550,l),
(22,0,l)
);
}
);
width = 600;
},
{
layerId = "EDF5EB54-295C-4C90-9A2F-67CD82979CFF";
shapes = (
{
closed = 1;
nodes = (
(84,0,l),
(151,425,ls),
(163,482,o),
(199,518,o),
(243,518,cs),
(287,518,o),
(308,482,o),
(299,425,cs),
(232,0,l),
(280,0,l),
(347,425,ls),
(356,481,o),
(392,518,o),
(439,518,cs),
(483,518,o),
(504,482,o),
(495,425,cs),
(428,0,l),
(477,0,l),
(545,431,ls),
(558,511,o),
(527,560,o),
(461,560,cs),
(402,560,o),
(361,521,o),
(353,461,c),
(357,475,l),
(349,475,l),
(351,461,l),
(353,524,o),
(322,560,o),
(265,560,cs),
(206,560,o),
(164,521,o),
(156,461,c),
(160,475,l),
(154,475,l),
(166,550,l),
(122,550,l),
(35,0,l)
);
}
);
width = 600;
}
);
unicode = 109;
},
{
glyphname = n;
layers = (
{
anchors = (
{
name = bottom;
pos = (256,0);
},
{
name = top;
pos = (344,550);
}
);
layerId = "9ADF6715-3D0F-493D-8567-18A6FBCFC567";
shapes = (
{
closed = 1;
nodes = (
(172,0,l),
(226,340,ls),
(235,397,o),
(271,430,o),
(324,430,cs),
(378,430,o),
(405,397,o),
(396,340,cs),
(342,0,l),
(492,0,l),
(548,355,ls),
(568,479,o),
(511,560,o),
(404,560,cs),
(313,560,o),
(247,503,o),
(232,410,c),
(281,445,l),
(237,445,l),
(254,550,l),
(109,550,l),
(22,0,l)
);
}
);
width = 600;
},
{
anchors = (
{
name = bottom;
pos = (256,0);
},
{
name = top;
pos = (344,550);
}
);
layerId = "EDF5EB54-295C-4C90-9A2F-67CD82979CFF";
shapes = (
{
closed = 1;
nodes = (
(116,0,l),
(173,360,ls),
(188,457,o),
(253,517,o),
(341,517,cs),
(427,517,o),
(471,459,o),
(455,360,cs),
(398,0,l),
(448,0,l),
(506,367,ls),
(525,485,o),
(466,560,o),
(358,560,cs),
(260,560,o),
(188,499,o),
(173,404,c),
(211,455,l),
(188,455,l),
(203,550,l),
(153,550,l),
(66,0,l)
);
}
);
width = 600;
},
{
anchors = (
{
name = bottom;
pos = (256,0);
},
{
name = top;
pos = (344,550);
}
);
layerId = "CCC0BD40-BA8C-414E-B576-CF0B94E6C996";
shapes = (
{
closed = 1;
nodes = (
(138,0,l),
(193,350,ls),
(207,435,o),
(261,484,o),
(336,484,cs),
(408,484,o),
(445,438,o),
(433,360,cs),
(376,0,l),
(466,0,l),
(525,370,ls),
(543,487,o),
(484,560,o),
(374,560,cs),
(282,560,o),
(219,510,o),
(205,424,c),
(227,445,l),
(208,445,l),
(225,550,l),
(135,550,l),
(48,0,l)
);
}
);
width = 600;
}
);
unicode = 110;
},
{
glyphname = eng;
layers = (
{
layerId = "9ADF6715-3D0F-493D-8567-18A6FBCFC567";
shapes = (
{
closed = 1;
nodes = (
(223,-180,ls),
(364,-180,o),
(477,-96,o),
(496,25,cs),
(548,355,ls),
(568,479,o),
(511,560,o),
(404,560,cs),
(313,560,o),
(247,503,o),
(232,410,c),
(281,445,l),
(237,445,l),
(254,550,l),
(109,550,l),
(22,0,l),
(172,0,l),
(226,340,ls),
(235,397,o),
(271,430,o),
(324,430,cs),
(378,430,o),
(405,397,o),
(396,340,cs),
(348,41,ls),
(341,-7,o),
(307,-35,o),
(256,-35,cs),
(196,-35,l),
(173,-180,l)
);
}
);
width = 600;
},
{
layerId = "CCC0BD40-BA8C-414E-B576-CF0B94E6C996";
shapes = (
{
closed = 1;
nodes = (
(230,-180,ls),
(354,-180,o),
(448,-103,o),
(466,15,cs),
(523,370,ls),
(541,487,o),
(484,560,o),
(374,560,cs),
(282,560,o),
(221,510,o),
(207,424,c),
(229,445,l),
(210,445,l),
(227,550,l),
(137,550,l),
(50,0,l),
(140,0,l),
(195,350,ls),
(209,435,o),
(261,484,o),
(336,484,cs),
(408,484,o),
(443,438,o),
(431,360,cs),
(376,15,ls),
(365,-55,o),
(314,-98,o),
(243,-98,cs),
(180,-98,l),
(167,-180,l)
);
}
);
width = 600;
},
{
layerId = "EDF5EB54-295C-4C90-9A2F-67CD82979CFF";
shapes = (
{
closed = 1;
nodes = (
(213,-180,ls),
(338,-180,o),
(432,-104,o),
(450,15,cs),
(506,367,ls),
(525,485,o),
(466,560,o),
(358,560,cs),
(260,560,o),
(188,499,o),
(173,404,c),
(211,455,l),
(188,455,l),
(203,550,l),
(153,550,l),
(66,0,l),
(116,0,l),
(173,360,ls),
(188,457,o),
(253,517,o),
(341,517,cs),
(427,517,o),
(471,459,o),
(455,360,cs),
(400,15,ls),
(386,-78,o),
(317,-135,o),
(221,-135,cs),
(180,-135,l),
(172,-180,l)
);
}
);
width = 600;
}
);
unicode = 331;
},
{
glyphname = o;
layers = (
{
anchors = (
{
name = bottom;
pos = (256,0);
},
{
name = center;
pos = (300,275);
},
{
name = horn;
pos = (363,550);
},
{
name = ogonek;
pos = (305,0);
},
{
name = top;
pos = (343,550);
},
{
name = topright;
pos = (624,550);
}
);
layerId = "9ADF6715-3D0F-493D-8567-18A6FBCFC567";
shapes = (
{
closed = 1;
nodes = (
(401,-10,o),
(508,78,o),
(529,210,cs),
(550,340,ls),
(571,472,o),
(492,560,o),
(345,560,cs),
(198,560,o),
(91,472,o),
(70,340,cs),
(49,210,ls),
(28,78,o),
(107,-10,o),
(254,-10,cs)
);
},
{
closed = 1;
nodes = (
(217,120,o),
(190,152,o),
(199,210,cs),
(220,340,ls),
(229,398,o),
(266,430,o),
(324,430,cs),
(382,430,o),
(409,398,o),
(400,340,cs),
(379,210,ls),
(370,152,o),
(333,120,o),
(275,120,cs)
);
}
);
width = 600;
},
{
anchors = (
{
name = bottom;
pos = (256,0);
},
{
name = center;
pos = (300,275);
},
{
name = horn;
pos = (375,550);
},
{
name = ogonek;
pos = (305,0);
},
{
name = top;
pos = (343,550);
},
{
name = topright;
pos = (624,550);
}
);
layerId = "CCC0BD40-BA8C-414E-B576-CF0B94E6C996";
shapes = (
{
closed = 1;
nodes = (
(385,-10,o),
(479,69,o),
(500,200,cs),
(524,351,ls),
(544,481,o),
(476,560,o),
(345,560,cs),
(214,560,o),
(120,481,o),
(99,350,cs),
(76,200,ls),
(55,69,o),
(123,-10,o),
(254,-10,cs)
);
},
{
closed = 1;
nodes = (
(189,70,o),
(152,115,o),
(166,200,cs),
(189,350,ls),
(203,435,o),
(254,480,o),
(332,480,cs),
(410,480,o),
(447,435,o),
(433,350,cs),
(410,200,ls),
(396,115,o),
(345,70,o),
(267,70,cs)
);
}
);
visible = 1;
width = 600;
},
{
anchors = (
{
name = bottom;
pos = (256,0);
},
{
name = center;
pos = (300,275);
},
{
name = horn;
pos = (363,550);
},
{
name = ogonek;
pos = (305,0);
},
{
name = top;
pos = (343,550);
},
{
name = topright;
pos = (624,550);
}
);
layerId = "EDF5EB54-295C-4C90-9A2F-67CD82979CFF";
shapes = (
{
closed = 1;
nodes = (
(373,-10,o),
(462,68,o),
(481,190,cs),
(508,360,ls),
(527,481,o),
(463,560,o),
(345,560,cs),
(227,560,o),
(137,481,o),
(118,360,cs),
(91,190,ls),
(72,68,o),
(136,-10,o),
(254,-10,cs)
);
},
{
closed = 1;
nodes = (
(169,34,o),
(125,91,o),
(141,190,cs),
(168,360,ls),
(184,458,o),
(247,516,o),
(338,516,cs),
(429,516,o),
(474,458,o),
(458,360,cs),
(431,190,ls),
(415,91,o),
(353,34,o),
(261,34,cs)
);
}
);
width = 600;
}
);
unicode = 111;
},
{
glyphname = ohorn;
layers = (
{
anchors = (
{
name = top;
pos = (340,550);
}
);
layerId = "EDF5EB54-295C-4C90-9A2F-67CD82979CFF";
shapes = (
{
closed = 1;
nodes = (
(475,495,ls),
(526,495,o),
(565,529,o),
(573,580,cs),
(583,640,l),
(543,640,l),
(533,580,ls),
(528,550,o),
(508,530,o),
(481,530,cs),
(446,530,l),
(440,495,l)
);
},
{
ref = o;
}
);
width = 600;
},
{
anchors = (
{
name = top;
pos = (333,550);
}
);
layerId = "CCC0BD40-BA8C-414E-B576-CF0B94E6C996";
shapes = (
{
closed = 1;
nodes = (
(465,465,ls),
(528,465,o),
(576,503,o),
(585,560,cs),
(597,640,l),
(522,640,l),
(510,565,ls),
(507,542,o),
(493,530,o),
(470,530,cs),
(436,530,l),
(426,465,l)
);
},
{
ref = o;
}
);
width = 600;
},
{
anchors = (
{
name = top;
pos = (333,550);
}
);
layerId = "9ADF6715-3D0F-493D-8567-18A6FBCFC567";
shapes = (
{
closed = 1;
nodes = (
(459,430,ls),
(546,430,o),
(613,484,o),
(625,565,cs),
(637,640,l),
(517,640,l),
(505,565,ls),
(502,543,o),
(487,530,o),
(465,530,cs),
(405,530,l),
(389,430,l)
);
},
{
ref = o;
}
);
width = 600;
}
);
unicode = 417;
},
{
glyphname = oogonek;
layers = (
{
anchors = (
{
name = horn;
pos = (363,550);
},
{
name = top;
pos = (343,550);
}
);
layerId = "9ADF6715-3D0F-493D-8567-18A6FBCFC567";
shapes = (
{
closed = 1;
nodes = (
(387,-225,l),
(404,-120,l),
(335,-120,ls),
(306,-120,o),
(292,-103,o),
(295,-83,cs),
(298,-66,o),
(316,-41,o),
(346,-18,cs),
(410,31,l),
(470,70,o),
(517,135,o),
(529,210,cs),
(550,340,ls),
(571,472,o),
(492,560,o),
(345,560,cs),
(198,560,o),
(91,472,o),
(70,340,cs),
(49,210,ls),
(28,78,o),
(107,-10,o),
(254,-10,cs),
(275,-10,o),
(321,12,o),
(324,31,c),
(224,-19,o),
(173,-68,o),
(166,-115,cs),
(155,-180,o),
(198,-225,o),
(279,-225,cs)
);
},
{
closed = 1;
nodes = (
(217,120,o),
(190,152,o),
(199,210,cs),
(220,340,ls),
(229,398,o),
(266,430,o),
(324,430,cs),
(382,430,o),
(409,398,o),
(400,340,cs),
(379,210,ls),
(370,152,o),
(333,120,o),
(275,120,cs)
);
}
);
width = 600;
},
{
anchors = (
{
name = horn;
pos = (375,550);
},
{
name = top;
pos = (343,550);
}
);
layerId = "CCC0BD40-BA8C-414E-B576-CF0B94E6C996";
shapes = (
{
closed = 1;
nodes = (
(374,-203,l),
(383,-143,l),
(323,-143,ls),
(289,-143,o),
(272,-122,o),
(276,-93,cs),
(281,-65,o),
(304,-36,o),
(355,1,cs),
(382,21,l),
(445,55,o),
(487,117,o),
(500,200,cs),
(524,351,ls),
(544,481,o),
(476,560,o),
(345,560,cs),
(214,560,o),
(120,481,o),
(99,350,cs),
(76,200,ls),
(55,69,o),
(123,-10,o),
(254,-10,cs),
(257,-10,o),
(260,-10,o),
(263,-10,c),
(211,-51,o),
(193,-81,o),
(189,-110,cs),
(180,-164,o),
(222,-203,o),
(296,-203,cs)
);
},
{
closed = 1;
nodes = (
(189,70,o),
(152,115,o),
(166,200,cs),
(189,350,ls),
(203,435,o),
(254,480,o),
(332,480,cs),
(410,480,o),
(447,435,o),
(433,350,cs),
(410,200,ls),
(396,115,o),
(345,70,o),
(267,70,cs)
);
}
);
width = 600;
},
{
anchors = (
{
name = horn;
pos = (363,550);
},
{
name = top;
pos = (343,550);
}
);
layerId = "EDF5EB54-295C-4C90-9A2F-67CD82979CFF";
shapes = (
{
closed = 1;
nodes = (
(371,-195,l),
(378,-153,l),
(314,-153,ls),
(282,-153,o),
(266,-134,o),
(271,-103,cs),
(275,-75,o),
(304,-36,o),
(348,0,cs),
(379,25,l),
(432,59,o),
(469,116,o),
(481,190,cs),
(508,360,ls),
(527,481,o),
(463,560,o),
(345,560,cs),
(227,560,o),
(137,481,o),
(118,360,cs),
(91,190,ls),
(72,68,o),
(136,-10,o),
(254,-10,cs),
(270,-10,o),
(287,-9,o),
(301,-6,c),
(252,-47,o),
(227,-83,o),
(222,-115,cs),
(214,-165,o),
(243,-195,o),
(298,-195,cs)
);
},
{
closed = 1;
nodes = (
(169,34,o),
(125,91,o),
(141,190,cs),
(168,360,ls),
(184,458,o),
(247,516,o),
(338,516,cs),
(429,516,o),
(474,458,o),
(458,360,cs),
(431,190,ls),
(415,91,o),
(353,34,o),
(261,34,cs)
);
}
);
width = 600;
}
);
unicode = 491;
},
{
glyphname = oslash;
layers = (
{
anchors = (
{
name = bottom;
pos = (256,0);
},
{
name = horn;
pos = (363,550);
},
{
name = top;
pos = (343,550);
}
);
layerId = "9ADF6715-3D0F-493D-8567-18A6FBCFC567";
shapes = (
{
closed = 1;
nodes = (
(91,-30,l),
(624,590,l),
(509,590,l),
(-24,-30,l)
);
},
{
closed = 1;
nodes = (
(401,-10,o),
(508,78,o),
(529,210,cs),
(550,340,ls),
(571,472,o),
(492,560,o),
(345,560,cs),
(198,560,o),
(91,472,o),
(70,340,cs),
(49,210,ls),
(28,78,o),
(107,-10,o),
(254,-10,cs)
);
},
{
closed = 1;
nodes = (
(212,120,o),
(180,154,o),
(189,210,cs),
(210,340,ls),
(219,396,o),
(261,430,o),
(324,430,cs),
(387,430,o),
(419,396,o),
(410,340,cs),
(389,210,ls),
(380,154,o),
(338,120,o),
(275,120,cs)
);
}
);
width = 600;
},
{
anchors = (
{
name = bottom;
pos = (256,0);
},
{
name = horn;
pos = (375,550);
},
{
name = top;
pos = (343,550);
}
);
layerId = "CCC0BD40-BA8C-414E-B576-CF0B94E6C996";
shapes = (
{
closed = 1;
nodes = (
(78,-30,l),
(614,590,l),
(521,590,l),
(-14,-30,l)
);
},
{
closed = 1;
nodes = (
(385,-10,o),
(479,69,o),
(500,200,cs),
(524,351,ls),
(545,481,o),
(476,560,o),
(345,560,cs),
(214,560,o),
(119,481,o),
(99,350,cs),
(76,200,ls),
(56,69,o),
(123,-10,o),
(254,-10,cs)
);
},
{
closed = 1;
nodes = (
(187,70,o),
(148,118,o),
(161,200,cs),
(184,350,ls),
(197,432,o),
(252,480,o),
(332,480,cs),
(412,480,o),
(451,432,o),
(438,350,cs),
(415,200,ls),
(402,118,o),
(347,70,o),
(267,70,cs)
);
}
);
width = 600;
},
{
anchors = (
{
name = bottom;
pos = (256,0);
},
{
name = horn;
pos = (363,550);
},
{
name = top;
pos = (343,550);
}
);
layerId = "EDF5EB54-295C-4C90-9A2F-67CD82979CFF";
shapes = (
{
closed = 1;
nodes = (
(61,-30,l),
(590,590,l),
(539,590,l),
(10,-30,l)
);
},
{
closed = 1;
nodes = (
(373,-10,o),
(462,68,o),
(481,190,cs),
(508,360,ls),
(527,481,o),
(463,560,o),
(345,560,cs),
(227,560,o),
(137,481,o),
(118,360,cs),
(91,190,ls),
(72,68,o),
(136,-10,o),
(254,-10,cs)
);
},
{
closed = 1;
nodes = (
(169,34,o),
(125,91,o),
(141,190,cs),
(168,360,ls),
(184,458,o),
(247,516,o),
(338,516,cs),
(429,516,o),
(474,458,o),
(458,360,cs),
(431,190,ls),
(415,91,o),
(353,34,o),
(261,34,cs)
);
}
);
width = 600;
}
);
unicode = 248;
},
{
glyphname = oe;
layers = (
{
layerId = "9ADF6715-3D0F-493D-8567-18A6FBCFC567";
shapes = (
{
closed = 1;
nodes = (
(208,-10,o),
(251,33,o),
(262,65,c),
(270,65,l),
(270,33,o),
(297,-10,o),
(374,-10,cs),
(461,-10,o),
(529,50,o),
(543,140,c),
(428,140,l),
(423,106,o),
(403,87,o),
(374,87,cs),
(345,87,o),
(330,107,o),
(335,140,cs),
(353,250,l),
(561,250,l),
(586,410,ls),
(600,500,o),
(552,560,o),
(465,560,cs),
(388,560,o),
(347,517,o),
(337,485,c),
(329,485,l),
(328,517,o),
(299,560,o),
(225,560,cs),
(138,560,o),
(70,500,o),
(56,410,cs),
(13,140,ls),
(-1,50,o),
(47,-10,o),
(134,-10,cs)
);
},
{
closed = 1;
nodes = (
(138,87,o),
(123,107,o),
(128,140,cs),
(171,410,ls),
(176,443,o),
(197,463,o),
(226,463,cs),
(255,463,o),
(269,444,o),
(264,410,cs),
(221,140,ls),
(216,106,o),
(196,87,o),
(167,87,cs)
);
},
{
closed = 1;
nodes = (
(378,410,ls),
(383,443,o),
(403,463,o),
(433,463,cs),
(462,463,o),
(476,444,o),
(471,410,cs),
(458,330,l),
(365,330,l)
);
}
);
width = 600;
},
{
layerId = "CCC0BD40-BA8C-414E-B576-CF0B94E6C996";
shapes = (
{
closed = 1;
nodes = (
(214,-10,o),
(257,36,o),
(265,70,c),
(269,70,l),
(267,36,o),
(294,-10,o),
(374,-10,cs),
(448,-10,o),
(512,42,o),
(538,125,c),
(453,125,l),
(441,90,o),
(411,67,o),
(377,67,cs),
(336,67,o),
(315,99,o),
(323,150,cs),
(339,250,l),
(561,250,l),
(584,400,ls),
(600,498,o),
(554,560,o),
(465,560,cs),
(385,560,o),
(342,514,o),
(334,480,c),
(330,480,l),
(332,514,o),
(305,560,o),
(225,560,cs),
(136,560,o),
(70,498,o),
(54,400,cs),
(15,150,ls),
(-1,52,o),
(45,-10,o),
(134,-10,cs)
);
},
{
closed = 1;
nodes = (
(114,67,o),
(92,99,o),
(100,150,cs),
(139,400,ls),
(147,451,o),
(179,483,o),
(222,483,cs),
(263,483,o),
(284,451,o),
(276,400,cs),
(237,150,ls),
(229,99,o),
(198,67,o),
(157,67,cs)
);
},
{
closed = 1;
nodes = (
(362,400,ls),
(370,451,o),
(401,483,o),
(442,483,cs),
(485,483,o),
(507,451,o),
(499,400,cs),
(487,323,l),
(350,323,l)
);
}
);
width = 600;
},
{
layerId = "EDF5EB54-295C-4C90-9A2F-67CD82979CFF";
shapes = (
{
closed = 1;
nodes = (
(209,-10,o),
(256,38,o),
(269,75,c),
(272,75,l),
(273,38,o),
(303,-10,o),
(380,-10,cs),
(461,-10,o),
(527,43,o),
(547,125,c),
(497,125,l),
(483,71,o),
(438,34,o),
(384,34,cs),
(327,34,o),
(295,77,o),
(305,140,cs),
(324,260,l),
(562,260,l),
(586,410,ls),
(600,501,o),
(555,560,o),
(468,560,cs),
(397,560,o),
(350,511,o),
(335,474,c),
(333,474,l),
(332,511,o),
(302,560,o),
(225,560,cs),
(137,560,o),
(70,500,o),
(56,408,cs),
(13,139,ls),
(-1,48,o),
(43,-10,o),
(128,-10,cs)
);
},
{
closed = 1;
nodes = (
(86,34,o),
(54,76,o),
(64,139,cs),
(107,408,ls),
(117,473,o),
(163,516,o),
(221,516,cs),
(278,516,o),
(309,473,o),
(299,410,cs),
(256,140,ls),
(246,77,o),
(201,34,o),
(144,34,cs)
);
},
{
closed = 1;
nodes = (
(348,410,ls),
(358,473,o),
(402,516,o),
(458,516,cs),
(515,516,o),
(546,473,o),
(536,410,cs),
(520,310,l),
(332,310,l)
);
}
);
width = 600;
}
);
unicode = 339;
},
{
glyphname = p;
layers = (
{
layerId = "9ADF6715-3D0F-493D-8567-18A6FBCFC567";
shapes = (
{
closed = 1;
nodes = (
(143,-180,l),
(167,-30,l),
(184,105,l),
(219,105,l),
(189,140,l),
(174,45,o),
(220,-10,o),
(311,-10,cs),
(422,-10,o),
(508,74,o),
(528,205,cs),
(551,345,ls),
(571,476,o),
(513,560,o),
(402,560,cs),
(311,560,o),
(247,505,o),
(232,410,c),
(272,445,l),
(237,445,l),
(254,550,l),
(109,550,l),
(-7,-180,l)
);
},
{
closed = 1;
nodes = (
(223,120,o),
(196,153,o),
(205,210,cs),
(226,340,ls),
(235,397,o),
(272,430,o),
(327,430,cs),
(383,430,o),
(409,398,o),
(400,340,cs),
(379,210,ls),
(370,152,o),
(334,120,o),
(278,120,cs)
);
}
);
width = 600;
},
{
layerId = "EDF5EB54-295C-4C90-9A2F-67CD82979CFF";
shapes = (
{
closed = 1;
nodes = (
(87,-180,l),
(116,0,l),
(128,75,l),
(146,75,l),
(128,140,l),
(114,50,o),
(170,-10,o),
(267,-10,cs),
(376,-10,o),
(462,70,o),
(481,190,cs),
(508,361,ls),
(527,481,o),
(468,560,o),
(358,560,cs),
(260,560,o),
(185,500,o),
(171,410,c),
(219,475,l),
(191,475,l),
(203,550,l),
(153,550,l),
(37,-180,l)
);
},
{
closed = 1;
nodes = (
(174,33,o),
(130,91,o),
(146,190,cs),
(173,361,ls),
(189,459,o),
(251,517,o),
(341,517,cs),
(430,517,o),
(474,459,o),
(458,361,cs),
(431,190,ls),
(415,91,o),
(353,33,o),
(264,33,cs)
);
}
);
width = 600;
},
{
layerId = "CCC0BD40-BA8C-414E-B576-CF0B94E6C996";
shapes = (
{
closed = 1;
nodes = (
(109,-180,l),
(135,-20,l),
(153,105,l),
(173,105,l),
(158,126,l),
(145,43,o),
(197,-10,o),
(287,-10,cs),
(398,-10,o),
(479,68,o),
(499,195,cs),
(524,356,ls),
(544,482,o),
(488,560,o),
(378,560,cs),
(287,560,o),
(218,508,o),
(205,424,c),
(226,445,l),
(208,445,l),
(225,550,l),
(135,550,l),
(19,-180,l)
);
},
{
closed = 1;
nodes = (
(196,68,o),
(157,117,o),
(170,200,cs),
(193,350,ls),
(207,433,o),
(261,482,o),
(335,482,cs),
(411,482,o),
(447,435,o),
(433,350,cs),
(410,200,ls),
(396,115,o),
(346,68,o),
(270,68,cs)
);
}
);
width = 600;
}
);
unicode = 112;
},
{
glyphname = thorn;
layers = (
{
layerId = "9ADF6715-3D0F-493D-8567-18A6FBCFC567";
shapes = (
{
closed = 1;
nodes = (
(138,-180,l),
(175,50,l),
(30,50,l),
(-7,-180,l)
);
},
{
alignment = -1;
ref = b;
}
);
width = 600;
},
{
layerId = "CCC0BD40-BA8C-414E-B576-CF0B94E6C996";
shapes = (
{
closed = 1;
nodes = (
(104,-180,l),
(142,59,l),
(52,59,l),
(14,-180,l)
);
},
{
alignment = -1;
pos = (-5,0);
ref = b;
}
);
width = 600;
},
{
layerId = "EDF5EB54-295C-4C90-9A2F-67CD82979CFF";
shapes = (
{
closed = 1;
nodes = (
(88,-180,l),
(126,59,l),
(76,59,l),
(38,-180,l)
);
},
{
alignment = -1;
ref = b;
}
);
width = 600;
}
);
unicode = 254;
},
{
glyphname = q;
layers = (
{
layerId = "9ADF6715-3D0F-493D-8567-18A6FBCFC567";
shapes = (
{
closed = 1;
nodes = (
(461,-180,l),
(577,550,l),
(432,550,l),
(415,445,l),
(380,445,l),
(408,410,l),
(423,505,o),
(379,560,o),
(288,560,cs),
(177,560,o),
(91,476,o),
(71,345,cs),
(48,205,ls),
(28,74,o),
(86,-10,o),
(197,-10,cs),
(288,-10,o),
(350,45,o),
(365,140,c),
(327,105,l),
(362,105,l),
(335,-30,l),
(311,-180,l)
);
},
{
closed = 1;
nodes = (
(216,120,o),
(190,152,o),
(199,210,cs),
(220,340,ls),
(229,398,o),
(265,430,o),
(321,430,cs),
(376,430,o),
(403,397,o),
(394,340,cs),
(373,210,ls),
(364,153,o),
(327,120,o),
(272,120,cs)
);
}
);
width = 600;
},
{
layerId = "CCC0BD40-BA8C-414E-B576-CF0B94E6C996";
shapes = (
{
closed = 1;
nodes = (
(435,-180,l),
(551,550,l),
(461,550,l),
(444,445,l),
(426,445,l),
(441,424,l),
(454,508,o),
(404,560,o),
(313,560,cs),
(203,560,o),
(120,482,o),
(100,356,cs),
(75,195,ls),
(55,68,o),
(111,-10,o),
(222,-10,cs),
(312,-10,o),
(381,43,o),
(394,126,c),
(373,105,l),
(393,105,l),
(371,-20,l),
(345,-180,l)
);
},
{
closed = 1;
nodes = (
(189,68,o),
(152,115,o),
(166,200,cs),
(189,350,ls),
(203,435,o),
(254,482,o),
(330,482,cs),
(404,482,o),
(443,433,o),
(429,350,cs),
(406,200,ls),
(393,117,o),
(339,68,o),
(265,68,cs)
);
}
);
width = 600;
},
{
layerId = "EDF5EB54-295C-4C90-9A2F-67CD82979CFF";
shapes = (
{
closed = 1;
nodes = (
(417,-180,l),
(533,550,l),
(483,550,l),
(471,475,l),
(443,475,l),
(471,410,l),
(485,501,o),
(428,560,o),
(332,560,cs),
(222,560,o),
(137,481,o),
(118,361,cs),
(91,190,ls),
(72,70,o),
(131,-10,o),
(241,-10,cs),
(337,-10,o),
(414,49,o),
(428,140,c),
(390,75,l),
(408,75,l),
(391,-30,l),
(367,-180,l)
);
},
{
closed = 1;
nodes = (
(169,33,o),
(126,92,o),
(141,190,cs),
(168,361,ls),
(184,459,o),
(246,517,o),
(335,517,cs),
(425,517,o),
(469,459,o),
(453,361,cs),
(426,190,ls),
(411,92,o),
(349,33,o),
(258,33,cs)
);
}
);
width = 600;
}
);
unicode = 113;
},
{
glyphname = r;
layers = (
{
anchors = (
{
name = bottom;
pos = (91,0);
},
{
name = top;
pos = (363,550);
}
);
layerId = "CCC0BD40-BA8C-414E-B576-CF0B94E6C996";
shapes = (
{
closed = 1;
nodes = (
(157,0,l),
(212,350,ls),
(226,435,o),
(280,484,o),
(356,484,cs),
(433,484,o),
(469,436,o),
(455,350,cs),
(451,325,l),
(541,325,l),
(547,358,ls),
(566,482,o),
(505,560,o),
(389,560,cs),
(288,560,o),
(226,499,o),
(207,380,c),
(246,445,l),
(225,445,l),
(242,550,l),
(154,550,l),
(67,0,l)
);
}
);
width = 600;
},
{
anchors = (
{
name = bottom;
pos = (91,0);
},
{
name = top;
pos = (363,550);
}
);
layerId = "EDF5EB54-295C-4C90-9A2F-67CD82979CFF";
shapes = (
{
closed = 1;
nodes = (
(133,0,l),
(190,360,ls),
(206,459,o),
(268,517,o),
(358,517,cs),
(448,517,o),
(492,459,o),
(476,360,cs),
(471,330,l),
(526,330,l),
(531,360,ls),
(550,483,o),
(490,560,o),
(373,560,cs),
(274,560,o),
(206,504,o),
(191,410,c),
(230,475,l),
(208,475,l),
(220,550,l),
(170,550,l),
(83,0,l)
);
}
);
width = 600;
},
{
anchors = (
{
name = bottom;
pos = (91,0);
},
{
name = top;
pos = (363,550);
}
);
layerId = "9ADF6715-3D0F-493D-8567-18A6FBCFC567";
shapes = (
{
closed = 1;
nodes = (
(188,0,l),
(242,340,ls),
(251,400,o),
(288,435,o),
(345,435,cs),
(400,435,o),
(429,400,o),
(420,340,cs),
(414,305,l),
(574,305,l),
(581,350,ls),
(602,483,o),
(544,560,o),
(423,560,cs),
(318,560,o),
(252,499,o),
(233,381,c),
(286,445,l),
(248,445,l),
(265,550,l),
(125,550,l),
(38,0,l)
);
}
);
width = 600;
}
);
unicode = 114;
},
{
glyphname = s;
layers = (
{
anchors = (
{
name = bottom;
pos = (255,0);
},
{
name = top;
pos = (345,550);
}
);
layerId = "9ADF6715-3D0F-493D-8567-18A6FBCFC567";
shapes = (
{
closed = 1;
nodes = (
(275,-10,ls),
(425,-10,o),
(514,52,o),
(532,164,cs),
(548,267,o),
(488,311,o),
(352,329,cs),
(284,338,ls),
(239,344,o),
(224,362,o),
(229,393,cs),
(234,426,o),
(258,443,o),
(308,443,cs),
(346,443,ls),
(389,443,o),
(414,425,o),
(410,398,c),
(560,398,l),
(576,496,o),
(499,560,o),
(365,560,cs),
(327,560,ls),
(186,560,o),
(101,499,o),
(84,392,cs),
(68,290,o),
(123,249,o),
(257,232,cs),
(320,224,ls),
(372,217,o),
(392,197,o),
(387,164,cs),
(381,128,o),
(349,107,o),
(294,107,cs),
(250,107,ls),
(204,107,o),
(176,128,o),
(181,160,c),
(31,160,l),
(15,58,o),
(95,-10,o),
(231,-10,cs)
);
}
);
width = 600;
},
{
anchors = (
{
name = bottom;
pos = (257,0);
},
{
name = top;
pos = (344,550);
}
);
layerId = "CCC0BD40-BA8C-414E-B576-CF0B94E6C996";
shapes = (
{
closed = 1;
nodes = (
(274,-10,ls),
(404,-10,o),
(479,53,o),
(496,155,cs),
(511,251,o),
(465,296,o),
(350,315,cs),
(278,327,ls),
(222,336,o),
(201,357,o),
(208,402,cs),
(216,452,o),
(250,480,o),
(318,480,cs),
(356,480,ls),
(410,480,o),
(439,456,o),
(442,421,c),
(532,421,l),
(532,505,o),
(474,560,o),
(369,560,cs),
(331,560,ls),
(206,560,o),
(133,501,o),
(118,403,cs),
(103,310,o),
(149,265,o),
(254,248,cs),
(326,236,ls),
(385,226,o),
(412,198,o),
(405,151,cs),
(397,103,o),
(358,70,o),
(287,70,cs),
(245,70,ls),
(186,70,o),
(154,96,o),
(152,135,c),
(62,135,l),
(58,47,o),
(119,-10,o),
(232,-10,cs)
);
}
);
width = 600;
},
{
anchors = (
{
name = bottom;
pos = (261,0);
},
{
name = top;
pos = (347,550);
}
);
layerId = "EDF5EB54-295C-4C90-9A2F-67CD82979CFF";
shapes = (
{
closed = 1;
nodes = (
(293,-10,ls),
(397,-10,o),
(472,48,o),
(487,140,cs),
(500,224,o),
(456,285,o),
(372,297,cs),
(270,312,ls),
(201,322,o),
(172,355,o),
(180,412,cs),
(189,475,o),
(245,515,o),
(320,515,cs),
(362,515,ls),
(432,515,o),
(475,477,o),
(474,425,c),
(524,425,l),
(527,506,o),
(469,560,o),
(369,560,cs),
(327,560,ls),
(221,560,o),
(144,502,o),
(129,411,cs),
(116,330,o),
(163,278,o),
(254,265,cs),
(358,250,ls),
(415,242,o),
(445,197,o),
(436,140,cs),
(426,76,o),
(374,35,o),
(301,35,cs),
(234,35,ls),
(165,35,o),
(121,77,o),
(120,135,c),
(70,135,l),
(66,50,o),
(126,-10,o),
(226,-10,cs)
);
}
);
width = 600;
}
);
unicode = 115;
},
{
glyphname = scedilla;
layers = (
{
layerId = "EDF5EB54-295C-4C90-9A2F-67CD82979CFF";
shapes = (
{
closed = 1;
nodes = (
(265,-195,ls),
(325,-195,o),
(370,-161,o),
(377,-118,cs),
(386,-61,o),
(327,-37,o),
(280,-34,c),
(313,26,l),
(271,26,l),
(222,-64,l),
(293,-64,o),
(336,-86,o),
(331,-118,cs),
(328,-140,o),
(303,-160,o),
(271,-160,cs),
(191,-160,l),
(185,-195,l)
);
},
{
ref = s;
}
);
width = 600;
},
{
layerId = "CCC0BD40-BA8C-414E-B576-CF0B94E6C996";
shapes = (
{
closed = 1;
nodes = (
(300,-203,ls),
(372,-203,o),
(420,-166,o),
(420,-120,cs),
(420,-68,o),
(352,-41,o),
(300,-35,c),
(321,26,l),
(264,26,l),
(229,-69,l),
(296,-69,o),
(334,-89,o),
(334,-112,cs),
(334,-130,o),
(314,-148,o),
(285,-148,cs),
(215,-148,l),
(215,-203,l)
);
},
{
ref = s;
}
);
width = 600;
},
{
layerId = "9ADF6715-3D0F-493D-8567-18A6FBCFC567";
shapes = (
{
closed = 1;
nodes = (
(310,-225,ls),
(394,-225,o),
(450,-182,o),
(450,-133,cs),
(450,-72,o),
(369,-43,o),
(308,-39,c),
(327,16,l),
(254,16,l),
(219,-69,l),
(292,-69,o),
(335,-88,o),
(335,-119,cs),
(335,-135,o),
(313,-155,o),
(280,-155,cs),
(200,-155,l),
(200,-225,l)
);
},
{
ref = s;
}
);
width = 600;
}
);
unicode = 351;
},
{
glyphname = germandbls;
layers = (
{
layerId = "9ADF6715-3D0F-493D-8567-18A6FBCFC567";
shapes = (
{
closed = 1;
nodes = (
(-107,-180,ls),
(34,-180,o),
(134,-106,o),
(153,14,cs),
(233,516,ls),
(243,577,o),
(287,615,o),
(348,615,cs),
(410,615,o),
(443,577,o),
(434,517,cs),
(425,462,o),
(385,428,o),
(329,428,cs),
(284,428,l),
(266,318,l),
(313,318,ls),
(376,318,o),
(410,281,o),
(400,221,cs),
(390,161,o),
(347,125,o),
(283,125,cs),
(236,125,l),
(216,0,l),
(268,0,ls),
(417,0,o),
(529,84,o),
(549,209,cs),
(567,322,o),
(494,397,o),
(369,395,c),
(366,380,l),
(491,380,o),
(573,440,o),
(589,545,cs),
(608,662,o),
(520,740,o),
(381,740,cs),
(227,740,o),
(119,650,o),
(98,516,cs),
(19,19,ls),
(11,-29,o),
(-32,-60,o),
(-93,-60,cs),
(-113,-60,l),
(-132,-180,l)
);
}
);
width = 600;
},
{
layerId = "CCC0BD40-BA8C-414E-B576-CF0B94E6C996";
shapes = (
{
closed = 1;
nodes = (
(-63,-180,ls),
(45,-180,o),
(119,-119,o),
(135,-20,cs),
(223,534,ls),
(235,611,o),
(289,658,o),
(363,658,cs),
(436,658,o),
(475,613,o),
(463,536,cs),
(452,465,o),
(398,413,o),
(324,413,cs),
(282,413,l),
(270,335,l),
(314,335,ls),
(395,335,o),
(437,288,o),
(424,211,cs),
(412,134,o),
(354,82,o),
(274,82,cs),
(218,82,l),
(205,0,l),
(271,0,ls),
(400,0,o),
(500,86,o),
(519,208,cs),
(537,325,o),
(474,400,o),
(359,398,c),
(357,383,l),
(463,381,o),
(544,453,o),
(560,554,cs),
(579,674,o),
(504,740,o),
(376,740,cs),
(248,740,o),
(153,658,o),
(133,534,cs),
(45,-20,ls),
(37,-73,o),
(7,-98,o),
(-49,-98,cs),
(-119,-98,l),
(-132,-180,l)
);
}
);
width = 600;
},
{
layerId = "EDF5EB54-295C-4C90-9A2F-67CD82979CFF";
shapes = (
{
closed = 1;
nodes = (
(-43,-180,ls),
(38,-180,o),
(95,-133,o),
(107,-55,cs),
(202,543,ls),
(217,635,o),
(283,695,o),
(371,695,cs),
(463,695,o),
(507,637,o),
(492,545,cs),
(478,457,o),
(413,397,o),
(324,397,cs),
(284,397,l),
(277,352,l),
(317,352,ls),
(422,352,o),
(468,297,o),
(453,200,cs),
(437,102,o),
(373,45,o),
(268,45,cs),
(206,45,l),
(199,0,l),
(261,0,ls),
(393,0,o),
(484,80,o),
(504,208,cs),
(521,314,o),
(464,380,o),
(356,380,c),
(355,370,l),
(449,370,o),
(526,444,o),
(543,550,cs),
(561,666,o),
(500,740,o),
(378,740,cs),
(261,740,o),
(171,661,o),
(152,543,cs),
(57,-55,ls),
(49,-106,o),
(16,-135,o),
(-35,-135,cs),
(-124,-135,l),
(-132,-180,l)
);
}
);
width = 600;
}
);
unicode = 223;
},
{
glyphname = longs;
layers = (
{
layerId = "9ADF6715-3D0F-493D-8567-18A6FBCFC567";
shapes = (
{
closed = 1;
nodes = (
(43,-180,ls),
(184,-180,o),
(284,-106,o),
(303,14,c),
(389,555,l),
(393,582,o),
(414,600,o),
(441,600,cs),
(597,600,l),
(618,730,l),
(457,730,ls),
(343,730,o),
(256,662,o),
(240,560,c),
(154,19,l),
(146,-31,o),
(110,-60,o),
(57,-60,cs),
(-41,-60,l),
(-60,-180,l)
);
}
);
width = 600;
},
{
layerId = "CCC0BD40-BA8C-414E-B576-CF0B94E6C996";
shapes = (
{
closed = 1;
nodes = (
(65,-180,ls),
(173,-180,o),
(248,-119,o),
(263,-20,c),
(356,570,l),
(364,623,o),
(394,648,o),
(450,648,cs),
(625,648,l),
(638,730,l),
(464,730,ls),
(356,730,o),
(281,669,o),
(266,570,c),
(173,-20,l),
(165,-73,o),
(135,-98,o),
(79,-98,cs),
(-34,-98,l),
(-47,-180,l)
);
}
);
width = 600;
},
{
layerId = "EDF5EB54-295C-4C90-9A2F-67CD82979CFF";
shapes = (
{
closed = 1;
nodes = (
(87,-180,ls),
(168,-180,o),
(225,-133,o),
(237,-55,c),
(342,605,l),
(350,656,o),
(383,685,o),
(434,685,cs),
(587,685,l),
(595,730,l),
(442,730,ls),
(361,730,o),
(305,683,o),
(292,605,c),
(187,-55,l),
(179,-106,o),
(146,-135,o),
(95,-135,cs),
(-18,-135,l),
(-26,-180,l)
);
}
);
width = 600;
}
);
unicode = 383;
},
{
glyphname = t;
layers = (
{
anchors = (
{
name = bottom;
pos = (316,0);
}
);
layerId = "9ADF6715-3D0F-493D-8567-18A6FBCFC567";
shapes = (
{
closed = 1;
nodes = (
(481,0,l),
(502,135,l),
(352,135,ls),
(323,135,o),
(310,151,o),
(315,180,cs),
(352,415,l),
(557,415,l),
(578,550,l),
(373,550,l),
(397,700,l),
(247,700,l),
(223,550,l),
(78,550,l),
(57,415,l),
(202,415,l),
(165,180,ls),
(147,68,o),
(204,0,o),
(316,0,cs)
);
}
);
width = 600;
},
{
anchors = (
{
name = bottom;
pos = (316,0);
}
);
layerId = "CCC0BD40-BA8C-414E-B576-CF0B94E6C996";
shapes = (
{
closed = 1;
nodes = (
(466,0,l),
(479,82,l),
(329,82,ls),
(288,82,o),
(272,102,o),
(279,145,cs),
(330,468,l),
(550,468,l),
(563,550,l),
(343,550,l),
(367,700,l),
(277,700,l),
(253,550,l),
(98,550,l),
(85,468,l),
(240,468,l),
(189,145,ls),
(174,53,o),
(221,0,o),
(316,0,cs)
);
}
);
width = 600;
},
{
anchors = (
{
name = bottom;
pos = (316,0);
}
);
layerId = "EDF5EB54-295C-4C90-9A2F-67CD82979CFF";
shapes = (
{
closed = 1;
nodes = (
(451,0,l),
(458,45,l),
(323,45,ls),
(271,45,o),
(248,73,o),
(256,125,cs),
(316,505,l),
(541,505,l),
(548,550,l),
(323,550,l),
(347,700,l),
(297,700,l),
(273,550,l),
(113,550,l),
(106,505,l),
(266,505,l),
(206,125,ls),
(193,44,o),
(232,0,o),
(316,0,cs)
);
}
);
width = 600;
}
);
unicode = 116;
},
{
glyphname = tbar;
layers = (
{
layerId = "9ADF6715-3D0F-493D-8567-18A6FBCFC567";
shapes = (
{
closed = 1;
nodes = (
(481,220,l),
(499,335,l),
(79,335,l),
(61,220,l)
);
},
{
alignment = -1;
ref = t;
}
);
width = 600;
},
{
layerId = "CCC0BD40-BA8C-414E-B576-CF0B94E6C996";
shapes = (
{
closed = 1;
nodes = (
(469,239,l),
(481,314,l),
(91,314,l),
(79,239,l)
);
},
{
alignment = -1;
ref = t;
}
);
width = 600;
},
{
layerId = "EDF5EB54-295C-4C90-9A2F-67CD82979CFF";
shapes = (
{
closed = 1;
nodes = (
(462,261,l),
(469,304,l),
(98,304,l),
(91,261,l)
);
},
{
ref = t;
}
);
width = 600;
}
);
unicode = 359;
},
{
glyphname = tcaron;
layers = (
{
layerId = "9ADF6715-3D0F-493D-8567-18A6FBCFC567";
shapes = (
{
closed = 1;
nodes = (
(548,620,l),
(663,775,l),
(535,775,l),
(430,620,l)
);
},
{
alignment = -1;
ref = t;
}
);
width = 600;
},
{
layerId = "CCC0BD40-BA8C-414E-B576-CF0B94E6C996";
shapes = (
{
closed = 1;
nodes = (
(509,620,l),
(634,776,l),
(538,776,l),
(423,620,l)
);
},
{
alignment = -1;
ref = t;
}
);
width = 600;
},
{
layerId = "EDF5EB54-295C-4C90-9A2F-67CD82979CFF";
shapes = (
{
closed = 1;
nodes = (
(491,620,l),
(616,776,l),
(547,776,l),
(442,620,l)
);
},
{
alignment = -1;
ref = t;
}
);
width = 600;
}
);
unicode = 357;
},
{
glyphname = tcedilla;
layers = (
{
anchors = (
{
name = _bottom;
pos = (360,0);
}
);
layerId = "EDF5EB54-295C-4C90-9A2F-67CD82979CFF";
shapes = (
{
closed = 1;
nodes = (
(350,-195,ls),
(410,-195,o),
(450,-161,o),
(450,-118,cs),
(450,-61,o),
(387,-37,o),
(340,-34,c),
(363,26,l),
(321,26,l),
(286,-64,l),
(357,-64,o),
(404,-86,o),
(404,-118,cs),
(404,-140,o),
(382,-160,o),
(350,-160,cs),
(270,-160,l),
(270,-195,l)
);
},
{
ref = t;
}
);
width = 600;
},
{
anchors = (
{
name = _bottom;
pos = (360,0);
}
);
layerId = "CCC0BD40-BA8C-414E-B576-CF0B94E6C996";
shapes = (
{
closed = 1;
nodes = (
(350,-203,ls),
(422,-203,o),
(470,-166,o),
(470,-120,cs),
(470,-68,o),
(402,-41,o),
(350,-35,c),
(371,26,l),
(314,26,l),
(279,-69,l),
(346,-69,o),
(384,-89,o),
(384,-112,cs),
(384,-130,o),
(364,-148,o),
(335,-148,cs),
(265,-148,l),
(265,-203,l)
);
},
{
ref = t;
}
);
width = 600;
},
{
anchors = (
{
name = _bottom;
pos = (360,0);
}
);
layerId = "9ADF6715-3D0F-493D-8567-18A6FBCFC567";
shapes = (
{
closed = 1;
nodes = (
(360,-225,ls),
(444,-225,o),
(500,-182,o),
(500,-133,cs),
(500,-72,o),
(419,-43,o),
(358,-39,c),
(377,16,l),
(304,16,l),
(269,-69,l),
(342,-69,o),
(385,-88,o),
(385,-119,cs),
(385,-135,o),
(363,-155,o),
(330,-155,cs),
(250,-155,l),
(250,-225,l)
);
},
{
ref = t;
}
);
width = 600;
}
);
unicode = 355;
},
{
glyphname = u;
layers = (
{
anchors = (
{
name = bottom;
pos = (256,0);
},
{
name = horn;
pos = (453,550);
},
{
name = ogonek;
pos = (305,0);
},
{
name = top;
pos = (343,550);
},
{
name = topright;
pos = (624,550);
}
);
layerId = "EDF5EB54-295C-4C90-9A2F-67CD82979CFF";
shapes = (
{
closed = 1;
nodes = (
(373,-10,o),
(459,68,o),
(479,194,cs),
(535,550,l),
(485,550,l),
(429,194,ls),
(413,94,o),
(350,35,o),
(261,35,cs),
(173,35,o),
(129,94,o),
(145,194,cs),
(201,550,l),
(151,550,l),
(95,194,ls),
(75,67,o),
(134,-10,o),
(253,-10,cs)
);
}
);
width = 600;
},
{
anchors = (
{
name = bottom;
pos = (256,0);
},
{
name = horn;
pos = (453,550);
},
{
name = ogonek;
pos = (305,0);
},
{
name = top;
pos = (343,550);
},
{
name = topright;
pos = (624,550);
}
);
layerId = "9ADF6715-3D0F-493D-8567-18A6FBCFC567";
shapes = (
{
closed = 1;
nodes = (
(400,-10,o),
(504,74,o),
(526,214,cs),
(579,550,l),
(429,550,l),
(376,215,ls),
(366,153,o),
(330,120,o),
(275,120,cs),
(219,120,o),
(194,153,o),
(204,215,cs),
(257,550,l),
(107,550,l),
(54,214,ls),
(32,75,o),
(106,-10,o),
(254,-10,cs)
);
}
);
width = 600;
},
{
anchors = (
{
name = bottom;
pos = (256,0);
},
{
name = horn;
pos = (463,550);
},
{
name = ogonek;
pos = (305,0);
},
{
name = top;
pos = (343,550);
},
{
name = topright;
pos = (624,550);
}
);
layerId = "CCC0BD40-BA8C-414E-B576-CF0B94E6C996";
shapes = (
{
closed = 1;
nodes = (
(380,-10,o),
(478,71,o),
(498,200,cs),
(553,550,l),
(463,550,l),
(408,200,ls),
(395,117,o),
(341,69,o),
(266,69,cs),
(192,69,o),
(155,117,o),
(168,200,cs),
(223,550,l),
(133,550,l),
(78,200,ls),
(58,71,o),
(126,-10,o),
(253,-10,cs)
);
}
);
width = 600;
}
);
unicode = 117;
},
{
glyphname = uhorn;
layers = (
{
anchors = (
{
name = bottom;
pos = (236,0);
},
{
name = top;
pos = (323,550);
}
);
layerId = "9ADF6715-3D0F-493D-8567-18A6FBCFC567";
shapes = (
{
closed = 1;
nodes = (
(31,72,o),
(99,-10,o),
(234,-10,cs),
(369,-10,o),
(463,72,o),
(485,209,cs),
(523,450,l),
(610,450,o),
(671,504,o),
(684,585,cs),
(696,660,l),
(576,660,l),
(564,585,ls),
(560,563,o),
(545,550,o),
(523,550,cs),
(389,550,l),
(335,206,ls),
(326,150,o),
(298,120,o),
(255,120,cs),
(212,120,o),
(194,150,o),
(203,206,cs),
(257,550,l),
(107,550,l),
(53,209,ls)
);
}
);
width = 600;
},
{
anchors = (
{
name = bottom;
pos = (255,0);
},
{
name = top;
pos = (343,550);
}
);
layerId = "CCC0BD40-BA8C-414E-B576-CF0B94E6C996";
shapes = (
{
closed = 1;
nodes = (
(57,71,o),
(126,-10,o),
(253,-10,cs),
(380,-10,o),
(477,71,o),
(498,200,cs),
(543,485,l),
(606,485,o),
(639,523,o),
(648,580,cs),
(661,660,l),
(586,660,l),
(574,585,ls),
(570,562,o),
(556,550,o),
(533,550,cs),
(463,550,l),
(408,200,ls),
(395,117,o),
(341,69,o),
(266,69,cs),
(192,69,o),
(155,117,o),
(168,200,cs),
(223,550,l),
(133,550,l),
(78,200,ls)
);
}
);
width = 600;
},
{
anchors = (
{
name = bottom;
pos = (255,0);
},
{
name = top;
pos = (343,550);
}
);
layerId = "EDF5EB54-295C-4C90-9A2F-67CD82979CFF";
shapes = (
{
closed = 1;
nodes = (
(75,67,o),
(134,-10,o),
(253,-10,cs),
(373,-10,o),
(459,68,o),
(479,194,cs),
(530,515,l),
(580,515,o),
(619,549,o),
(627,600,cs),
(637,660,l),
(597,660,l),
(587,600,ls),
(582,570,o),
(561,550,o),
(534,550,cs),
(485,550,l),
(429,194,ls),
(413,94,o),
(350,35,o),
(261,35,cs),
(173,35,o),
(129,94,o),
(145,194,cs),
(201,550,l),
(151,550,l),
(95,194,ls)
);
}
);
width = 600;
}
);
unicode = 432;
},
{
glyphname = uogonek;
layers = (
{
anchors = (
{
name = horn;
pos = (453,550);
},
{
name = top;
pos = (343,550);
}
);
layerId = "EDF5EB54-295C-4C90-9A2F-67CD82979CFF";
shapes = (
{
closed = 1;
nodes = (
(371,-195,l),
(378,-153,l),
(314,-153,ls),
(282,-153,o),
(266,-134,o),
(271,-103,cs),
(275,-75,o),
(304,-36,o),
(348,0,cs),
(379,25,l),
(432,59,o),
(466,116,o),
(478,190,cs),
(535,550,l),
(485,550,l),
(428,190,ls),
(412,91,o),
(353,34,o),
(261,34,cs),
(169,34,o),
(128,91,o),
(144,190,cs),
(201,550,l),
(151,550,l),
(94,190,ls),
(75,68,o),
(136,-10,o),
(254,-10,cs),
(270,-10,o),
(287,-9,o),
(301,-6,c),
(252,-47,o),
(227,-83,o),
(222,-115,cs),
(214,-165,o),
(243,-195,o),
(298,-195,cs)
);
}
);
width = 600;
},
{
anchors = (
{
name = horn;
pos = (463,550);
},
{
name = top;
pos = (343,550);
}
);
layerId = "CCC0BD40-BA8C-414E-B576-CF0B94E6C996";
shapes = (
{
closed = 1;
nodes = (
(374,-203,l),
(383,-143,l),
(323,-143,ls),
(289,-143,o),
(272,-122,o),
(276,-93,cs),
(281,-65,o),
(304,-36,o),
(355,1,cs),
(382,21,l),
(445,55,o),
(485,117,o),
(498,200,cs),
(553,550,l),
(463,550,l),
(408,200,ls),
(394,115,o),
(345,70,o),
(267,70,cs),
(189,70,o),
(154,115,o),
(168,200,cs),
(223,550,l),
(133,550,l),
(78,200,ls),
(57,69,o),
(123,-10,o),
(254,-10,cs),
(257,-10,o),
(260,-10,o),
(263,-10,c),
(211,-51,o),
(193,-81,o),
(189,-110,cs),
(180,-164,o),
(222,-203,o),
(296,-203,cs)
);
}
);
width = 600;
},
{
anchors = (
{
name = horn;
pos = (453,550);
},
{
name = top;
pos = (343,550);
}
);
layerId = "9ADF6715-3D0F-493D-8567-18A6FBCFC567";
shapes = (
{
closed = 1;
nodes = (
(387,-225,l),
(404,-120,l),
(335,-120,ls),
(306,-120,o),
(292,-103,o),
(295,-83,cs),
(298,-66,o),
(316,-41,o),
(346,-18,cs),
(410,31,l),
(470,70,o),
(513,135,o),
(525,210,cs),
(579,550,l),
(429,550,l),
(375,210,ls),
(366,152,o),
(333,120,o),
(275,120,cs),
(217,120,o),
(194,152,o),
(203,210,cs),
(257,550,l),
(107,550,l),
(53,210,ls),
(32,78,o),
(107,-10,o),
(254,-10,cs),
(275,-10,o),
(321,12,o),
(324,31,c),
(224,-19,o),
(173,-68,o),
(166,-115,cs),
(155,-180,o),
(198,-225,o),
(279,-225,cs)
);
}
);
width = 600;
}
);
unicode = 371;
},
{
glyphname = v;
layers = (
{
layerId = "9ADF6715-3D0F-493D-8567-18A6FBCFC567";
shapes = (
{
closed = 1;
nodes = (
(351,0,l),
(616,550,l),
(460,550,l),
(320,240,ls),
(304,204,o),
(287,154,o),
(277,127,c),
(275,154,o),
(270,204,o),
(265,241,cs),
(222,550,l),
(70,550,l),
(163,0,l)
);
}
);
width = 600;
},
{
layerId = "CCC0BD40-BA8C-414E-B576-CF0B94E6C996";
shapes = (
{
closed = 1;
nodes = (
(317,0,l),
(583,550,l),
(489,550,l),
(317,180,ls),
(296,136,o),
(275,91,o),
(266,69,c),
(263,91,o),
(258,136,o),
(251,180,cs),
(192,550,l),
(103,550,l),
(195,0,l)
);
}
);
width = 600;
},
{
layerId = "EDF5EB54-295C-4C90-9A2F-67CD82979CFF";
shapes = (
{
closed = 1;
nodes = (
(287,0,l),
(567,550,l),
(513,550,l),
(309,140,ls),
(290,104,o),
(270,60,o),
(260,37,c),
(257,60,o),
(249,104,o),
(243,140,cs),
(168,550,l),
(119,550,l),
(225,0,l)
);
}
);
width = 600;
}
);
unicode = 118;
},
{
glyphname = w;
layers = (
{
anchors = (
{
name = top;
pos = (343,550);
}
);
layerId = "9ADF6715-3D0F-493D-8567-18A6FBCFC567";
shapes = (
{
closed = 1;
nodes = (
(197,0,l),
(286,310,ls),
(297,347,o),
(313,407,o),
(324,442,c),
(322,407,o),
(322,347,o),
(321,310,cs),
(315,0,l),
(465,0,l),
(633,550,l),
(516,550,l),
(427,250,ls),
(414,207,o),
(397,142,o),
(389,105,c),
(390,141,o),
(393,205,o),
(393,250,cs),
(396,550,l),
(290,550,l),
(197,250,ls),
(183,205,o),
(166,142,o),
(157,106,c),
(159,142,o),
(163,206,o),
(164,250,cs),
(171,550,l),
(53,550,l),
(46,0,l)
);
}
);
width = 600;
},
{
anchors = (
{
name = top;
pos = (343,550);
}
);
layerId = "CCC0BD40-BA8C-414E-B576-CF0B94E6C996";
shapes = (
{
closed = 1;
nodes = (
(178,0,l),
(300,380,ls),
(312,417,o),
(325,459,o),
(331,480,c),
(331,459,o),
(331,417,o),
(331,380,cs),
(330,0,l),
(429,0,l),
(608,550,l),
(532,550,l),
(413,160,ls),
(404,131,o),
(392,92,o),
(385,70,c),
(386,92,o),
(385,131,o),
(385,160,cs),
(386,550,l),
(298,550,l),
(174,160,ls),
(165,131,o),
(153,92,o),
(146,70,c),
(147,92,o),
(147,131,o),
(148,160,cs),
(155,550,l),
(78,550,l),
(79,0,l)
);
}
);
width = 600;
},
{
anchors = (
{
name = top;
pos = (343,550);
}
);
layerId = "EDF5EB54-295C-4C90-9A2F-67CD82979CFF";
shapes = (
{
closed = 1;
nodes = (
(165,0,l),
(299,391,ls),
(311,427,o),
(328,478,o),
(337,507,c),
(338,478,o),
(338,427,o),
(339,391,cs),
(346,0,l),
(412,0,l),
(593,550,l),
(545,550,l),
(412,141,ls),
(402,111,o),
(390,63,o),
(383,35,c),
(384,63,o),
(384,111,o),
(383,140,cs),
(368,550,l),
(317,550,l),
(172,140,ls),
(162,111,o),
(147,63,o),
(140,35,c),
(141,63,o),
(142,111,o),
(142,141,cs),
(139,550,l),
(93,550,l),
(99,0,l)
);
}
);
width = 600;
}
);
unicode = 119;
},
{
glyphname = x;
layers = (
{
layerId = "9ADF6715-3D0F-493D-8567-18A6FBCFC567";
shapes = (
{
closed = 1;
nodes = (
(153,0,l),
(255,130,ls),
(269,147,o),
(281,172,o),
(288,185,c),
(291,172,o),
(300,148,o),
(308,130,cs),
(367,0,l),
(530,0,l),
(386,282,l),
(604,550,l),
(433,550,l),
(348,440,ls),
(334,422,o),
(321,398,o),
(314,385,c),
(311,398,o),
(304,422,o),
(296,440,cs),
(245,550,l),
(82,550,l),
(217,288,l),
(-18,0,l)
);
}
);
width = 600;
},
{
layerId = "CCC0BD40-BA8C-414E-B576-CF0B94E6C996";
shapes = (
{
closed = 1;
nodes = (
(118,0,l),
(260,180,ls),
(272,195,o),
(285,217,o),
(293,229,c),
(297,217,o),
(305,195,o),
(312,180,cs),
(397,0,l),
(501,0,l),
(357,279,l),
(577,550,l),
(470,550,l),
(339,380,ls),
(328,365,o),
(316,346,o),
(310,335,c),
(307,346,o),
(299,365,o),
(292,380,cs),
(214,550,l),
(110,550,l),
(246,286,l),
(11,0,l)
);
}
);
width = 600;
},
{
layerId = "EDF5EB54-295C-4C90-9A2F-67CD82979CFF";
shapes = (
{
closed = 1;
nodes = (
(91,0,l),
(265,210,ls),
(275,222,o),
(289,239,o),
(296,248,c),
(301,239,o),
(311,222,o),
(317,210,cs),
(426,0,l),
(481,0,l),
(330,281,l),
(557,550,l),
(496,550,l),
(333,350,ls),
(325,340,o),
(313,324,o),
(306,315,c),
(301,324,o),
(294,339,o),
(288,350,cs),
(186,550,l),
(130,550,l),
(273,283,l),
(31,0,l)
);
}
);
width = 600;
}
);
unicode = 120;
},
{
glyphname = y;
layers = (
{
anchors = (
{
name = top;
pos = (343,550);
}
);
layerId = "9ADF6715-3D0F-493D-8567-18A6FBCFC567";
shapes = (
{
closed = 1;
nodes = (
(227,-180,ls),
(368,-180,o),
(468,-106,o),
(487,14,cs),
(570,550,l),
(420,550,l),
(374,260,ls),
(365,203,o),
(329,170,o),
(276,170,cs),
(222,170,o),
(195,203,o),
(204,260,cs),
(250,550,l),
(100,550,l),
(52,245,ls),
(32,121,o),
(89,40,o),
(196,40,cs),
(287,40,o),
(353,97,o),
(368,190,c),
(319,155,l),
(363,155,l),
(344,40,l),
(341,19,ls),
(334,-31,o),
(297,-60,o),
(241,-60,cs),
(86,-60,l),
(67,-180,l)
);
}
);
width = 600;
},
{
anchors = (
{
name = top;
pos = (343,550);
}
);
layerId = "CCC0BD40-BA8C-414E-B576-CF0B94E6C996";
shapes = (
{
closed = 1;
nodes = (
(264,-180,ls),
(372,-180,o),
(447,-119,o),
(462,-20,cs),
(553,550,l),
(463,550,l),
(416,250,ls),
(403,165,o),
(348,116,o),
(273,116,cs),
(201,116,o),
(163,162,o),
(176,240,cs),
(225,550,l),
(135,550,l),
(84,230,ls),
(65,113,o),
(125,40,o),
(235,40,cs),
(327,40,o),
(390,90,o),
(404,176,c),
(382,155,l),
(401,155,l),
(384,55,l),
(372,-20,ls),
(364,-74,o),
(334,-98,o),
(278,-98,cs),
(103,-98,l),
(90,-180,l)
);
}
);
width = 600;
},
{
anchors = (
{
name = top;
pos = (343,550);
}
);
layerId = "EDF5EB54-295C-4C90-9A2F-67CD82979CFF";
shapes = (
{
closed = 1;
nodes = (
(239,-180,ls),
(351,-180,o),
(419,-124,o),
(437,-15,cs),
(526,550,l),
(476,550,l),
(427,240,ls),
(412,143,o),
(347,83,o),
(259,83,cs),
(173,83,o),
(129,141,o),
(145,240,cs),
(194,550,l),
(144,550,l),
(94,233,ls),
(75,115,o),
(134,40,o),
(242,40,cs),
(340,40,o),
(412,101,o),
(427,196,c),
(389,145,l),
(412,145,l),
(397,50,l),
(387,-15,ls),
(374,-94,o),
(326,-135,o),
(247,-135,cs),
(102,-135,l),
(94,-180,l)
);
}
);
width = 600;
}
);
unicode = 121;
},
{
glyphname = z;
layers = (
{
anchors = (
{
name = top;
pos = (343,550);
}
);
layerId = "9ADF6715-3D0F-493D-8567-18A6FBCFC567";
shapes = (
{
closed = 1;
nodes = (
(486,0,l),
(507,130,l),
(228,130,l),
(542,420,l),
(562,550,l),
(123,550,l),
(103,420,l),
(361,420,l),
(47,130,l),
(26,0,l)
);
}
);
width = 600;
},
{
anchors = (
{
name = top;
pos = (343,550);
}
);
layerId = "CCC0BD40-BA8C-414E-B576-CF0B94E6C996";
shapes = (
{
closed = 1;
nodes = (
(466,0,l),
(479,82,l),
(158,82,l),
(528,460,l),
(542,550,l),
(141,550,l),
(128,468,l),
(424,468,l),
(60,90,l),
(46,0,l)
);
}
);
width = 600;
},
{
anchors = (
{
name = top;
pos = (343,550);
}
);
layerId = "EDF5EB54-295C-4C90-9A2F-67CD82979CFF";
shapes = (
{
closed = 1;
nodes = (
(453,0,l),
(460,45,l),
(124,45,l),
(520,503,l),
(527,550,l),
(155,550,l),
(148,505,l),
(461,505,l),
(66,46,l),
(59,0,l)
);
}
);
width = 600;
}
);
unicode = 122;
},
{
export = 0;
glyphname = k.ss00;
layers = (
{
anchors = (
{
name = bottom;
pos = (256,0);
},
{
name = top;
pos = (372,730);
}
);
layerId = "EDF5EB54-295C-4C90-9A2F-67CD82979CFF";
shapes = (
{
closed = 1;
nodes = (
(119,0,l),
(163,279,l),
(179,279,l),
(419,0,l),
(484,0,l),
(237,285,l),
(565,550,l),
(496,550,l),
(182,299,l),
(166,299,l),
(235,730,l),
(185,730,l),
(69,0,l)
);
}
);
width = 600;
},
{
anchors = (
{
name = bottom;
pos = (256,0);
},
{
name = top;
pos = (372,730);
}
);
layerId = "CCC0BD40-BA8C-414E-B576-CF0B94E6C996";
shapes = (
{
closed = 1;
nodes = (
(141,0,l),
(185,276,l),
(204,276,l),
(399,0,l),
(509,0,l),
(306,285,l),
(591,550,l),
(477,550,l),
(207,302,l),
(189,302,l),
(257,730,l),
(167,730,l),
(51,0,l)
);
}
);
width = 600;
},
{
anchors = (
{
name = bottom;
pos = (256,0);
},
{
name = top;
pos = (372,730);
}
);
layerId = "9ADF6715-3D0F-493D-8567-18A6FBCFC567";
shapes = (
{
closed = 1;
nodes = (
(175,0,l),
(219,276,l),
(225,276,l),
(365,0,l),
(534,0,l),
(386,281,l),
(617,550,l),
(449,550,l),
(230,302,l),
(223,302,l),
(291,730,l),
(141,730,l),
(25,0,l)
);
}
);
width = 600;
}
);
},
{
export = 0;
glyphname = l.ss01;
layers = (
{
anchors = (
{
name = bottom;
pos = (261,0);
},
{
name = top;
pos = (322,730);
}
);
layerId = "CCC0BD40-BA8C-414E-B576-CF0B94E6C996";
shapes = (
{
closed = 1;
nodes = (
(511,0,l),
(524,82,l),
(319,82,l),
(422,730,l),
(162,730,l),
(149,648,l),
(319,648,l),
(229,82,l),
(14,82,l),
(1,0,l)
);
}
);
width = 600;
},
{
anchors = (
{
name = bottom;
pos = (261,0);
},
{
name = top;
pos = (322,730);
}
);
layerId = "EDF5EB54-295C-4C90-9A2F-67CD82979CFF";
shapes = (
{
closed = 1;
nodes = (
(496,0,l),
(503,45,l),
(294,45,l),
(403,730,l),
(177,730,l),
(169,685,l),
(345,685,l),
(244,45,l),
(23,45,l),
(16,0,l)
);
}
);
width = 600;
},
{
anchors = (
{
name = bottom;
pos = (261,0);
},
{
name = top;
pos = (342,730);
}
);
layerId = "9ADF6715-3D0F-493D-8567-18A6FBCFC567";
shapes = (
{
closed = 1;
nodes = (
(516,0,l),
(538,136,l),
(353,136,l),
(447,730,l),
(152,730,l),
(130,595,l),
(285,595,l),
(213,136,l),
(18,136,l),
(-4,0,l)
);
}
);
width = 600;
}
);
},
{
export = 0;
glyphname = lslash.ss01;
layers = (
{
layerId = "9ADF6715-3D0F-493D-8567-18A6FBCFC567";
shapes = (
{
closed = 1;
nodes = (
(510,416,l),
(533,560,l),
(123,370,l),
(100,226,l)
);
},
{
ref = l.ss01;
}
);
width = 600;
},
{
layerId = "CCC0BD40-BA8C-414E-B576-CF0B94E6C996";
shapes = (
{
closed = 1;
nodes = (
(514,475,l),
(528,560,l),
(119,310,l),
(105,225,l)
);
},
{
ref = l.ss01;
}
);
width = 600;
},
{
layerId = "EDF5EB54-295C-4C90-9A2F-67CD82979CFF";
shapes = (
{
closed = 1;
nodes = (
(520,492,l),
(530,550,l),
(119,295,l),
(109,237,l)
);
},
{
ref = l.ss01;
}
);
width = 600;
}
);
},
{
export = 0;
glyphname = r.ss03;
layers = (
{
anchors = (
{
name = bottom;
pos = (91,0);
},
{
name = top;
pos = (363,550);
}
);
layerId = "EDF5EB54-295C-4C90-9A2F-67CD82979CFF";
shapes = (
{
closed = 1;
nodes = (
(417,0,l),
(424,45,l),
(233,45,l),
(281,350,ls),
(297,446,o),
(361,505,o),
(449,505,cs),
(591,505,l),
(598,550,l),
(464,550,ls),
(368,550,o),
(292,483,o),
(275,381,c),
(308,439,l),
(294,439,l),
(311,550,l),
(118,550,l),
(111,505,l),
(256,505,l),
(183,45,l),
(38,45,l),
(31,0,l)
);
}
);
width = 600;
},
{
anchors = (
{
name = bottom;
pos = (91,0);
},
{
name = top;
pos = (363,550);
}
);
layerId = "9ADF6715-3D0F-493D-8567-18A6FBCFC567";
shapes = (
{
closed = 1;
nodes = (
(432,0,l),
(453,135,l),
(297,135,l),
(327,320,ls),
(336,380,o),
(372,413,o),
(429,413,cs),
(576,413,l),
(598,550,l),
(509,550,ls),
(404,550,o),
(338,489,o),
(320,371,c),
(373,434,l),
(330,434,l),
(348,550,l),
(98,550,l),
(77,415,l),
(192,415,l),
(147,135,l),
(32,135,l),
(11,0,l)
);
}
);
width = 600;
},
{
anchors = (
{
name = bottom;
pos = (201,0);
},
{
name = top;
pos = (363,550);
}
);
layerId = "CCC0BD40-BA8C-414E-B576-CF0B94E6C996";
shapes = (
{
closed = 1;
nodes = (
(431,0,l),
(444,80,l),
(264,80,l),
(306,345,ls),
(318,421,o),
(375,468,o),
(457,468,cs),
(585,468,l),
(598,551,l),
(481,550,ls),
(388,549,o),
(319,483,o),
(301,369,c),
(340,440,l),
(317,440,l),
(334,550,l),
(113,550,l),
(100,470,l),
(235,470,l),
(174,80,l),
(39,80,l),
(26,0,l)
);
}
);
width = 600;
}
);
},
{
export = 0;
glyphname = u.ss04;
layers = (
{
anchors = (
{
name = bottom;
pos = (256,0);
},
{
name = horn;
pos = (453,550);
},
{
name = ogonek;
pos = (414,0);
},
{
name = top;
pos = (343,550);
},
{
name = topright;
pos = (623,550);
}
);
layerId = "EDF5EB54-295C-4C90-9A2F-67CD82979CFF";
shapes = (
{
closed = 1;
nodes = (
(483,550,l),
(426,190,ls),
(411,93,o),
(346,33,o),
(258,33,cs),
(172,33,o),
(128,91,o),
(144,190,cs),
(201,550,l),
(151,550,l),
(93,183,ls),
(74,65,o),
(133,-10,o),
(241,-10,cs),
(339,-10,o),
(411,51,o),
(426,146,c),
(388,95,l),
(411,95,l),
(396,0,l),
(446,0,l),
(533,550,l)
);
}
);
width = 600;
},
{
anchors = (
{
name = bottom;
pos = (256,0);
},
{
name = horn;
pos = (453,550);
},
{
name = ogonek;
pos = (391,0);
},
{
name = top;
pos = (343,550);
},
{
name = topright;
pos = (623,550);
}
);
layerId = "9ADF6715-3D0F-493D-8567-18A6FBCFC567";
shapes = (
{
closed = 1;
nodes = (
(427,550,l),
(373,210,ls),
(364,153,o),
(327,120,o),
(274,120,cs),
(221,120,o),
(194,153,o),
(203,210,cs),
(257,550,l),
(107,550,l),
(51,195,ls),
(31,71,o),
(88,-10,o),
(195,-10,cs),
(286,-10,o),
(353,49,o),
(367,140,c),
(318,105,l),
(362,105,l),
(345,0,l),
(490,0,l),
(577,550,l)
);
}
);
width = 600;
},
{
anchors = (
{
name = bottom;
pos = (256,0);
},
{
name = horn;
pos = (463,550);
},
{
name = ogonek;
pos = (417,0);
},
{
name = top;
pos = (343,550);
},
{
name = topright;
pos = (623,550);
}
);
layerId = "CCC0BD40-BA8C-414E-B576-CF0B94E6C996";
shapes = (
{
closed = 1;
nodes = (
(461,550,l),
(406,200,ls),
(392,115,o),
(339,68,o),
(264,68,cs),
(192,68,o),
(154,112,o),
(166,190,cs),
(223,550,l),
(133,550,l),
(75,180,ls),
(56,63,o),
(115,-10,o),
(225,-10,cs),
(317,-10,o),
(380,40,o),
(394,126,c),
(372,105,l),
(391,105,l),
(374,0,l),
(464,0,l),
(551,550,l)
);
}
);
width = 600;
}
);
},
{
export = 0;
glyphname = uhorn.ss04;
layers = (
{
anchors = (
{
name = bottom;
pos = (236,0);
},
{
name = horn;
pos = (453,550);
},
{
name = ogonek;
pos = (301,0);
},
{
name = top;
pos = (323,550);
},
{
name = topright;
pos = (623,550);
}
);
layerId = "9ADF6715-3D0F-493D-8567-18A6FBCFC567";
shapes = (
{
closed = 1;
nodes = (
(255,-10,o),
(315,48,o),
(329,140,c),
(280,105,l),
(324,105,l),
(307,0,l),
(452,0,l),
(523,450,l),
(610,450,o),
(671,504,o),
(684,585,cs),
(696,660,l),
(576,660,l),
(564,585,ls),
(560,563,o),
(545,550,o),
(523,550,cs),
(389,550,l),
(335,210,ls),
(326,153,o),
(297,120,o),
(255,120,cs),
(213,120,o),
(194,153,o),
(203,210,cs),
(257,550,l),
(107,550,l),
(51,195,ls),
(31,69,o),
(79,-10,o),
(176,-10,cs)
);
}
);
width = 600;
},
{
anchors = (
{
name = bottom;
pos = (255,0);
},
{
name = horn;
pos = (463,550);
},
{
name = ogonek;
pos = (306,0);
},
{
name = top;
pos = (343,550);
},
{
name = topright;
pos = (623,550);
}
);
layerId = "CCC0BD40-BA8C-414E-B576-CF0B94E6C996";
shapes = (
{
closed = 1;
nodes = (
(317,-10,o),
(380,40,o),
(394,126,c),
(372,105,l),
(391,105,l),
(374,0,l),
(464,0,l),
(541,485,l),
(604,485,o),
(639,523,o),
(648,580,cs),
(661,660,l),
(586,660,l),
(574,585,ls),
(570,562,o),
(556,550,o),
(533,550,cs),
(461,550,l),
(406,200,ls),
(392,115,o),
(339,68,o),
(264,68,cs),
(192,68,o),
(154,112,o),
(166,190,cs),
(223,550,l),
(133,550,l),
(75,180,ls),
(56,63,o),
(115,-10,o),
(225,-10,cs)
);
}
);
width = 600;
},
{
anchors = (
{
name = bottom;
pos = (255,0);
},
{
name = horn;
pos = (453,550);
},
{
name = ogonek;
pos = (311,0);
},
{
name = top;
pos = (343,550);
},
{
name = topright;
pos = (623,550);
}
);
layerId = "EDF5EB54-295C-4C90-9A2F-67CD82979CFF";
shapes = (
{
closed = 1;
nodes = (
(339,-10,o),
(411,51,o),
(426,146,c),
(388,95,l),
(411,95,l),
(396,0,l),
(446,0,l),
(528,515,l),
(578,515,o),
(619,549,o),
(627,600,cs),
(637,660,l),
(597,660,l),
(587,600,ls),
(582,570,o),
(561,550,o),
(534,550,cs),
(483,550,l),
(426,190,ls),
(411,93,o),
(346,33,o),
(258,33,cs),
(172,33,o),
(128,91,o),
(144,190,cs),
(201,550,l),
(151,550,l),
(93,183,ls),
(74,65,o),
(133,-10,o),
(241,-10,cs)
);
}
);
width = 600;
}
);
},
{
export = 0;
glyphname = uogonek.ss04;
layers = (
{
layerId = "EDF5EB54-295C-4C90-9A2F-67CD82979CFF";
shapes = (
{
closed = 1;
nodes = (
(457,-195,l),
(463,-153,l),
(399,-153,ls),
(367,-153,o),
(351,-134,o),
(356,-103,cs),
(361,-75,o),
(390,-36,o),
(434,0,cs),
(446,10,l),
(409,10,l),
(352,-27,o),
(314,-74,o),
(307,-115,cs),
(300,-165,o),
(329,-195,o),
(384,-195,c)
);
},
{
ref = u.ss04;
}
);
width = 600;
},
{
layerId = "CCC0BD40-BA8C-414E-B576-CF0B94E6C996";
shapes = (
{
closed = 1;
nodes = (
(470,-203,l),
(480,-143,l),
(420,-143,ls),
(386,-143,o),
(368,-122,o),
(373,-93,cs),
(377,-65,o),
(401,-36,o),
(451,1,c),
(464,10,l),
(389,10,l),
(319,-34,o),
(291,-72,o),
(285,-110,cs),
(276,-164,o),
(318,-203,o),
(392,-203,cs)
);
},
{
ref = u.ss04;
}
);
width = 600;
},
{
layerId = "9ADF6715-3D0F-493D-8567-18A6FBCFC567";
shapes = (
{
closed = 1;
nodes = (
(459,-225,l),
(476,-120,l),
(407,-120,ls),
(378,-120,o),
(364,-103,o),
(367,-83,cs),
(369,-66,o),
(388,-42,o),
(418,-18,cs),
(455,11,l),
(369,11,l),
(296,-19,o),
(245,-68,o),
(238,-115,cs),
(227,-180,o),
(270,-225,o),
(351,-225,cs)
);
},
{
ref = u.ss04;
}
);
width = 600;
}
);
},
{
glyphname = ordfeminine;
layers = (
{
layerId = "9ADF6715-3D0F-493D-8567-18A6FBCFC567";
shapes = (
{
closed = 1;
nodes = (
(458,455,l),
(489,650,ls),
(498,704,o),
(453,740,o),
(378,740,cs),
(313,740,o),
(258,706,o),
(240,655,c),
(320,655,l),
(324,670,o),
(344,680,o),
(369,680,cs),
(396,680,o),
(412,668,o),
(409,650,cs),
(387,510,l),
(390,510,l),
(381,455,l)
);
},
{
closed = 1;
nodes = (
(330,450,o),
(366,472,o),
(387,510,c),
(398,510,l),
(405,555,l),
(394,555,l),
(389,525,o),
(360,505,o),
(323,505,cs),
(299,505,o),
(283,520,o),
(287,540,cs),
(290,562,o),
(306,575,o),
(327,575,cs),
(408,575,l),
(416,625,l),
(335,625,ls),
(266,625,o),
(214,590,o),
(206,538,cs),
(198,485,o),
(232,450,o),
(291,450,cs)
);
}
);
width = 600;
},
{
layerId = "CCC0BD40-BA8C-414E-B576-CF0B94E6C996";
shapes = (
{
closed = 1;
nodes = (
(448,455,l),
(479,650,ls),
(488,706,o),
(449,740,o),
(378,740,cs),
(312,740,o),
(266,711,o),
(251,660,c),
(301,660,l),
(308,684,o),
(337,700,o),
(372,700,cs),
(412,700,o),
(434,681,o),
(429,650,cs),
(407,510,l),
(410,510,l),
(401,455,l)
);
},
{
closed = 1;
nodes = (
(347,450,o),
(387,473,o),
(407,510,c),
(418,510,l),
(425,555,l),
(414,555,l),
(407,513,o),
(372,488,o),
(320,488,cs),
(282,488,o),
(261,506,o),
(266,536,cs),
(270,564,o),
(293,581,o),
(328,581,cs),
(429,581,l),
(435,621,l),
(334,621,ls),
(269,621,o),
(224,588,o),
(216,536,cs),
(208,484,o),
(241,450,o),
(301,450,cs)
);
}
);
width = 600;
},
{
layerId = "EDF5EB54-295C-4C90-9A2F-67CD82979CFF";
shapes = (
{
closed = 1;
nodes = (
(443,455,l),
(474,650,ls),
(483,704,o),
(444,740,o),
(378,740,cs),
(321,740,o),
(272,708,o),
(256,660,c),
(291,660,l),
(301,690,o),
(334,710,o),
(373,710,cs),
(418,710,o),
(445,686,o),
(439,650,cs),
(417,510,l),
(420,510,l),
(411,455,l)
);
},
{
closed = 1;
nodes = (
(351,450,o),
(398,474,o),
(417,510,c),
(428,510,l),
(435,555,l),
(424,555,l),
(416,508,o),
(375,478,o),
(319,478,cs),
(275,478,o),
(250,500,o),
(256,535,cs),
(261,568,o),
(288,590,o),
(324,590,cs),
(440,590,l),
(445,620,l),
(329,620,ls),
(272,620,o),
(229,586,o),
(221,535,cs),
(212,483,o),
(243,450,o),
(301,450,cs)
);
}
);
width = 600;
}
);
unicode = 170;
},
{
glyphname = ordmasculine;
layers = (
{
layerId = "9ADF6715-3D0F-493D-8567-18A6FBCFC567";
shapes = (
{
closed = 1;
nodes = (
(408,450,o),
(471,502,o),
(481,571,cs),
(489,620,ls),
(501,692,o),
(454,740,o),
(373,740,cs),
(292,740,o),
(231,692,o),
(219,620,cs),
(211,571,ls),
(201,502,o),
(246,450,o),
(327,450,cs)
);
},
{
closed = 1;
nodes = (
(305,520,o),
(287,540,o),
(291,571,cs),
(299,620,ls),
(304,650,o),
(329,670,o),
(362,670,cs),
(395,670,o),
(414,650,o),
(409,620,cs),
(401,571,ls),
(397,540,o),
(371,520,o),
(338,520,cs)
);
}
);
width = 600;
},
{
layerId = "CCC0BD40-BA8C-414E-B576-CF0B94E6C996";
shapes = (
{
closed = 1;
nodes = (
(395,445,o),
(448,487,o),
(458,550,cs),
(471,630,ls),
(481,693,o),
(441,735,o),
(372,735,cs),
(303,735,o),
(251,693,o),
(241,630,cs),
(228,550,ls),
(218,487,o),
(257,445,o),
(326,445,cs)
);
},
{
closed = 1;
nodes = (
(294,485,o),
(272,511,o),
(278,550,cs),
(291,630,ls),
(297,669,o),
(327,695,o),
(366,695,cs),
(405,695,o),
(427,669,o),
(421,630,cs),
(408,550,ls),
(402,511,o),
(372,485,o),
(333,485,cs)
);
}
);
width = 600;
},
{
layerId = "EDF5EB54-295C-4C90-9A2F-67CD82979CFF";
shapes = (
{
closed = 1;
nodes = (
(391,445,o),
(441,483,o),
(451,540,cs),
(467,645,ls),
(476,702,o),
(438,740,o),
(373,740,cs),
(308,740,o),
(258,702,o),
(249,645,cs),
(233,540,ls),
(223,483,o),
(261,445,o),
(326,445,cs)
);
},
{
closed = 1;
nodes = (
(286,475,o),
(260,501,o),
(267,540,cs),
(283,645,ls),
(289,684,o),
(323,710,o),
(368,710,cs),
(413,710,o),
(439,684,o),
(433,645,cs),
(417,540,ls),
(410,501,o),
(376,475,o),
(331,475,cs)
);
}
);
width = 600;
}
);
unicode = 186;
},
{
glyphname = "Be-cy";
layers = (
{
layerId = "9ADF6715-3D0F-493D-8567-18A6FBCFC567";
shapes = (
{
closed = 1;
nodes = (
(266,0,ls),
(416,0,o),
(530,89,o),
(551,223,cs),
(572,356,o),
(486,444,o),
(335,444,cs),
(237,444,l),
(260,590,l),
(577,590,l),
(600,730,l),
(138,730,l),
(22,0,l)
);
},
{
closed = 1;
nodes = (
(218,319,l),
(317,319,ls),
(378,319,o),
(411,281,o),
(401,221,cs),
(392,162,o),
(347,125,o),
(286,125,cs),
(187,125,l)
);
}
);
width = 600;
},
{
layerId = "CCC0BD40-BA8C-414E-B576-CF0B94E6C996";
shapes = (
{
closed = 1;
nodes = (
(261,0,ls),
(400,0,o),
(499,84,o),
(520,214,cs),
(540,344,o),
(468,428,o),
(329,428,cs),
(208,428,l),
(243,648,l),
(559,648,l),
(572,730,l),
(166,730,l),
(50,0,l)
);
},
{
closed = 1;
nodes = (
(195,346,l),
(316,346,ls),
(398,346,o),
(440,296,o),
(427,214,cs),
(414,132,o),
(356,82,o),
(274,82,cs),
(153,82,l)
);
}
);
width = 600;
},
{
layerId = "EDF5EB54-295C-4C90-9A2F-67CD82979CFF";
shapes = (
{
closed = 1;
nodes = (
(262,0,ls),
(390,0,o),
(485,80,o),
(504,204,cs),
(524,327,o),
(454,405,o),
(326,405,cs),
(180,405,l),
(224,685,l),
(550,685,l),
(558,730,l),
(182,730,l),
(66,0,l)
);
},
{
closed = 1;
nodes = (
(173,360,l),
(319,360,ls),
(419,360,o),
(470,301,o),
(454,203,cs),
(438,104,o),
(369,45,o),
(269,45,cs),
(123,45,l)
);
}
);
width = 600;
}
);
unicode = 1041;
},
{
glyphname = "Ge-cy";
layers = (
{
anchors = (
{
name = bottomright;
pos = (556,0);
},
{
name = top;
pos = (392,730);
}
);
layerId = "9ADF6715-3D0F-493D-8567-18A6FBCFC567";
shapes = (
{
closed = 1;
nodes = (
(221,0,l),
(314,590,l),
(609,590,l),
(632,730,l),
(187,730,l),
(71,0,l)
);
}
);
width = 600;
},
{
anchors = (
{
name = bottomright;
pos = (556,0);
},
{
name = top;
pos = (392,730);
}
);
layerId = "CCC0BD40-BA8C-414E-B576-CF0B94E6C996";
shapes = (
{
closed = 1;
nodes = (
(176,0,l),
(279,648,l),
(614,648,l),
(627,730,l),
(202,730,l),
(86,0,l)
);
}
);
width = 600;
},
{
anchors = (
{
name = bottomright;
pos = (556,0);
},
{
name = top;
pos = (392,730);
}
);
layerId = "EDF5EB54-295C-4C90-9A2F-67CD82979CFF";
shapes = (
{
closed = 1;
nodes = (
(146,0,l),
(254,685,l),
(609,685,l),
(617,730,l),
(212,730,l),
(96,0,l)
);
}
);
width = 600;
}
);
unicode = 1043;
},
{
glyphname = "Gheupturn-cy";
layers = (
{
layerId = "9ADF6715-3D0F-493D-8567-18A6FBCFC567";
shapes = (
{
closed = 1;
nodes = (
(221,0,l),
(314,590,l),
(609,590,l),
(647,825,l),
(502,825,l),
(487,730,l),
(187,730,l),
(71,0,l)
);
}
);
width = 600;
},
{
layerId = "CCC0BD40-BA8C-414E-B576-CF0B94E6C996";
shapes = (
{
closed = 1;
nodes = (
(176,0,l),
(279,648,l),
(614,648,l),
(642,825,l),
(557,825,l),
(542,730,l),
(202,730,l),
(86,0,l)
);
}
);
width = 600;
},
{
layerId = "EDF5EB54-295C-4C90-9A2F-67CD82979CFF";
shapes = (
{
closed = 1;
nodes = (
(146,0,l),
(254,685,l),
(609,685,l),
(632,825,l),
(582,825,l),
(567,730,l),
(212,730,l),
(96,0,l)
);
}
);
width = 600;
}
);
unicode = 1168;
},
{
glyphname = "De-cy";
layers = (
{
layerId = "9ADF6715-3D0F-493D-8567-18A6FBCFC567";
shapes = (
{
closed = 1;
nodes = (
(96,-140,l),
(118,0,l),
(394,0,l),
(372,-140,l),
(512,-140,l),
(554,128,l),
(494,128,l),
(590,730,l),
(185,730,l),
(117,340,ls),
(101,244,o),
(57,163,o),
(29,128,c),
(-2,128,l),
(-44,-140,l)
);
},
{
closed = 1;
nodes = (
(201,165,o),
(241,248,o),
(257,341,cs),
(302,602,l),
(429,602,l),
(354,128,l),
(176,128,l)
);
}
);
width = 600;
},
{
layerId = "CCC0BD40-BA8C-414E-B576-CF0B94E6C996";
shapes = (
{
closed = 1;
nodes = (
(39,-140,l),
(61,0,l),
(451,0,l),
(429,-140,l),
(509,-140,l),
(543,77,l),
(473,77,l),
(577,730,l),
(203,730,l),
(127,298,ls),
(110,204,o),
(67,117,o),
(38,77,c),
(-7,77,l),
(-41,-140,l)
);
},
{
closed = 1;
nodes = (
(158,111,o),
(198,195,o),
(215,298,cs),
(276,650,l),
(474,650,l),
(383,77,l),
(132,77,l)
);
}
);
width = 600;
},
{
layerId = "EDF5EB54-295C-4C90-9A2F-67CD82979CFF";
shapes = (
{
closed = 1;
nodes = (
(27,-140,l),
(49,0,l),
(461,0,l),
(439,-140,l),
(484,-140,l),
(513,45,l),
(441,45,l),
(550,730,l),
(233,730,l),
(151,276,ls),
(132,168,o),
(79,81,o),
(45,45,c),
(11,45,l),
(-18,-140,l)
);
},
{
closed = 1;
nodes = (
(131,81,o),
(181,168,o),
(201,276,cs),
(275,685,l),
(492,685,l),
(391,45,l),
(98,45,ls)
);
}
);
width = 600;
}
);
unicode = 1044;
},
{
glyphname = "Zhe-cy";
layers = (
{
layerId = "9ADF6715-3D0F-493D-8567-18A6FBCFC567";
shapes = (
{
closed = 1;
nodes = (
(89,0,l),
(225,343,l),
(257,343,l),
(208,0,l),
(310,0,l),
(359,343,l),
(398,343,l),
(430,0,l),
(546,0,l),
(506,369,l),
(652,730,l),
(532,730,l),
(399,397,l),
(368,397,l),
(421,730,l),
(319,730,l),
(266,397,l),
(230,397,l),
(205,730,l),
(88,730,l),
(119,372,l),
(-34,0,l)
);
}
);
width = 600;
},
{
layerId = "CCC0BD40-BA8C-414E-B576-CF0B94E6C996";
shapes = (
{
closed = 1;
nodes = (
(62,0,l),
(229,342,l),
(272,342,l),
(218,0,l),
(294,0,l),
(348,342,l),
(395,342,l),
(453,0,l),
(544,0,l),
(473,372,l),
(650,730,l),
(554,730,l),
(399,406,l),
(358,406,l),
(410,730,l),
(334,730,l),
(282,406,l),
(238,406,l),
(186,730,l),
(94,730,l),
(160,379,l),
(-32,0,l)
);
}
);
width = 600;
},
{
layerId = "EDF5EB54-295C-4C90-9A2F-67CD82979CFF";
shapes = (
{
closed = 1;
nodes = (
(38,0,l),
(219,354,l),
(289,354,l),
(233,0,l),
(277,0,l),
(333,354,l),
(406,354,l),
(475,0,l),
(526,0,l),
(450,376,l),
(632,730,l),
(580,730,l),
(410,396,l),
(340,396,l),
(393,730,l),
(349,730,l),
(296,396,l),
(223,396,l),
(160,730,l),
(110,730,l),
(180,382,l),
(-15,0,l)
);
}
);
width = 600;
}
);
unicode = 1046;
},
{
glyphname = "Ze-cy";
layers = (
{
layerId = "9ADF6715-3D0F-493D-8567-18A6FBCFC567";
shapes = (
{
closed = 1;
nodes = (
(411,-10,o),
(530,80,o),
(551,217,cs),
(568,325,o),
(517,392,o),
(420,390,c),
(419,383,l),
(510,383,o),
(577,444,o),
(593,540,cs),
(612,660,o),
(527,740,o),
(380,740,cs),
(225,740,o),
(109,654,o),
(88,523,c),
(238,523,l),
(246,575,o),
(292,610,o),
(352,610,cs),
(412,610,o),
(445,575,o),
(437,523,cs),
(429,471,o),
(384,437,o),
(324,437,cs),
(221,437,l),
(202,317,l),
(303,317,ls),
(370,317,o),
(408,278,o),
(399,218,cs),
(389,159,o),
(339,120,o),
(273,120,cs),
(212,120,o),
(175,154,o),
(179,205,c),
(29,205,l),
(13,76,o),
(104,-10,o),
(255,-10,cs)
);
}
);
width = 600;
},
{
layerId = "CCC0BD40-BA8C-414E-B576-CF0B94E6C996";
shapes = (
{
closed = 1;
nodes = (
(389,-10,o),
(499,76,o),
(519,205,cs),
(538,321,o),
(474,394,o),
(357,392,c),
(356,382,l),
(462,380,o),
(540,444,o),
(556,546,cs),
(575,663,o),
(499,740,o),
(365,740,cs),
(227,740,o),
(123,658,o),
(104,535,c),
(194,535,l),
(206,610,o),
(268,660,o),
(350,660,cs),
(431,660,o),
(477,612,o),
(466,540,cs),
(454,468,o),
(393,420,o),
(312,420,cs),
(222,420,l),
(209,340,l),
(300,340,ls),
(390,340,o),
(441,286,o),
(428,205,cs),
(416,124,o),
(347,70,o),
(257,70,cs),
(172,70,o),
(122,119,o),
(131,192,c),
(41,192,l),
(24,71,o),
(105,-10,o),
(244,-10,cs)
);
}
);
width = 600;
},
{
layerId = "EDF5EB54-295C-4C90-9A2F-67CD82979CFF";
shapes = (
{
closed = 1;
nodes = (
(378,-10,o),
(484,74,o),
(503,196,cs),
(520,305,o),
(456,380,o),
(346,380,c),
(345,370,l),
(445,370,o),
(524,442,o),
(541,547,cs),
(559,661,o),
(484,740,o),
(358,740,cs),
(232,740,o),
(133,661,o),
(115,547,c),
(165,547,l),
(179,635,o),
(254,696,o),
(351,696,cs),
(448,696,o),
(505,635,o),
(491,547,cs),
(477,459,o),
(401,398,o),
(304,398,cs),
(234,398,l),
(227,353,l),
(302,353,ls),
(406,353,o),
(468,288,o),
(453,193,cs),
(438,99,o),
(356,35,o),
(252,35,cs),
(148,35,o),
(86,99,o),
(101,193,c),
(51,193,l),
(32,73,o),
(110,-10,o),
(244,-10,cs)
);
}
);
width = 600;
}
);
unicode = 1047;
},
{
glyphname = "Ii-cy";
layers = (
{
anchors = (
{
name = bottomright;
pos = (536,0);
},
{
name = top;
pos = (372,730);
}
);
layerId = "9ADF6715-3D0F-493D-8567-18A6FBCFC567";
shapes = (
{
closed = 1;
nodes = (
(193,0,l),
(469,565,l),
(451,492,o),
(423,369,o),
(412,300,cs),
(364,0,l),
(496,0,l),
(612,730,l),
(435,730,l),
(160,165,l),
(176,230,o),
(202,341,o),
(213,410,cs),
(264,730,l),
(132,730,l),
(16,0,l)
);
}
);
width = 600;
},
{
anchors = (
{
name = bottomright;
pos = (536,0);
},
{
name = top;
pos = (372,730);
}
);
layerId = "CCC0BD40-BA8C-414E-B576-CF0B94E6C996";
shapes = (
{
closed = 1;
nodes = (
(166,0,l),
(488,625,l),
(476,576,o),
(455,483,o),
(444,410,cs),
(379,0,l),
(466,0,l),
(582,730,l),
(462,730,l),
(141,105,l),
(152,154,o),
(172,247,o),
(184,320,cs),
(249,730,l),
(162,730,l),
(46,0,l)
);
}
);
width = 600;
},
{
anchors = (
{
name = bottomright;
pos = (536,0);
},
{
name = top;
pos = (372,730);
}
);
layerId = "EDF5EB54-295C-4C90-9A2F-67CD82979CFF";
shapes = (
{
closed = 1;
nodes = (
(134,0,l),
(510,675,l),
(502,635,o),
(490,575,o),
(488,560,cs),
(399,0,l),
(447,0,l),
(563,730,l),
(493,730,l),
(120,55,l),
(124,74,o),
(132,119,o),
(140,170,cs),
(229,730,l),
(181,730,l),
(65,0,l)
);
}
);
width = 600;
}
);
unicode = 1048;
},
{
glyphname = "El-cy";
layers = (
{
layerId = "9ADF6715-3D0F-493D-8567-18A6FBCFC567";
shapes = (
{
closed = 1;
nodes = (
(10,-5,ls),
(130,-5,o),
(223,86,o),
(247,230,cs),
(308,590,l),
(433,590,l),
(340,0,l),
(490,0,l),
(606,730,l),
(184,730,l),
(98,230,ls),
(88,171,o),
(57,130,o),
(22,130,cs),
(-8,130,l),
(-30,-5,l)
);
}
);
width = 600;
},
{
layerId = "CCC0BD40-BA8C-414E-B576-CF0B94E6C996";
shapes = (
{
closed = 1;
nodes = (
(-2,-5,ls),
(113,-5,o),
(178,75,o),
(208,254,cs),
(276,648,l),
(475,648,l),
(372,0,l),
(462,0,l),
(578,730,l),
(200,730,l),
(118,254,ls),
(96,126,o),
(66,79,o),
(7,79,cs),
(-11,79,l),
(-25,-5,l)
);
}
);
width = 600;
},
{
layerId = "EDF5EB54-295C-4C90-9A2F-67CD82979CFF";
shapes = (
{
closed = 1;
nodes = (
(10,-5,ls),
(91,-5,o),
(154,61,o),
(171,164,cs),
(258,684,l),
(504,684,l),
(396,0,l),
(446,0,l),
(562,730,l),
(216,730,l),
(121,164,ls),
(109,92,o),
(68,45,o),
(18,45,cs),
(-12,45,l),
(-20,-5,l)
);
}
);
width = 600;
}
);
unicode = 1051;
},
{
glyphname = "Pe-cy";
layers = (
{
layerId = "9ADF6715-3D0F-493D-8567-18A6FBCFC567";
shapes = (
{
closed = 1;
nodes = (
(172,0,l),
(265,590,l),
(433,590,l),
(340,0,l),
(490,0,l),
(606,730,l),
(138,730,l),
(22,0,l)
);
}
);
width = 600;
},
{
layerId = "CCC0BD40-BA8C-414E-B576-CF0B94E6C996";
shapes = (
{
closed = 1;
nodes = (
(140,0,l),
(243,648,l),
(475,648,l),
(372,0,l),
(462,0,l),
(578,730,l),
(166,730,l),
(50,0,l)
);
}
);
width = 600;
},
{
layerId = "EDF5EB54-295C-4C90-9A2F-67CD82979CFF";
shapes = (
{
closed = 1;
nodes = (
(116,0,l),
(224,685,l),
(504,685,l),
(396,0,l),
(446,0,l),
(562,730,l),
(182,730,l),
(66,0,l)
);
}
);
width = 600;
}
);
unicode = 1055;
},
{
glyphname = "U-cy";
layers = (
{
anchors = (
{
name = top;
pos = (372,730);
}
);
layerId = "9ADF6715-3D0F-493D-8567-18A6FBCFC567";
shapes = (
{
closed = 1;
nodes = (
(274,0,l),
(647,730,l),
(488,730,l),
(350,433,ls),
(336,402,o),
(321,354,o),
(314,327,c),
(314,354,o),
(311,401,o),
(306,433,cs),
(257,730,l),
(97,730,l),
(215,187,l),
(117,0,l)
);
}
);
width = 600;
},
{
anchors = (
{
name = top;
pos = (372,730);
}
);
layerId = "CCC0BD40-BA8C-414E-B576-CF0B94E6C996";
shapes = (
{
closed = 1;
nodes = (
(243,0,l),
(622,730,l),
(522,730,l),
(350,373,ls),
(328,327,o),
(313,283,o),
(307,263,c),
(307,283,o),
(303,327,o),
(293,373,cs),
(218,730,l),
(122,730,l),
(250,189,l),
(147,0,l)
);
}
);
width = 600;
},
{
anchors = (
{
name = top;
pos = (372,730);
}
);
layerId = "EDF5EB54-295C-4C90-9A2F-67CD82979CFF";
shapes = (
{
closed = 1;
nodes = (
(222,0,l),
(604,730,l),
(548,730,l),
(363,373,ls),
(340,329,o),
(315,274,o),
(303,246,c),
(298,274,o),
(286,329,o),
(276,373,cs),
(195,730,l),
(140,730,l),
(267,192,l),
(163,0,l)
);
}
);
width = 600;
}
);
unicode = 1059;
},
{
glyphname = "Ef-cy";
layers = (
{
layerId = "9ADF6715-3D0F-493D-8567-18A6FBCFC567";
shapes = (
{
closed = 1;
nodes = (
(312,-25,l),
(323,45,l),
(448,45,o),
(547,133,o),
(568,264,cs),
(602,481,ls),
(623,612,o),
(552,700,o),
(427,700,c),
(438,770,l),
(318,770,l),
(307,700,l),
(182,700,o),
(83,612,o),
(62,481,cs),
(28,264,ls),
(7,133,o),
(78,45,o),
(203,45,c),
(192,-25,l)
);
},
{
closed = 1;
nodes = (
(174,161,o),
(145,202,o),
(155,264,cs),
(189,481,ls),
(199,543,o),
(242,585,o),
(295,585,c),
(227,161,l)
);
},
{
closed = 1;
nodes = (
(403,585,l),
(456,585,o),
(485,543,o),
(475,481,cs),
(441,264,ls),
(431,202,o),
(388,161,o),
(335,161,c)
);
}
);
width = 600;
},
{
layerId = "CCC0BD40-BA8C-414E-B576-CF0B94E6C996";
shapes = (
{
closed = 1;
nodes = (
(294,-25,l),
(305,45,l),
(428,45,o),
(522,127,o),
(542,253,cs),
(579,487,ls),
(600,616,o),
(533,700,o),
(409,700,c),
(420,770,l),
(336,770,l),
(325,700,l),
(201,700,o),
(108,616,o),
(87,487,cs),
(50,253,ls),
(30,127,o),
(98,45,o),
(221,45,c),
(210,-25,l)
);
},
{
closed = 1;
nodes = (
(158,121,o),
(121,171,o),
(134,253,cs),
(171,487,ls),
(185,572,o),
(238,624,o),
(313,624,c),
(233,121,l)
);
},
{
closed = 1;
nodes = (
(397,624,l),
(472,624,o),
(509,572,o),
(495,487,cs),
(458,253,ls),
(445,171,o),
(392,121,o),
(317,121,c)
);
}
);
width = 600;
},
{
layerId = "EDF5EB54-295C-4C90-9A2F-67CD82979CFF";
shapes = (
{
closed = 1;
nodes = (
(277,-25,l),
(288,45,l),
(417,45,o),
(509,123,o),
(529,247,cs),
(569,500,ls),
(589,622,o),
(522,700,o),
(392,700,c),
(403,770,l),
(353,770,l),
(342,700,l),
(212,700,o),
(121,622,o),
(101,500,cs),
(61,247,ls),
(41,123,o),
(109,45,o),
(238,45,c),
(227,-25,l)
);
},
{
closed = 1;
nodes = (
(152,90,o),
(97,156,o),
(111,247,cs),
(151,500,ls),
(165,589,o),
(241,655,o),
(335,655,c),
(245,90,l)
);
},
{
closed = 1;
nodes = (
(385,655,l),
(479,655,o),
(533,589,o),
(519,500,cs),
(479,247,ls),
(465,156,o),
(388,90,o),
(295,90,c)
);
}
);
width = 600;
}
);
unicode = 1060;
},
{
glyphname = "Che-cy";
layers = (
{
layerId = "9ADF6715-3D0F-493D-8567-18A6FBCFC567";
shapes = (
{
closed = 1;
nodes = (
(486,0,l),
(602,730,l),
(452,730,l),
(401,410,l),
(386,404,o),
(354,400,o),
(324,400,cs),
(251,400,o),
(222,422,o),
(231,475,cs),
(272,730,l),
(122,730,l),
(80,466,ls),
(60,338,o),
(127,265,o),
(268,265,cs),
(313,265,o),
(359,270,o),
(380,276,c),
(336,0,l)
);
}
);
width = 600;
},
{
layerId = "CCC0BD40-BA8C-414E-B576-CF0B94E6C996";
shapes = (
{
closed = 1;
nodes = (
(461,0,l),
(577,730,l),
(487,730,l),
(429,365,l),
(410,357,o),
(354,351,o),
(304,351,cs),
(219,351,o),
(181,383,o),
(192,451,cs),
(237,730,l),
(147,730,l),
(102,451,ls),
(83,336,o),
(147,271,o),
(276,271,cs),
(328,271,o),
(391,278,o),
(416,286,c),
(371,0,l)
);
}
);
width = 600;
},
{
layerId = "EDF5EB54-295C-4C90-9A2F-67CD82979CFF";
shapes = (
{
closed = 1;
nodes = (
(446,0,l),
(562,730,l),
(512,730,l),
(452,356,l),
(416,349,o),
(363,345,o),
(320,345,cs),
(200,345,o),
(157,387,o),
(174,491,cs),
(212,730,l),
(162,730,l),
(124,491,ls),
(104,366,o),
(166,300,o),
(303,300,cs),
(352,300,o),
(409,305,o),
(446,312,c),
(396,0,l)
);
}
);
width = 600;
}
);
unicode = 1063;
},
{
glyphname = "Tse-cy";
layers = (
{
layerId = "9ADF6715-3D0F-493D-8567-18A6FBCFC567";
shapes = (
{
closed = 1;
nodes = (
(512,-140,l),
(556,140,l),
(481,140,l),
(575,730,l),
(425,730,l),
(331,140,l),
(194,140,l),
(288,730,l),
(138,730,l),
(22,0,l),
(394,0,l),
(372,-140,l)
);
}
);
width = 600;
},
{
layerId = "CCC0BD40-BA8C-414E-B576-CF0B94E6C996";
shapes = (
{
closed = 1;
nodes = (
(499,-140,l),
(534,80,l),
(459,80,l),
(562,730,l),
(472,730,l),
(369,80,l),
(153,80,l),
(256,730,l),
(166,730,l),
(50,0,l),
(441,0,l),
(419,-140,l)
);
}
);
width = 600;
},
{
layerId = "EDF5EB54-295C-4C90-9A2F-67CD82979CFF";
shapes = (
{
closed = 1;
nodes = (
(484,-140,l),
(513,45,l),
(436,45,l),
(545,730,l),
(495,730,l),
(386,45,l),
(123,45,l),
(232,730,l),
(182,730,l),
(66,0,l),
(456,0,l),
(434,-140,l)
);
}
);
width = 600;
}
);
unicode = 1062;
},
{
glyphname = "Sha-cy";
layers = (
{
layerId = "9ADF6715-3D0F-493D-8567-18A6FBCFC567";
shapes = (
{
closed = 1;
nodes = (
(516,0,l),
(632,730,l),
(509,730,l),
(409,100,l),
(324,100,l),
(424,730,l),
(320,730,l),
(220,100,l),
(135,100,l),
(235,730,l),
(112,730,l),
(-4,0,l)
);
}
);
width = 600;
},
{
layerId = "CCC0BD40-BA8C-414E-B576-CF0B94E6C996";
shapes = (
{
closed = 1;
nodes = (
(492,0,l),
(608,730,l),
(525,730,l),
(420,68,l),
(304,68,l),
(409,730,l),
(337,730,l),
(232,68,l),
(115,68,l),
(220,730,l),
(136,730,l),
(22,0,l)
);
}
);
width = 600;
},
{
layerId = "EDF5EB54-295C-4C90-9A2F-67CD82979CFF";
shapes = (
{
closed = 1;
nodes = (
(480,0,l),
(596,730,l),
(548,730,l),
(439,43,l),
(287,43,l),
(396,730,l),
(348,730,l),
(239,43,l),
(87,43,l),
(196,730,l),
(148,730,l),
(32,0,l)
);
}
);
width = 600;
}
);
unicode = 1064;
},
{
glyphname = "Shcha-cy";
layers = (
{
layerId = "9ADF6715-3D0F-493D-8567-18A6FBCFC567";
shapes = (
{
closed = 1;
nodes = (
(521,-140,l),
(559,100,l),
(494,100,l),
(594,730,l),
(481,730,l),
(381,100,l),
(302,100,l),
(402,730,l),
(303,730,l),
(203,100,l),
(124,100,l),
(224,730,l),
(111,730,l),
(-5,0,l),
(413,0,l),
(391,-140,l)
);
}
);
width = 600;
},
{
layerId = "CCC0BD40-BA8C-414E-B576-CF0B94E6C996";
shapes = (
{
closed = 1;
nodes = (
(509,-140,l),
(543,76,l),
(496,76,l),
(600,730,l),
(519,730,l),
(415,76,l),
(299,76,l),
(403,730,l),
(333,730,l),
(229,76,l),
(113,76,l),
(217,730,l),
(136,730,l),
(20,0,l),
(451,0,l),
(429,-140,l)
);
}
);
width = 600;
},
{
layerId = "EDF5EB54-295C-4C90-9A2F-67CD82979CFF";
shapes = (
{
closed = 1;
nodes = (
(499,-140,l),
(528,43,l),
(481,43,l),
(590,730,l),
(542,730,l),
(433,43,l),
(284,43,l),
(393,730,l),
(345,730,l),
(236,43,l),
(87,43,l),
(196,730,l),
(148,730,l),
(32,0,l),
(471,0,l),
(449,-140,l)
);
}
);
width = 600;
}
);
unicode = 1065;
},
{
glyphname = "Dzhe-cy";
layers = (
{
layerId = "9ADF6715-3D0F-493D-8567-18A6FBCFC567";
shapes = (
{
closed = 1;
nodes = (
(311,-125,l),
(331,0,l),
(490,0,l),
(606,730,l),
(456,730,l),
(362,140,l),
(194,140,l),
(288,730,l),
(138,730,l),
(22,0,l),
(181,0,l),
(161,-125,l)
);
}
);
width = 600;
},
{
layerId = "CCC0BD40-BA8C-414E-B576-CF0B94E6C996";
shapes = (
{
closed = 1;
nodes = (
(281,-125,l),
(301,0,l),
(462,0,l),
(578,730,l),
(488,730,l),
(385,82,l),
(153,82,l),
(256,730,l),
(166,730,l),
(50,0,l),
(211,0,l),
(191,-125,l)
);
}
);
width = 600;
},
{
layerId = "EDF5EB54-295C-4C90-9A2F-67CD82979CFF";
shapes = (
{
closed = 1;
nodes = (
(264,-125,l),
(284,0,l),
(446,0,l),
(562,730,l),
(507,730,l),
(399,50,l),
(129,50,l),
(237,730,l),
(182,730,l),
(66,0,l),
(229,0,l),
(209,-125,l)
);
}
);
width = 600;
}
);
unicode = 1039;
},
{
glyphname = "Softsign-cy";
layers = (
{
layerId = "9ADF6715-3D0F-493D-8567-18A6FBCFC567";
shapes = (
{
closed = 1;
nodes = (
(266,0,ls),
(424,0,o),
(540,88,o),
(561,223,cs),
(583,358,o),
(494,445,o),
(336,445,cs),
(242,445,l),
(288,730,l),
(138,730,l),
(22,0,l)
);
},
{
closed = 1;
nodes = (
(222,315,l),
(316,315,ls),
(383,315,o),
(420,279,o),
(411,222,cs),
(402,166,o),
(354,130,o),
(287,130,cs),
(193,130,l)
);
}
);
width = 600;
},
{
layerId = "CCC0BD40-BA8C-414E-B576-CF0B94E6C996";
shapes = (
{
closed = 1;
nodes = (
(286,0,ls),
(417,0,o),
(520,87,o),
(540,215,cs),
(560,344,o),
(485,430,o),
(354,430,cs),
(208,430,l),
(256,730,l),
(166,730,l),
(50,0,l)
);
},
{
closed = 1;
nodes = (
(195,348,l),
(336,348,ls),
(415,348,o),
(460,295,o),
(447,215,cs),
(434,135,o),
(373,82,o),
(294,82,cs),
(153,82,l)
);
}
);
width = 600;
},
{
layerId = "EDF5EB54-295C-4C90-9A2F-67CD82979CFF";
shapes = (
{
closed = 1;
nodes = (
(266,0,ls),
(397,0,o),
(494,82,o),
(514,210,cs),
(535,338,o),
(464,420,o),
(333,420,cs),
(183,420,l),
(232,730,l),
(182,730,l),
(66,0,l)
);
},
{
closed = 1;
nodes = (
(175,375,l),
(325,375,ls),
(425,375,o),
(479,310,o),
(463,210,cs),
(447,110,o),
(373,45,o),
(273,45,cs),
(123,45,l)
);
}
);
width = 600;
}
);
unicode = 1068;
},
{
glyphname = "Hardsign-cy";
layers = (
{
layerId = "9ADF6715-3D0F-493D-8567-18A6FBCFC567";
shapes = (
{
closed = 1;
nodes = (
(266,0,ls),
(424,0,o),
(540,88,o),
(561,223,cs),
(583,358,o),
(494,445,o),
(336,445,cs),
(286,445,l),
(332,730,l),
(67,730,l),
(48,610,l),
(163,610,l),
(66,0,l)
);
},
{
closed = 1;
nodes = (
(266,315,l),
(316,315,ls),
(383,315,o),
(420,279,o),
(411,222,cs),
(402,166,o),
(354,130,o),
(287,130,cs),
(237,130,l)
);
}
);
width = 600;
},
{
layerId = "CCC0BD40-BA8C-414E-B576-CF0B94E6C996";
shapes = (
{
closed = 1;
nodes = (
(286,0,ls),
(417,0,o),
(520,87,o),
(540,215,cs),
(560,344,o),
(485,430,o),
(354,430,cs),
(249,430,l),
(297,730,l),
(67,730,l),
(54,648,l),
(194,648,l),
(91,0,l)
);
},
{
closed = 1;
nodes = (
(236,348,l),
(336,348,ls),
(415,348,o),
(460,295,o),
(447,215,cs),
(434,135,o),
(373,82,o),
(294,82,cs),
(194,82,l)
);
}
);
width = 600;
},
{
layerId = "EDF5EB54-295C-4C90-9A2F-67CD82979CFF";
shapes = (
{
closed = 1;
nodes = (
(266,0,ls),
(397,0,o),
(494,82,o),
(514,210,cs),
(535,338,o),
(464,420,o),
(333,420,cs),
(213,420,l),
(262,730,l),
(82,730,l),
(74,680,l),
(204,680,l),
(96,0,l)
);
},
{
closed = 1;
nodes = (
(205,375,l),
(325,375,ls),
(425,375,o),
(479,310,o),
(463,210,cs),
(447,110,o),
(373,45,o),
(273,45,cs),
(153,45,l)
);
}
);
width = 600;
}
);
unicode = 1066;
},
{
glyphname = "Yeru-cy";
layers = (
{
layerId = "9ADF6715-3D0F-493D-8567-18A6FBCFC567";
shapes = (
{
closed = 1;
nodes = (
(146,0,ls),
(264,0,o),
(347,72,o),
(366,190,cs),
(376,254,ls),
(395,372,o),
(334,445,o),
(216,445,cs),
(191,445,l),
(237,730,l),
(112,730,l),
(-4,0,l)
);
},
{
closed = 1;
nodes = (
(173,330,l),
(198,330,ls),
(242,330,o),
(264,302,o),
(256,252,cs),
(246,191,ls),
(238,142,o),
(208,115,o),
(164,115,cs),
(139,115,l)
);
},
{
closed = 1;
nodes = (
(516,0,l),
(632,730,l),
(507,730,l),
(391,0,l)
);
}
);
width = 600;
},
{
layerId = "CCC0BD40-BA8C-414E-B576-CF0B94E6C996";
shapes = (
{
closed = 1;
nodes = (
(146,0,ls),
(268,0,o),
(353,71,o),
(372,189,cs),
(380,240,ls),
(399,357,o),
(335,430,o),
(214,430,cs),
(173,430,l),
(221,730,l),
(137,730,l),
(21,0,l)
);
},
{
closed = 1;
nodes = (
(161,351,l),
(202,351,ls),
(272,351,o),
(305,310,o),
(294,240,cs),
(286,190,ls),
(275,120,o),
(229,79,o),
(159,79,cs),
(118,79,l)
);
},
{
closed = 1;
nodes = (
(491,0,l),
(607,730,l),
(523,730,l),
(407,0,l)
);
}
);
width = 600;
},
{
layerId = "EDF5EB54-295C-4C90-9A2F-67CD82979CFF";
shapes = (
{
closed = 1;
nodes = (
(141,0,ls),
(260,0,o),
(348,75,o),
(366,190,cs),
(372,230,ls),
(391,345,o),
(327,420,o),
(208,420,cs),
(153,420,l),
(202,730,l),
(152,730,l),
(36,0,l)
);
},
{
closed = 1;
nodes = (
(145,375,l),
(200,375,ls),
(290,375,o),
(337,320,o),
(322,230,cs),
(316,190,ls),
(302,100,o),
(238,45,o),
(148,45,cs),
(93,45,l)
);
},
{
closed = 1;
nodes = (
(476,0,l),
(592,730,l),
(542,730,l),
(426,0,l)
);
}
);
width = 600;
}
);
unicode = 1067;
},
{
glyphname = "Lje-cy";
layers = (
{
layerId = "9ADF6715-3D0F-493D-8567-18A6FBCFC567";
shapes = (
{
closed = 1;
nodes = (
(-25,-5,ls),
(76,-5,o),
(157,79,o),
(178,205,cs),
(249,620,l),
(329,620,l),
(231,0,l),
(356,0,ls),
(473,0,o),
(557,69,o),
(575,185,cs),
(587,259,ls),
(606,376,o),
(543,445,o),
(426,445,cs),
(421,445,l),
(467,730,l),
(149,730,l),
(58,205,ls),
(48,147,o),
(19,110,o),
(-17,110,cs),
(-37,110,l),
(-55,-5,l)
);
},
{
closed = 1;
nodes = (
(404,335,l),
(409,335,ls),
(453,335,o),
(475,307,o),
(467,257,cs),
(455,186,ls),
(448,137,o),
(417,110,o),
(373,110,cs),
(368,110,l)
);
}
);
width = 600;
},
{
layerId = "CCC0BD40-BA8C-414E-B576-CF0B94E6C996";
shapes = (
{
closed = 1;
nodes = (
(-35,-5,ls),
(49,-5,o),
(114,71,o),
(135,194,cs),
(213,655,l),
(340,655,l),
(236,0,l),
(376,0,ls),
(472,0,o),
(546,62,o),
(561,155,cs),
(580,275,ls),
(594,368,o),
(540,430,o),
(444,430,cs),
(384,430,l),
(432,730,l),
(146,730,l),
(56,194,ls),
(43,120,o),
(15,75,o),
(-19,75,cs),
(-37,75,l),
(-50,-5,l)
);
},
{
closed = 1;
nodes = (
(372,355,l),
(432,355,ls),
(480,355,o),
(507,323,o),
(500,275,cs),
(481,155,ls),
(473,107,o),
(436,75,o),
(388,75,cs),
(328,75,l)
);
}
);
width = 600;
},
{
layerId = "EDF5EB54-295C-4C90-9A2F-67CD82979CFF";
shapes = (
{
closed = 1;
nodes = (
(-25,-5,ls),
(47,-5,o),
(105,59,o),
(122,158,cs),
(214,685,l),
(361,685,l),
(253,0,l),
(371,0,ls),
(463,0,o),
(530,58,o),
(545,150,cs),
(564,270,ls),
(578,362,o),
(530,420,o),
(438,420,cs),
(370,420,l),
(419,730,l),
(172,730,l),
(72,158,ls),
(60,87,o),
(27,45,o),
(-17,45,cs),
(-42,45,l),
(-50,-5,l)
);
},
{
closed = 1;
nodes = (
(362,375,l),
(430,375,ls),
(492,375,o),
(524,335,o),
(514,270,cs),
(495,150,ls),
(484,85,o),
(440,45,o),
(378,45,cs),
(310,45,l)
);
}
);
width = 600;
}
);
unicode = 1033;
},
{
glyphname = "Nje-cy";
layers = (
{
layerId = "9ADF6715-3D0F-493D-8567-18A6FBCFC567";
shapes = (
{
closed = 1;
nodes = (
(116,0,l),
(171,345,l),
(286,345,l),
(231,0,l),
(356,0,ls),
(474,0,o),
(557,70,o),
(575,185,cs),
(589,269,ls),
(607,385,o),
(546,455,o),
(428,455,cs),
(423,455,l),
(467,730,l),
(347,730,l),
(303,455,l),
(188,455,l),
(232,730,l),
(112,730,l),
(-4,0,l)
);
},
{
closed = 1;
nodes = (
(406,345,l),
(411,345,ls),
(455,345,o),
(476,317,o),
(468,267,cs),
(455,186,ls),
(448,138,o),
(418,110,o),
(373,110,cs),
(368,110,l)
);
}
);
width = 600;
},
{
layerId = "CCC0BD40-BA8C-414E-B576-CF0B94E6C996";
shapes = (
{
closed = 1;
nodes = (
(89,0,l),
(145,355,l),
(292,355,l),
(236,0,l),
(376,0,ls),
(474,0,o),
(546,60,o),
(561,155,cs),
(580,275,ls),
(595,370,o),
(542,430,o),
(444,430,cs),
(384,430,l),
(432,730,l),
(352,730,l),
(304,430,l),
(157,430,l),
(205,730,l),
(125,730,l),
(9,0,l)
);
},
{
closed = 1;
nodes = (
(372,355,l),
(432,355,ls),
(482,355,o),
(507,325,o),
(500,275,cs),
(481,155,ls),
(473,105,o),
(438,75,o),
(388,75,cs),
(328,75,l)
);
}
);
width = 600;
},
{
layerId = "EDF5EB54-295C-4C90-9A2F-67CD82979CFF";
shapes = (
{
closed = 1;
nodes = (
(68,0,l),
(127,375,l),
(312,375,l),
(253,0,l),
(366,0,ls),
(461,0,o),
(530,58,o),
(545,150,cs),
(564,270,ls),
(578,362,o),
(528,420,o),
(433,420,cs),
(370,420,l),
(419,730,l),
(369,730,l),
(320,420,l),
(135,420,l),
(184,730,l),
(134,730,l),
(18,0,l)
);
},
{
closed = 1;
nodes = (
(362,375,l),
(425,375,ls),
(490,375,o),
(524,335,o),
(514,270,cs),
(495,150,ls),
(484,85,o),
(438,45,o),
(373,45,cs),
(310,45,l)
);
}
);
width = 600;
}
);
unicode = 1034;
},
{
glyphname = "E-cy";
layers = (
{
layerId = "9ADF6715-3D0F-493D-8567-18A6FBCFC567";
shapes = (
{
closed = 1;
nodes = (
(405,-10,o),
(516,77,o),
(537,210,c),
(387,210,l),
(378,152,o),
(339,120,o),
(279,120,cs),
(219,120,o),
(190,152,o),
(199,210,cs),
(214,300,l),
(419,300,l),
(440,435,l),
(235,435,l),
(248,520,ls),
(258,578,o),
(297,610,o),
(357,610,cs),
(417,610,o),
(446,578,o),
(436,520,c),
(586,520,l),
(607,653,o),
(524,740,o),
(377,740,cs),
(230,740,o),
(119,653,o),
(98,520,cs),
(49,210,ls),
(28,78,o),
(111,-10,o),
(258,-10,cs)
);
}
);
width = 600;
},
{
layerId = "CCC0BD40-BA8C-414E-B576-CF0B94E6C996";
shapes = (
{
closed = 1;
nodes = (
(389,-10,o),
(483,71,o),
(504,200,c),
(414,200,l),
(401,117,o),
(349,70,o),
(271,70,cs),
(192,70,o),
(155,117,o),
(168,200,cs),
(188,327,l),
(413,327,l),
(426,409,l),
(201,409,l),
(220,531,ls),
(233,613,o),
(286,660,o),
(365,660,cs),
(443,660,o),
(479,613,o),
(466,530,c),
(556,530,l),
(576,659,o),
(508,740,o),
(377,740,cs),
(244,740,o),
(151,661,o),
(130,530,cs),
(78,200,ls),
(57,69,o),
(125,-10,o),
(258,-10,cs)
);
}
);
width = 600;
},
{
layerId = "EDF5EB54-295C-4C90-9A2F-67CD82979CFF";
shapes = (
{
closed = 1;
nodes = (
(384,-10,o),
(477,72,o),
(498,200,c),
(448,200,l),
(432,98,o),
(364,35,o),
(268,35,cs),
(174,35,o),
(126,94,o),
(141,190,cs),
(166,346,l),
(401,346,l),
(408,391,l),
(173,391,l),
(197,540,ls),
(212,636,o),
(279,695,o),
(372,695,cs),
(467,695,o),
(516,632,o),
(500,530,c),
(550,530,l),
(570,658,o),
(503,740,o),
(379,740,cs),
(257,740,o),
(166,662,o),
(147,540,cs),
(91,190,ls),
(72,69,o),
(138,-10,o),
(260,-10,cs)
);
}
);
width = 600;
}
);
unicode = 1028;
},
{
glyphname = "Ereversed-cy";
layers = (
{
layerId = "9ADF6715-3D0F-493D-8567-18A6FBCFC567";
shapes = (
{
closed = 1;
nodes = (
(397,-10,o),
(508,78,o),
(529,210,cs),
(578,520,ls),
(599,653,o),
(516,740,o),
(369,740,cs),
(222,740,o),
(111,653,o),
(90,520,c),
(240,520,l),
(250,578,o),
(289,610,o),
(349,610,cs),
(409,610,o),
(438,578,o),
(428,520,cs),
(415,435,l),
(210,435,l),
(189,300,l),
(394,300,l),
(379,210,ls),
(370,152,o),
(331,120,o),
(271,120,cs),
(211,120,o),
(182,152,o),
(191,210,c),
(41,210,l),
(20,77,o),
(103,-10,o),
(250,-10,cs)
);
}
);
width = 600;
},
{
layerId = "CCC0BD40-BA8C-414E-B576-CF0B94E6C996";
shapes = (
{
closed = 1;
nodes = (
(383,-10,o),
(477,69,o),
(498,200,cs),
(550,530,ls),
(571,661,o),
(502,740,o),
(369,740,cs),
(238,740,o),
(144,659,o),
(124,530,c),
(214,530,l),
(227,613,o),
(279,660,o),
(357,660,cs),
(436,660,o),
(473,613,o),
(460,531,cs),
(441,409,l),
(216,409,l),
(203,327,l),
(428,327,l),
(408,200,ls),
(395,117,o),
(342,70,o),
(263,70,cs),
(185,70,o),
(149,117,o),
(162,200,c),
(72,200,l),
(51,71,o),
(119,-10,o),
(250,-10,cs)
);
}
);
width = 600;
},
{
layerId = "EDF5EB54-295C-4C90-9A2F-67CD82979CFF";
shapes = (
{
closed = 1;
nodes = (
(375,-10,o),
(467,69,o),
(486,190,cs),
(542,540,ls),
(561,662,o),
(494,740,o),
(372,740,cs),
(248,740,o),
(155,658,o),
(135,530,c),
(185,530,l),
(201,632,o),
(270,695,o),
(365,695,cs),
(458,695,o),
(507,636,o),
(492,540,cs),
(468,391,l),
(233,391,l),
(226,346,l),
(461,346,l),
(436,190,ls),
(421,94,o),
(355,35,o),
(261,35,cs),
(165,35,o),
(117,98,o),
(133,200,c),
(83,200,l),
(62,72,o),
(129,-10,o),
(253,-10,cs)
);
}
);
width = 600;
}
);
unicode = 1069;
},
{
glyphname = "Tshe-cy";
layers = (
{
layerId = "9ADF6715-3D0F-493D-8567-18A6FBCFC567";
shapes = (
{
closed = 1;
nodes = (
(206,0,l),
(252,290,l),
(290,323,ls),
(324,352,o),
(351,365,o),
(377,365,cs),
(417,365,o),
(433,337,o),
(425,285,cs),
(381,0,l),
(531,0,l),
(576,290,ls),
(596,414,o),
(540,495,o),
(436,495,cs),
(384,495,o),
(336,475,o),
(289,434,cs),
(273,420,l),
(299,590,l),
(409,590,l),
(432,730,l),
(72,730,l),
(49,590,l),
(149,590,l),
(56,0,l)
);
}
);
width = 600;
},
{
layerId = "CCC0BD40-BA8C-414E-B576-CF0B94E6C996";
shapes = (
{
closed = 1;
nodes = (
(156,0,l),
(205,310,l),
(257,357,ls),
(302,399,o),
(342,419,o),
(380,419,cs),
(436,419,o),
(461,377,o),
(448,296,cs),
(401,0,l),
(491,0,l),
(541,316,ls),
(558,425,o),
(507,495,o),
(413,495,cs),
(355,495,o),
(298,469,o),
(237,413,cs),
(219,396,l),
(259,651,l),
(379,651,l),
(392,730,l),
(72,730,l),
(59,651,l),
(169,651,l),
(66,0,l)
);
}
);
width = 600;
},
{
layerId = "EDF5EB54-295C-4C90-9A2F-67CD82979CFF";
shapes = (
{
closed = 1;
nodes = (
(136,0,l),
(185,310,l),
(272,388,ls),
(319,429,o),
(366,452,o),
(405,452,cs),
(460,452,o),
(486,408,o),
(474,336,cs),
(421,0,l),
(471,0,l),
(526,346,ls),
(540,437,o),
(498,495,o),
(419,495,cs),
(364,495,o),
(306,468,o),
(249,416,cs),
(194,366,l),
(244,685,l),
(369,685,l),
(377,730,l),
(72,730,l),
(64,685,l),
(194,685,l),
(86,0,l)
);
}
);
width = 600;
}
);
unicode = 1035;
},
{
glyphname = "Iu-cy";
layers = (
{
layerId = "9ADF6715-3D0F-493D-8567-18A6FBCFC567";
shapes = (
{
closed = 1;
nodes = (
(455,-10,o),
(536,60,o),
(553,170,cs),
(615,561,ls),
(632,671,o),
(574,740,o),
(465,740,cs),
(369,740,o),
(296,670,o),
(279,561,cs),
(258,427,l),
(187,427,l),
(235,730,l),
(112,730,l),
(-4,0,l),
(119,0,l),
(170,322,l),
(241,322,l),
(217,170,ls),
(200,60,o),
(250,-10,o),
(346,-10,cs)
);
},
{
closed = 1;
nodes = (
(331,100,o),
(313,123,o),
(319,160,cs),
(384,571,ls),
(390,607,o),
(415,630,o),
(448,630,cs),
(481,630,o),
(499,607,o),
(493,571,cs),
(428,160,ls),
(422,123,o),
(398,100,o),
(364,100,cs)
);
}
);
width = 600;
},
{
layerId = "CCC0BD40-BA8C-414E-B576-CF0B94E6C996";
shapes = (
{
closed = 1;
nodes = (
(449,-10,o),
(526,63,o),
(545,180,cs),
(603,550,ls),
(622,667,o),
(568,740,o),
(462,740,cs),
(358,740,o),
(284,668,o),
(265,550,cs),
(244,415,l),
(165,415,l),
(215,730,l),
(132,730,l),
(16,0,l),
(99,0,l),
(152,335,l),
(231,335,l),
(207,180,ls),
(188,63,o),
(240,-10,o),
(343,-10,cs)
);
},
{
closed = 1;
nodes = (
(299,68,o),
(274,108,o),
(286,180,cs),
(344,550,ls),
(356,622,o),
(393,662,o),
(450,662,cs),
(507,662,o),
(532,622,o),
(520,550,cs),
(462,180,ls),
(450,108,o),
(413,68,o),
(356,68,cs)
);
}
);
width = 600;
},
{
layerId = "EDF5EB54-295C-4C90-9A2F-67CD82979CFF";
shapes = (
{
closed = 1;
nodes = (
(435,-10,o),
(502,53,o),
(519,160,cs),
(584,570,ls),
(601,677,o),
(554,740,o),
(459,740,cs),
(365,740,o),
(297,677,o),
(280,570,cs),
(253,396,l),
(143,396,l),
(196,730,l),
(148,730,l),
(32,0,l),
(80,0,l),
(136,356,l),
(246,356,l),
(215,160,ls),
(198,53,o),
(246,-10,o),
(340,-10,cs)
);
},
{
closed = 1;
nodes = (
(284,35,o),
(251,83,o),
(263,160,cs),
(328,570,ls),
(340,647,o),
(388,695,o),
(452,695,cs),
(516,695,o),
(548,647,o),
(536,570,cs),
(471,160,ls),
(459,83,o),
(412,35,o),
(348,35,cs)
);
}
);
width = 600;
}
);
unicode = 1070;
},
{
glyphname = "Ia-cy";
layers = (
{
layerId = "9ADF6715-3D0F-493D-8567-18A6FBCFC567";
shapes = (
{
closed = 1;
nodes = (
(149,0,l),
(315,276,l),
(385,276,l),
(341,0,l),
(490,0,l),
(606,730,l),
(372,730,ls),
(217,730,o),
(103,644,o),
(81,508,cs),
(64,396,o),
(117,304,o),
(217,288,c),
(218,362,l),
(-7,0,l)
);
},
{
closed = 1;
nodes = (
(254,406,o),
(221,441,o),
(230,501,cs),
(240,563,o),
(285,600,o),
(351,600,cs),
(436,600,l),
(405,406,l),
(320,406,ls)
);
}
);
width = 600;
},
{
layerId = "CCC0BD40-BA8C-414E-B576-CF0B94E6C996";
shapes = (
{
closed = 1;
nodes = (
(113,0,l),
(304,310,l),
(420,310,l),
(371,0,l),
(461,0,l),
(577,730,l),
(353,730,ls),
(223,730,o),
(122,645,o),
(102,520,cs),
(85,410,o),
(139,331,o),
(242,313,c),
(238,354,l),
(12,0,l)
);
},
{
closed = 1;
nodes = (
(224,390,o),
(183,442,o),
(195,520,cs),
(208,598,o),
(266,650,o),
(340,650,cs),
(474,650,l),
(433,390,l),
(299,390,ls)
);
}
);
width = 600;
},
{
layerId = "EDF5EB54-295C-4C90-9A2F-67CD82979CFF";
shapes = (
{
closed = 1;
nodes = (
(88,0,l),
(304,330,l),
(448,330,l),
(396,0,l),
(446,0,l),
(562,730,l),
(357,730,ls),
(228,730,o),
(134,652,o),
(115,528,cs),
(97,416,o),
(155,339,o),
(266,330,c),
(261,351,l),
(28,0,l)
);
},
{
closed = 1;
nodes = (
(203,375,o),
(150,436,o),
(165,530,cs),
(180,624,o),
(252,685,o),
(349,685,cs),
(504,685,l),
(455,375,l),
(300,375,ls)
);
}
);
width = 600;
}
);
unicode = 1071;
},
